<?xml version="1.0" encoding="utf-8"?>
<svg version="1.1" xmlns="http://www.w3.org/2000/svg" xmlns:xlink="http://www.w3.org/1999/xlink" x="0px" y="0px"
	 viewBox="0 0 35.2 27.6" xml:space="preserve">
<style type="text/css">
	.st0{fill:#89969F;}
</style>
<g>
	<path class="st0" d="M28.2,9.7V4.1c0-0.8-0.6-1.4-1.4-1.4c-0.8,0-1.4-0.6-1.4-1.4c0-0.8,0.6-1.4,1.4-1.4C29.1,0,31,1.9,31,4.1v5.5
		c0,1.5,1.2,2.8,2.8,2.8c0.8,0,1.4,0.6,1.4,1.4c0,0.8-0.6,1.4-1.4,1.4c-1.5,0-2.8,1.2-2.8,2.8v5.5c0,2.3-1.9,4.1-4.2,4.1
		c-0.8,0-1.4-0.6-1.4-1.4c0-0.8,0.6-1.4,1.4-1.4c0.8,0,1.4-0.6,1.4-1.4v-5.5c0-1.7,0.8-3.1,1.9-4.1C29,12.8,28.2,11.3,28.2,9.7z
		 M1.4,12.4c1.5,0,2.8-1.2,2.8-2.8V4.1C4.2,1.9,6,0,8.3,0c0.8,0,1.4,0.6,1.4,1.4c0,0.8-0.6,1.4-1.4,1.4C7.6,2.8,7,3.4,7,4.1v5.5
		c0,1.7-0.8,3.1-1.9,4.1c1.2,1,1.9,2.5,1.9,4.1v5.5c0,0.8,0.6,1.4,1.4,1.4c0.8,0,1.4,0.6,1.4,1.4c0,0.8-0.6,1.4-1.4,1.4
		c-2.3,0-4.2-1.9-4.2-4.1v-5.5c0-1.5-1.2-2.8-2.8-2.8c-0.8,0-1.4-0.6-1.4-1.4S0.6,12.4,1.4,12.4L1.4,12.4z"/>
</g>
</svg>
