<?xml version="1.0" encoding="UTF-8"?>
<svg width="147px" height="49px" viewBox="0 0 147 49" version="1.1" xmlns="http://www.w3.org/2000/svg" xmlns:xlink="http://www.w3.org/1999/xlink">
    <!-- Generator: Sketch 52.2 (67145) - http://www.bohemiancoding.com/sketch -->
    <title>DibssSolutions_logo</title>
    <desc>Created with Sketch.</desc>
    <g id="Symbols" stroke="none" stroke-width="1" fill="none" fill-rule="evenodd">
        <g id="DibssSolutions_logo" fill="#FFFFFF" fill-rule="nonzero">
            <g>
                <g id="Group" transform="translate(19.000000, 0.000000)">
                    <path d="M6.18665961,3.34190231 L1.98582996,3.34190231 C0.911528506,3.34190231 8.8817842e-16,2.94087404 8.8817842e-16,1.67095116 C8.8817842e-16,0.467866323 0.878973918,0 1.88816619,0 L7.32478262,0 C9.86404064,0 11.1336696,1.06940874 12.2405256,3.34190231 L15.1053295,9.22365038 C15.7564213,10.5938303 16.0819672,11.562982 16.0819672,13.1002571 C16.0819672,14.437018 15.7238667,15.5732648 15.1378841,16.7763496 L12.1754165,22.8586118 C11.0360058,25.2313625 9.57104931,26 7.03179134,26 L1.62772948,26 C0.781310146,26 1.28494665e-15,25.5321337 1.28494665e-15,24.3290489 C1.28494665e-15,23.125964 0.781310146,22.6580977 1.62772948,22.6580977 L7.06434593,22.6580977 C8.43163867,22.6580977 8.75718459,22.4910026 9.34316721,21.2544987 L12.2079711,15.3059126 C12.5660716,14.5372751 12.8265083,13.9691517 12.8265083,13.1336761 C12.8265083,11.9974293 12.4684078,11.3624679 12.0126435,10.3933162 L9.31061261,4.74550129 C8.62696622,3.30848329 8.33397489,3.34190231 6.83646378,3.34190231 L6.18665961,3.3418363 L6.18665961,3.34190231 Z" id="Shape"></path>
                    <path d="M32.8982213,3.34190231 L32.8982213,22.6580977 L37.6837459,22.6580977 C38.5301652,22.6580977 39.3114754,23.125964 39.3114754,24.3290489 C39.3114754,25.5321337 38.5301652,26 37.6837459,26 L24.8572377,26 C24.0108184,26 23.2295082,25.5321337 23.2295082,24.3290489 C23.2295082,23.125964 24.0108184,22.6580977 24.8572377,22.6580977 L29.6427623,22.6580977 L29.6427623,3.34190231 L24.8572377,3.34190231 C24.0108184,3.34190231 23.2295082,2.87403599 23.2295082,1.67095116 C23.2295082,0.467866323 24.0108184,2.66453526e-15 24.8572377,2.66453526e-15 L37.6837459,2.66453526e-15 C38.5301652,2.66453526e-15 39.3114754,0.467866323 39.3114754,1.67095116 C39.3114754,2.87403599 38.5301652,3.34190231 37.6837459,3.34190231 L32.8982213,3.34190231 Z" id="Shape"></path>
                    <path d="M46.4590164,26 L46.4590164,0 L55.5743013,0 C60.3598262,0 62.5409836,3.00771208 62.5409836,7.71979436 C62.5409836,9.65809771 62.1177741,11.4293059 60.3923805,13 C62.2479925,14.8046273 62.5409836,16.5758355 62.5409836,19.0488432 C62.5409836,23.4267352 59.7087343,26 55.5743013,26 L46.4590164,26 Z M49.7144752,14.6709511 L49.7144752,22.6580977 L55.5743013,22.6580977 C57.918232,22.6580977 59.2855248,21.588689 59.2855248,19.0488432 C59.2855248,16.2416452 58.536769,14.6709511 55.5743013,14.6709511 L49.7144752,14.6709511 Z M49.7144752,3.34190231 L49.7144752,11.3290489 L55.5743013,11.3290489 C57.918232,11.3290489 59.2855248,10.2596401 59.2855248,7.71979436 C59.2855248,4.91259642 58.536769,3.34190231 55.5743013,3.34190231 L49.7144752,3.34190231 Z" id="Shape"></path>
                    <path d="M73.4323025,4.71208228 L84.6310813,19.4498714 C85.2821731,20.318766 85.7704918,21.0874036 85.7704918,22.2236504 C85.7704918,24.7300771 83.9148803,26 81.6686136,26 L74.5066038,26 C73.2695293,26 72.195228,25.7660669 71.2185902,24.9305913 C70.3396164,24.1953727 69.6885246,22.9922879 69.6885246,21.8226221 C69.6885246,20.7532134 70.2745072,19.8174807 71.4139178,19.8174807 C72.3580012,19.8174807 72.9439834,20.6195373 72.9439834,21.5218509 C72.9439834,22.5244216 73.4648568,22.6580977 74.3763854,22.6580977 L81.4407313,22.6580977 C81.701168,22.6580977 82.515033,22.7583548 82.515033,22.2570694 C82.515033,21.9897172 82.0592687,21.4884319 81.9290504,21.2879177 L70.7628259,6.55012856 C70.0791797,5.6478149 69.6885246,4.97943443 69.6885246,3.80976864 C69.6885246,2.47300771 70.3070616,1.33676093 71.4139178,0.601542416 C72.3254463,-6.66133815e-16 73.0742017,-6.66133815e-16 74.1159487,-6.66133815e-16 L81.0175218,-6.66133815e-16 C82.2545963,-6.66133815e-16 83.2963428,0.267352187 84.2404262,1.10282776 C85.0868456,1.8714653 85.7704918,3.10796915 85.7704918,4.27763496 C85.7704918,5.3470437 85.2496183,6.2159383 84.077653,6.2159383 C83.1010152,6.2159383 82.515033,5.58097689 82.515033,4.64524422 C82.515033,3.50899743 81.9616047,3.34190231 80.9524126,3.34190231 L74.0508395,3.34190231 C73.6927392,3.34190231 72.9439834,3.24164524 72.9439834,3.80976864 C72.9439834,4.11053985 73.3020841,4.51156812 73.4323025,4.71208228 Z" id="Shape"></path>
                    <path d="M96.6618107,4.71208228 L107.860589,19.4498714 C108.511681,20.318766 109,21.0874036 109,22.2236504 C109,24.7300771 107.144388,26 104.898122,26 L97.736112,26 C96.4990375,26 95.4247362,25.7660669 94.4480984,24.9305913 C93.5691246,24.1953727 92.9180328,22.9922879 92.9180328,21.8226221 C92.9180328,20.7532134 93.5040154,19.8174807 94.643426,19.8174807 C95.5875093,19.8174807 96.1734916,20.6195373 96.1734916,21.5218509 C96.1734916,22.5244216 96.694365,22.6580977 97.6058936,22.6580977 L104.670239,22.6580977 C104.930676,22.6580977 105.744541,22.7583548 105.744541,22.2570694 C105.744541,21.9897172 105.288777,21.4884319 105.158559,21.2879177 L93.9923341,6.55012856 C93.3086879,5.6478149 92.9180328,4.97943443 92.9180328,3.80976864 C92.9180328,2.47300771 93.5365698,1.33676093 94.643426,0.601542416 C95.5549545,-6.66133815e-16 96.3037099,-6.66133815e-16 97.3454569,-6.66133815e-16 L104.24703,-6.66133815e-16 C105.484104,-6.66133815e-16 106.525851,0.267352187 107.469934,1.10282776 C108.316354,1.8714653 109,3.10796915 109,4.27763496 C109,5.3470437 108.479127,6.2159383 107.307161,6.2159383 C106.330523,6.2159383 105.744541,5.58097689 105.744541,4.64524422 C105.744541,3.50899743 105.191113,3.34190231 104.181921,3.34190231 L97.2803477,3.34190231 C96.9222474,3.34190231 96.1734916,3.24164524 96.1734916,3.80976864 C96.1734916,4.11053985 96.5315923,4.51156812 96.6618107,4.71208228 Z" id="Shape"></path>
                </g>
                <path d="M135.729222,18.6855895 L143.640178,13.489083 L135.773418,8.33624456 C135.353562,8.05240177 135,7.74672487 135,7.17903928 C135.022098,6.56768559 135.530343,6 136.171175,6 C136.50264,6 136.812006,6.15283842 137.077178,6.32751094 L146.181406,12.3100437 C146.667554,12.6157205 147.021116,12.8777293 146.999019,13.489083 C146.999019,14.1222707 146.667554,14.3624454 146.181406,14.6681223 L137.099276,20.628821 C136.834104,20.8034934 136.524737,21 136.149078,21 C135.530343,21 135,20.4104804 135,19.7991266 C135.022098,19.2532751 135.287269,18.9694323 135.729222,18.6855895 Z" id="Shape"></path>
                <path d="M0.729222144,18.6855895 L8.64017747,13.489083 L0.773417424,8.33624456 C0.353562254,8.05240177 0,7.74672487 0,7.17903928 C0.0220976447,6.56768559 0.530343379,6 1.17117496,6 C1.50263956,6 1.81200653,6.15283842 2.07717822,6.32751094 L11.1814061,12.3100437 C11.6675542,12.6157205 12.0211165,12.8777293 11.9990188,13.489083 C11.9990188,14.1222707 11.6675542,14.3624454 11.1814061,14.6681223 L2.09927586,20.628821 C1.83410417,20.8034934 1.52473721,21 1.14907731,21 C0.530343379,21 1.02482126e-16,20.4104804 1.02482126e-16,19.7991266 C0.0220976447,19.2532751 0.28726933,18.9694323 0.729222144,18.6855895 Z" id="Shape" transform="translate(6.000000, 13.500000) scale(-1, 1) translate(-6.000000, -13.500000) "></path>
                <path d="M25.6222594,35.7277487 L25.1883222,36.3167539 C24.7732518,35.9044502 23.9053773,35.2565445 22.6978998,35.2565445 C20.9810178,35.2565445 20.1320102,36.591623 20.1320102,38.0248691 C20.1320102,39.5562827 21.1130856,40.223822 22.3582968,40.6753927 C23.9242442,41.2447644 26.7354027,41.8337696 26.7354027,44.7198953 C26.7354027,47.0366492 24.9430533,48.5287956 22.7545004,48.5287956 C20.7546158,48.5287956 19.5094046,47.2918848 19,46.7421466 L19.4905377,46.2120419 C20.1697438,46.9581152 21.2074198,47.8219895 22.6978998,47.8219895 C24.4147819,47.8219895 26.0373298,46.6439791 26.0373298,44.7787958 C26.0373298,42.5602094 23.7733095,41.9123037 22.3582968,41.460733 C21.414955,41.1662304 19.5282714,40.4790576 19.4150704,38.2212042 C19.3207362,36.473822 20.3206785,34.5497382 22.7356335,34.5497382 C23.6789753,34.5497382 24.6411839,34.8442408 25.6222594,35.7277487 Z M30.1157108,41.5196335 C30.1157108,37.632199 33.1344046,34.4712042 36.8511712,34.4712042 C40.5868048,34.4712042 43.6243653,37.632199 43.6243653,41.5196335 C43.6243653,45.3874345 40.5868048,48.5287956 36.8511712,48.5287956 C33.1344046,48.5287956 30.1157108,45.3874345 30.1157108,41.5196335 Z M30.8137838,41.5196335 C30.8137838,44.9751309 33.5306081,47.8023559 36.8511712,47.8023559 C40.1717344,47.8023559 42.9262924,44.9751309 42.9262924,41.5196335 C42.9262924,38.0641361 40.1717344,35.197644 36.8511712,35.197644 C33.5306081,35.197644 30.8137838,38.0641361 30.8137838,41.5196335 Z M47.1556082,48.3717278 L47.1556082,34.6282722 L47.8536813,34.6282722 L47.8536813,47.723822 L55.1362795,47.723822 L55.1362795,48.3717278 L47.1556082,48.3717278 Z M63.4408318,48.5287956 C60.9692765,48.5287956 59.1203264,46.9384817 59.1203264,43.934555 L59.1203264,34.6282722 L59.8183995,34.6282722 L59.8183995,43.8756544 C59.8183995,46.447644 61.3277462,47.8808898 63.4408318,47.8808898 C65.5350506,47.8808898 67.0821314,46.447644 67.0821314,43.8756544 L67.0821314,34.6282722 L67.7802045,34.6282722 L67.7802045,43.934555 C67.7802045,46.9384817 65.8935208,48.5287956 63.4408318,48.5287956 Z M80.6505309,34.6282722 L80.6505309,35.276178 L75.7828871,35.276178 L75.7828871,48.3717278 L75.0848144,48.3717278 L75.0848144,35.276178 L70.2171706,35.276178 L70.2171706,34.6282722 L80.6505309,34.6282722 Z M83.1629644,34.6282722 L83.8610374,34.6282722 L83.8610374,48.3717278 L83.1629644,48.3717278 L83.1629644,34.6282722 Z M87.5620815,41.5196335 C87.5620815,37.632199 90.5807753,34.4712042 94.2975422,34.4712042 C98.0331754,34.4712042 101.070736,37.632199 101.070736,41.5196335 C101.070736,45.3874345 98.0331754,48.5287956 94.2975422,48.5287956 C90.5807753,48.5287956 87.5620815,45.3874345 87.5620815,41.5196335 Z M88.2601546,41.5196335 C88.2601546,44.9751309 90.9769791,47.8023559 94.2975422,47.8023559 C97.6181052,47.8023559 100.372663,44.9751309 100.372663,41.5196335 C100.372663,38.0641361 97.6181052,35.197644 94.2975422,35.197644 C90.9769791,35.197644 88.2601546,38.0641361 88.2601546,41.5196335 Z M116.299417,34.6282722 L116.299417,49 L105.771723,36.2971204 L105.413253,35.7866492 L105.469854,36.4149215 L105.469854,48.3717278 L104.771781,48.3717278 L104.771781,34 L115.299475,46.7028796 L115.657945,47.2133509 L115.601344,46.5850785 L115.601344,34.6282722 L116.299417,34.6282722 Z M126.886857,35.7277487 L126.45292,36.3167539 C126.037849,35.9044502 125.169974,35.2565445 123.962497,35.2565445 C122.245615,35.2565445 121.396608,36.591623 121.396608,38.0248691 C121.396608,39.5562827 122.377683,40.223822 123.622894,40.6753927 C125.188841,41.2447644 128,41.8337696 128,44.7198953 C128,47.0366492 126.20765,48.5287956 124.019098,48.5287956 C122.019213,48.5287956 120.774002,47.2918848 120.264597,46.7421466 L120.755135,46.2120419 C121.434341,46.9581152 122.472017,47.8219895 123.962497,47.8219895 C125.679379,47.8219895 127.301927,46.6439791 127.301927,44.7787958 C127.301927,42.5602094 125.037907,41.9123037 123.622894,41.460733 C122.679552,41.1662304 120.792869,40.4790576 120.679668,38.2212042 C120.585334,36.473822 121.585276,34.5497382 124.000231,34.5497382 C124.943573,34.5497382 125.905781,34.8442408 126.886857,35.7277487 Z" id="Shape"></path>
            </g>
        </g>
    </g>
</svg>