<?xml version="1.0" encoding="UTF-8"?>
<svg width="23px" height="15px" viewBox="0 0 23 15" version="1.1" xmlns="http://www.w3.org/2000/svg" xmlns:xlink="http://www.w3.org/1999/xlink">
    <!-- Generator: Sketch 52.2 (67145) - http://www.bohemiancoding.com/sketch -->
    <title>noun_681630_cc</title>
    <desc>Created with Sketch.</desc>
    <g id="Welcome" stroke="none" stroke-width="1" fill="none" fill-rule="evenodd">
        <g id="DS_web-v" transform="translate(-197.000000, -3984.000000)" fill="#FFFFFF" fill-rule="nonzero">
            <g id="contact_us" transform="translate(0.000000, 3675.000000)">
                <g id="mail" transform="translate(197.000000, 305.000000)">
                    <g id="noun_681630_cc" transform="translate(0.000000, 4.000000)">
                        <g id="Group">
                            <path d="M2.87497125,0.0987627273 C2.21757375,0.0987627273 1.61529,0.311680909 1.1320025,0.661262727 L11.0327838,9.48229091 C11.2552513,9.68042727 11.7446913,9.68042727 11.9671588,9.48229091 L21.86794,0.661262727 C21.3846525,0.311680909 20.7823688,0.0987627273 20.1249713,0.0987627273 L2.87497125,0.0987627273 Z M0.377315,1.47944455 C0.14055875,1.87615364 -2.87787498e-05,2.33586273 -2.87787498e-05,2.82603545 L-2.87787498e-05,12.0987545 C-2.87787498e-05,12.6542182 0.1778475,13.1687455 0.47612875,13.5987818 L0.50315375,13.5818727 L7.73556125,8.04207273 L0.3773725,1.47958091 L0.377315,1.47944455 Z M22.6226275,1.47944455 L15.2644388,8.04193636 L22.4968463,13.5817364 L22.5238713,13.5986455 C22.8221525,13.1686091 23.0000288,12.6540818 23.0000288,12.0986182 L23.0000288,2.82589909 C23.0000288,2.33572636 22.8594413,1.87601727 22.622685,1.47930818 L22.6226275,1.47944455 Z M8.58006375,8.79193636 L1.29372125,14.3743364 C1.74705125,14.6573182 2.28944875,14.8260545 2.87497125,14.8260545 L20.1249713,14.8260545 C20.7104938,14.8260545 21.2528913,14.6573182 21.7062213,14.3743364 L14.4198788,8.79193636 L12.7577838,10.2748909 C12.0541563,10.9016727 10.9457863,10.9016727 10.2421588,10.2748909 L8.58006375,8.79193636 Z" id="Shape"></path>
                        </g>
                    </g>
                </g>
            </g>
        </g>
    </g>
</svg>