<?xml version="1.0" encoding="UTF-8"?>
<svg width="36px" height="36px" viewBox="0 0 36 36" version="1.1" xmlns="http://www.w3.org/2000/svg" xmlns:xlink="http://www.w3.org/1999/xlink">
    <!-- Generator: Sketch 52.2 (67145) - http://www.bohemiancoding.com/sketch -->
    <title>github</title>
    <desc>Created with Sketch.</desc>
    <g id="Symbols" stroke="none" stroke-width="1" fill="none" fill-rule="evenodd">
        <g id="ic_works-/-tools" transform="translate(-2.000000, -2.000000)" fill="#89969F" fill-rule="nonzero">
            <g id="github">
                <g transform="translate(2.000000, 2.000000)">
                    <path d="M17.9580822,0 C8.04069863,0 0,8.04069863 0,17.9580822 C0,27.8765753 8.04069863,35.9161644 17.9580822,35.9161644 C27.8754658,35.9161644 35.9161644,27.8765753 35.9161644,17.9580822 C35.9160411,8.04069863 27.8753425,0 17.9580822,0 Z M22.9884658,31.6386986 C22.8851507,30.2334658 22.7696301,28.4926438 22.7628493,27.7878082 C22.7179726,27.2468219 22.6595342,25.8708082 21.3531781,24.9920137 C26.5396438,24.5576712 29.0077397,21.6911096 29.1851507,17.9030959 C29.3333425,15.7459315 28.4757534,13.8490274 26.9527808,12.3181644 C27.0302055,10.6806575 26.9033425,8.7399863 26.7979315,7.88708219 C25.6284247,7.55038356 22.9010548,8.99038356 22.1388904,9.60657534 C20.531589,8.98249315 16.597726,8.76365753 14.2070548,9.60657534 C12.5122192,8.41463014 10.5828904,7.67835616 9.53124658,7.88375342 C8.56035616,10.0353699 9.18443836,12.0691233 9.37405479,12.3115068 C8.12367123,13.454137 6.37952055,14.8604795 6.85319178,17.8066849 C7.6130137,22.1266849 10.6524247,24.4568219 15.5459589,25.0269041 C14.5022055,25.2401918 14.3259041,26.0191233 14.2383699,26.3569315 C10.9520137,27.712726 10.0126849,25.5196849 9.59732877,24.9483699 C8.2179863,23.2412055 6.97993151,23.7362055 6.90361644,23.7630822 C6.82952055,23.7899589 6.77342466,23.8977123 6.78131507,23.9493699 C6.85084932,24.3175068 7.60179452,24.6913151 7.63878082,24.7215205 C8.65676712,25.4802329 9.03390411,26.8506986 9.26617808,27.241274 C10.7263973,29.6420548 14.1205068,28.6465068 14.1530548,28.666726 C14.155274,28.8765616 14.1295068,30.643274 14.1092877,32.0181781 C7.92061644,30.3277808 3.36710959,24.6821918 3.36710959,17.9580822 C3.36710959,9.89938356 9.89938356,3.36723288 17.9579589,3.36723288 C26.0165342,3.36723288 32.5489315,9.89938356 32.5489315,17.9580822 C32.5489315,24.2467397 28.5645205,29.5880548 22.9884658,31.6386986 Z" id="Shape"></path>
                </g>
            </g>
        </g>
    </g>
</svg>