<?xml version="1.0" encoding="utf-8"?>
<svg version="1.1" xmlns="http://www.w3.org/2000/svg" xmlns:xlink="http://www.w3.org/1999/xlink" x="0px" y="0px"
	 viewBox="0 0 35.2 19.3" xml:space="preserve">
<style type="text/css">
	.st0{fill:#0074E4;}
</style>
<g>
	<path class="st0" d="M24.5,2.4c-0.5-0.5-0.5-1.4,0-1.9c0,0,0,0,0,0c0.5-0.5,1.4-0.5,2,0l8.3,8.3c0.5,0.5,0.5,1.4,0,1.9c0,0,0,0,0,0
		l-8.3,8.3c-0.3,0.3-0.6,0.4-1,0.4c-0.4,0-0.7-0.1-1-0.4c-0.5-0.5-0.5-1.4,0-1.9c0,0,0,0,0,0l7.4-7.3C31.8,9.7,24.5,2.4,24.5,2.4z
		 M0.4,8.7l8.3-8.3c0.5-0.5,1.4-0.5,2,0c0.5,0.5,0.5,1.4,0,1.9c0,0,0,0,0,0L3.4,9.7l7.4,7.3c0.5,0.5,0.5,1.4,0,1.9c0,0,0,0,0,0
		c-0.3,0.3-0.6,0.4-1,0.4c-0.4,0-0.7-0.1-1-0.4l-8.3-8.3C-0.1,10.1-0.1,9.2,0.4,8.7C0.4,8.7,0.4,8.7,0.4,8.7L0.4,8.7z"/>
</g>
</svg>
