<?xml version="1.0" encoding="UTF-8"?>
<svg width="58px" height="64px" viewBox="0 0 58 64" version="1.1" xmlns="http://www.w3.org/2000/svg" xmlns:xlink="http://www.w3.org/1999/xlink">
    <!-- Generator: Sketch 52.2 (67145) - http://www.bohemiancoding.com/sketch -->
    <title>iconfinder_node-js_1269842</title>
    <desc>Created with Sketch.</desc>
    <g id="Page-1" stroke="none" stroke-width="1" fill="none" fill-rule="evenodd">
        <g id="iconfinder_node-js_1269842" fill="#81CF08">
            <g id="Group">
                <path d="M29,63.9 C28.1,63.9 27.3,63.7 26.5,63.2 L18.7,58.6 C17.5,57.9 18.1,57.7 18.5,57.6 C20.1,57 20.4,56.9 22,56 C22.2,55.9 22.4,55.9 22.6,56.1 L28.6,59.7 C28.8,59.8 29.1,59.8 29.3,59.7 L52.7,46.2 C52.9,46.1 53.1,45.8 53.1,45.6 L53.1,18.6 C53.1,18.3 53,18.1 52.7,18 L29.4,4.4 C29.2,4.3 28.9,4.3 28.7,4.4 L5.3,17.8 C5.1,17.9 4.9,18.2 4.9,18.4 L4.9,45.4 C4.9,45.6 5,45.9 5.3,46 L11.7,49.7 C15.2,51.4 17.3,49.4 17.3,47.3 L17.3,20.8 C17.3,20.4 17.6,20.1 18,20.1 L21,20.1 C21.4,20.1 21.7,20.4 21.7,20.8 L21.7,47.4 C21.7,52.1 19.2,54.7 14.8,54.7 C13.4,54.7 12.4,54.7 9.4,53.2 L3.3,49.7 C1.8,48.8 0.8,47.2 0.8,45.4 L0.8,18.4 C0.8,16.7 1.7,15 3.3,14.1 L26.7,0.6 C28.2,-0.2 30.2,-0.2 31.6,0.6 L55,14.1 C56.5,15 57.5,16.6 57.5,18.4 L57.5,45.4 C57.5,47.1 56.6,48.8 55,49.7 L31.5,63.3 C30.7,63.7 29.9,63.9 29,63.9 Z" id="Path"></path>
                <path d="M36.3,45.3 C26.1,45.3 23.9,40.6 23.9,36.7 C23.9,36.3 24.2,36 24.6,36 L27.6,36 C27.9,36 28.2,36.2 28.3,36.6 C28.7,39.7 30.1,41.2 36.3,41.2 C41.2,41.2 43.3,40.1 43.3,37.5 C43.3,36 42.7,34.9 35,34.1 C28.6,33.5 24.6,32.1 24.6,26.9 C24.6,22.2 28.6,19.4 35.3,19.4 C42.8,19.4 46.5,22 47,27.6 C47,27.8 46.9,28 46.8,28.1 C46.7,28.2 46.5,28.3 46.3,28.3 L43.3,28.3 C43,28.3 42.7,28.1 42.6,27.8 C41.9,24.6 40.1,23.5 35.3,23.5 C29.9,23.5 29.3,25.4 29.3,26.8 C29.3,28.5 30,29 37.3,30 C44.5,30.9 47.9,32.3 47.9,37.3 C47.9,42.4 43.7,45.3 36.3,45.3 Z" id="Path"></path>
            </g>
        </g>
    </g>
</svg>