<?xml version="1.0" encoding="UTF-8"?>
<svg width="36px" height="28px" viewBox="0 0 36 28" version="1.1" xmlns="http://www.w3.org/2000/svg" xmlns:xlink="http://www.w3.org/1999/xlink">
    <!-- Generator: Sketch 52.2 (67145) - http://www.bohemiancoding.com/sketch -->
    <title>javascript</title>
    <desc>Created with Sketch.</desc>
    <g id="Symbols" stroke="none" stroke-width="1" fill="none" fill-rule="evenodd">
        <g id="ic_works-/-js" transform="translate(-2.000000, -6.000000)" fill="#89969F" fill-rule="nonzero">
            <g id="javascript">
                <g transform="translate(2.000000, 6.000000)">
                    <g id="Group-5">
                        <path d="M19.6956522,22.137931 C19.6956522,22.8993103 19.0737391,23.5172414 18.3043478,23.5172414 C17.5349565,23.5172414 16.9130435,22.8993103 16.9130435,22.137931 L16.9130435,18 C16.9130435,17.2386207 17.5349565,16.6206897 18.3043478,16.6206897 C19.0737391,16.6206897 19.6956522,17.2386207 19.6956522,18 L19.6956522,22.137931 Z" id="Path"></path>
                        <path d="M28.4347826,9.72413793 L28.4347826,4.20689655 C28.4347826,3.44689655 27.8114783,2.82758621 27.0434783,2.82758621 C26.274087,2.82758621 25.6521739,2.20965517 25.6521739,1.44827586 C25.6521739,0.686896552 26.274087,0.0689655172 27.0434783,0.0689655172 C29.3446957,0.0689655172 31.2173913,1.92551724 31.2173913,4.20689655 L31.2173913,9.72413793 C31.2173913,11.2455172 32.4653913,12.4827586 34,12.4827586 C34.7693913,12.4827586 35.3913043,13.1006897 35.3913043,13.862069 C35.3913043,14.6234483 34.7693913,15.2413793 34,15.2413793 C32.4653913,15.2413793 31.2173913,16.4786207 31.2173913,18 L31.2173913,23.5172414 C31.2173913,25.7986207 29.3446957,27.6551724 27.0434783,27.6551724 C26.274087,27.6551724 25.6521739,27.0372414 25.6521739,26.2758621 C25.6521739,25.5144828 26.274087,24.8965517 27.0434783,24.8965517 C27.8114783,24.8965517 28.4347826,24.2772414 28.4347826,23.5172414 L28.4347826,18 C28.4347826,16.3448276 29.1888696,14.8744828 30.3575652,13.862069 C29.1888696,12.8496552 28.4347826,11.3793103 28.4347826,9.72413793 Z" id="Path"></path>
                        <path d="M18.3043478,6.96551724 C19.4563478,6.96551724 20.3913043,7.89241379 20.3913043,9.03448276 C20.3913043,10.1765517 19.4563478,11.1034483 18.3043478,11.1034483 C17.1523478,11.1034483 16.2173913,10.1765517 16.2173913,9.03448276 C16.2173913,7.89241379 17.1523478,6.96551724 18.3043478,6.96551724 Z" id="Path"></path>
                        <path d="M1.60869565,12.4827586 C3.14330435,12.4827586 4.39130435,11.2455172 4.39130435,9.72413793 L4.39130435,4.20689655 C4.39130435,1.92551724 6.264,0.0689655172 8.56521739,0.0689655172 C9.3346087,0.0689655172 9.95652174,0.686896552 9.95652174,1.44827586 C9.95652174,2.20965517 9.3346087,2.82758621 8.56521739,2.82758621 C7.79721739,2.82758621 7.17391304,3.44689655 7.17391304,4.20689655 L7.17391304,9.72413793 C7.17391304,11.3793103 6.41982609,12.8496552 5.25113043,13.862069 C6.41982609,14.8744828 7.17391304,16.3448276 7.17391304,18 L7.17391304,23.5172414 C7.17391304,24.2772414 7.79721739,24.8965517 8.56521739,24.8965517 C9.3346087,24.8965517 9.95652174,25.5144828 9.95652174,26.2758621 C9.95652174,27.0372414 9.3346087,27.6551724 8.56521739,27.6551724 C6.264,27.6551724 4.39130435,25.7986207 4.39130435,23.5172414 L4.39130435,18 C4.39130435,16.4786207 3.14330435,15.2413793 1.60869565,15.2413793 C0.839304348,15.2413793 0.217391304,14.6234483 0.217391304,13.862069 C0.217391304,13.1006897 0.839304348,12.4827586 1.60869565,12.4827586 Z" id="Path"></path>
                    </g>
                </g>
            </g>
        </g>
    </g>
</svg>