<?xml version="1.0" encoding="UTF-8"?>
<svg width="20px" height="20px" viewBox="0 0 20 20" version="1.1" xmlns="http://www.w3.org/2000/svg" xmlns:xlink="http://www.w3.org/1999/xlink">
    <!-- Generator: Sketch 52.2 (67145) - http://www.bohemiancoding.com/sketch -->
    <title>noun_880089_cc</title>
    <desc>Created with Sketch.</desc>
    <g id="Welcome" stroke="none" stroke-width="1" fill="none" fill-rule="evenodd">
        <g id="DS_web-v" transform="translate(-197.000000, -3918.000000)" fill="#FFFFFF" fill-rule="nonzero">
            <g id="contact_us" transform="translate(0.000000, 3675.000000)">
                <g id="phone" transform="translate(197.000000, 241.000000)">
                    <g id="noun_880089_cc" transform="translate(0.000000, 2.000000)">
                        <path d="M19.9103262,15.9455844 L19.8054294,15.6424746 C19.5720786,14.9386999 18.8071322,14.2115919 18.0939675,14.0140372 L15.4633254,13.2989292 C14.7519386,13.1042634 13.7347511,13.36604 13.2160455,13.89026 L12.2573068,14.8384781 C8.80682534,13.907371 6.09862188,11.1927162 5.16632962,7.74050898 L6.11373413,6.78940201 C6.63132857,6.26807095 6.89201482,5.25274204 6.70311174,4.53674516 L5.98350212,1.9129788 C5.79170994,1.19898191 5.05765479,0.429207489 4.36360265,0.188097428 L4.06313563,0.0927645095 C3.36597214,-0.147012224 2.35545178,0.0956533858 1.84341331,0.617873334 L0.410416765,2.04142269 C0.163953804,2.2945327 0.00127491604,3.01319624 0.00127491604,3.01719622 C-0.0545070525,7.53384322 1.7222931,11.8860465 4.91986666,15.0793659 C8.10788394,18.2671298 12.4397649,20.0391221 16.9367695,19.9993445 C16.965216,19.9993445 17.7066051,19.8360119 17.9655134,19.5846796 L19.3842867,18.1622414 C19.9103262,17.6417992 20.1418991,16.6424702 19.9103262,15.9455844 Z" id="Shape"></path>
                    </g>
                </g>
            </g>
        </g>
    </g>
</svg>