<?xml version="1.0" encoding="UTF-8"?>
<svg width="30px" height="34px" viewBox="0 0 30 34" version="1.1" xmlns="http://www.w3.org/2000/svg" xmlns:xlink="http://www.w3.org/1999/xlink">
    <!-- Generator: Sketch 52.2 (67145) - http://www.bohemiancoding.com/sketch -->
    <title>Unknown</title>
    <desc>Created with Sketch.</desc>
    <g id="Symbols" stroke="none" stroke-width="1" fill="none" fill-rule="evenodd">
        <g id="ic_works-/-resources_disable" transform="translate(-5.000000, -3.000000)" fill="#89969F" fill-rule="nonzero">
            <g id="Unknown">
                <g transform="translate(5.000000, 3.000000)">
                    <path d="M28.9645995,25.8363014 L15.5622739,33.323516 L15.5622739,27.493379 L23.9129199,22.9559361 L28.9645995,25.8363014 Z M29.8826873,25.0164384 L29.8826873,9.3609589 L24.9803618,12.1589041 L24.9803618,22.2228311 L29.8826873,25.0164384 Z M0.982687339,25.8363014 L14.3850129,33.323516 L14.3850129,27.493379 L6.02997416,22.9559361 L0.982687339,25.8363014 Z M0.0645994832,25.0164384 L0.0645994832,9.3609589 L4.96692506,12.1589041 L4.96692506,22.2228311 L0.0645994832,25.0164384 Z M0.64005168,8.34589041 L14.3850129,0.667808219 L14.3850129,6.30273973 L5.57751938,11.0874429 L5.50723514,11.126484 L0.64005168,8.34589041 Z M29.3072351,8.34589041 L15.5622739,0.667808219 L15.5622739,6.30273973 L24.3697674,11.083105 L24.4400517,11.1221461 L29.3072351,8.34589041 Z" id="Shape" opacity="0.497935268"></path>
                    <path d="M14.3850129,26.1659817 L6.14418605,21.6892694 L6.14418605,12.8269406 L14.3850129,17.5248858 L14.3850129,26.1659817 Z M15.5622739,26.1659817 L23.8031008,21.6936073 L23.8031008,12.8269406 L15.5622739,17.5248858 L15.5622739,26.1659817 Z M6.70206718,11.8031963 L14.9736434,7.31347032 L23.2452196,11.8031963 L14.9736434,16.5184932 L6.70206718,11.8031963 Z" id="Shape"></path>
                </g>
            </g>
        </g>
    </g>
</svg>