<?xml version="1.0" encoding="UTF-8"?>
<svg width="80px" height="80px" viewBox="0 0 80 80" version="1.1" xmlns="http://www.w3.org/2000/svg" xmlns:xlink="http://www.w3.org/1999/xlink">
    <!-- Generator: Sketch 52.2 (67145) - http://www.bohemiancoding.com/sketch -->
    <title>ic / result</title>
    <desc>Created with Sketch.</desc>
    <g id="ic-/-result" stroke="none" stroke-width="1" fill="none" fill-rule="evenodd">
        <g fill-rule="nonzero" id="target-2">
            <g transform="translate(1.000000, 1.000000)">
                <polygon id="Shape" fill="#D7E9FF" points="60.6882793 10.8935279 70.0249377 1.5568695 70.0249377 7.7813084 60.6882793 17.1179668"></polygon>
                <polygon id="Shape" fill="#D7E9FF" points="60.6882793 17.1179668 70.0249377 7.7813084 76.2493766 7.7813084 66.9127182 17.1179668"></polygon>
                <path d="M38.9027431,43.5718321 C38.9027431,46.1544576 36.8177993,48.2401613 34.234414,48.2401613 C31.6517884,48.2401613 29.5660848,46.1544576 29.5660848,43.5718321 C29.5660848,41.0036432 31.6517884,38.9035029 34.234414,38.9035029 C35.5261066,38.9035029 36.6931889,39.4323371 37.533549,40.2726972 C38.373909,41.1282535 38.9027431,42.2801394 38.9027431,43.5718321 Z" id="Shape" fill="#94C1FF"></path>
                <path d="M37.533549,40.2726972 C36.6931889,39.4323371 35.5261066,38.9035029 34.234414,38.9035029 C31.6517884,38.9035029 29.5660848,41.0036432 29.5660848,43.5718321 C29.5660848,46.1544576 31.6517884,48.2401613 34.234414,48.2401613 C36.8177993,48.2401613 38.9027431,46.1544576 38.9027431,43.5718321 C38.9027431,42.2801394 38.373909,41.1282535 37.533549,40.2726972 Z M44.1318188,33.6744273 C46.6680954,36.2107037 48.2394015,39.6967542 48.2394015,43.5718321 C48.2394015,51.305272 41.9686137,57.5768196 34.234414,57.5768196 C26.5009742,57.5768196 20.2294264,51.305272 20.2294264,43.5718321 C20.2294264,35.8376326 26.5009742,29.5668446 34.234414,29.5668446 C38.0935357,29.5668446 41.6107388,31.1381507 44.1318188,33.6744273 Z" id="Shape" fill="#D7E9FF"></path>
                <path d="M44.1318188,33.6744273 C41.6107388,31.1381507 38.0935357,29.5668446 34.234414,29.5668446 C26.5009742,29.5668446 20.2294264,35.8376326 20.2294264,43.5718321 C20.2294264,51.305272 26.5009742,57.5768196 34.234414,57.5768196 C41.9686137,57.5768196 48.2394015,51.305272 48.2394015,43.5718321 C48.2394015,39.6967542 46.6680954,36.2107037 44.1318188,33.6744273 Z M50.729329,27.0769171 C54.9622818,31.3091101 57.5760599,37.129325 57.5760599,43.5718321 C57.5760599,56.4712826 47.1194281,66.913478 34.234414,66.913478 C21.3501598,66.913478 10.8927681,56.4712826 10.8927681,43.5718321 C10.8927681,30.6868182 21.3501598,20.2301862 34.234414,20.2301862 C40.676921,20.2301862 46.5275289,22.8439643 50.729329,27.0769171 Z" id="Shape" fill="#94C1FF"></path>
                <path d="M50.729329,27.0769171 C46.5275289,22.8439643 40.676921,20.2301862 34.234414,20.2301862 C21.3501598,20.2301862 10.8927681,30.6868182 10.8927681,43.5718321 C10.8927681,56.4712826 21.3501598,66.913478 34.234414,66.913478 C47.1194281,66.913478 57.5760599,56.4712826 57.5760599,43.5718321 C57.5760599,37.129325 54.9622818,31.3091101 50.729329,27.0769171 Z M57.3427953,20.4634507 C63.2557084,26.3763637 66.9127182,34.5459397 66.9127182,43.5718321 C66.9127182,57.794128 57.8252805,69.9010871 45.127182,74.3976972 C41.719393,75.595932 38.0623832,76.2501363 34.234414,76.2501363 C30.4064447,76.2501363 26.749435,75.595932 23.3416459,74.3976972 C10.6443072,69.9010871 1.55610973,57.794128 1.55610973,43.5718321 C1.55610973,25.5208074 16.1833892,10.8935279 34.234414,10.8935279 C43.2603063,10.8935279 51.4298824,14.5497779 57.3427953,20.4634507 Z" id="Shape" fill="#D7E9FF"></path>
                <g id="Group" fill="#0074E4">
                    <path d="M34.234414,77.8062461 C15.3574657,77.8062461 0,62.4487803 0,43.5718321 C0,24.6941241 15.3574657,9.33741812 34.234414,9.33741812 C53.112122,9.33741812 68.4688279,24.6941241 68.4688279,43.5718321 C68.4688279,62.4487803 53.112122,77.8062461 34.234414,77.8062461 Z M34.234414,12.4496376 C17.0738973,12.4496376 3.11221945,26.4105557 3.11221945,43.5718321 C3.11221945,60.7323487 17.0738973,74.6940266 34.234414,74.6940266 C51.3956904,74.6940266 65.3566085,60.7323487 65.3566085,43.5718321 C65.3566085,26.4105557 51.3956904,12.4496376 34.234414,12.4496376 Z" id="Shape"></path>
                    <path d="M34.234414,68.4695877 C20.5067604,68.4695877 9.33665835,57.2994857 9.33665835,43.5718321 C9.33665835,29.8434187 20.5067604,18.6740765 34.234414,18.6740765 C47.9628273,18.6740765 59.1321696,29.8434187 59.1321696,43.5718321 C59.1321696,57.2994857 47.9628273,68.4695877 34.234414,68.4695877 Z M34.234414,21.7862959 C22.2216725,21.7862959 12.4488778,31.5583308 12.4488778,43.5718321 C12.4488778,55.5845738 22.2216725,65.3573682 34.234414,65.3573682 C46.2479154,65.3573682 56.0199501,55.5845738 56.0199501,43.5718321 C56.0199501,31.5583308 46.2479154,21.7862959 34.234414,21.7862959 Z" id="Shape"></path>
                    <path d="M34.234414,59.1329293 C25.6545355,59.1329293 18.6733167,52.1517105 18.6733167,43.5718321 C18.6733167,34.9911939 25.6545355,28.0107348 34.234414,28.0107348 C42.8150522,28.0107348 49.7955112,34.9911939 49.7955112,43.5718321 C49.7955112,52.1517105 42.8150522,59.1329293 34.234414,59.1329293 Z M34.234414,31.1229543 C27.3709672,31.1229543 21.7855362,36.7076255 21.7855362,43.5718321 C21.7855362,50.4352789 27.3709672,56.0207099 34.234414,56.0207099 C41.0986205,56.0207099 46.6832918,50.4352789 46.6832918,43.5718321 C46.6832918,36.7076255 41.0986205,31.1229543 34.234414,31.1229543 Z" id="Shape"></path>
                    <path d="M34.234414,49.796271 C30.8015507,49.796271 28.0099751,47.0039356 28.0099751,43.5718321 C28.0099751,40.138969 30.8015507,37.3473932 34.234414,37.3473932 C37.6672772,37.3473932 40.4588529,40.138969 40.4588529,43.5718321 C40.4588529,47.0039356 37.6672772,49.796271 34.234414,49.796271 Z M34.234414,40.4596126 C32.5179823,40.4596126 31.1221945,41.8554007 31.1221945,43.5718321 C31.1221945,45.2875039 32.5179823,46.6840515 34.234414,46.6840515 C35.9508456,46.6840515 37.3466334,45.2875039 37.3466334,43.5718321 C37.3466334,41.8554007 35.9508456,40.4596126 34.234414,40.4596126 Z" id="Shape"></path>
                    <path d="M34.234414,45.1279418 C33.8362687,45.1279418 33.4381234,44.9752182 33.1341958,44.6712905 C32.5263404,44.0634352 32.5263404,43.0794692 33.1341958,42.4716139 L72.0399782,3.56887074 C72.6485933,2.96025561 73.6325592,2.96025561 74.2404146,3.56887074 C74.8490297,4.1767261 74.8490297,5.16069202 74.2404146,5.76854738 L35.3346322,44.6712905 C35.0314643,44.9752182 34.633319,45.1279418 34.234414,45.1279418 Z" id="Shape"></path>
                    <path d="M66.9127182,18.6740765 C66.5145729,18.6740765 66.1164277,18.5213529 65.8125,18.2174252 C65.2046446,17.6095698 65.2046446,16.6256039 65.8125,16.0177485 L75.1491584,6.68109019 C75.7577735,6.07247506 76.7409796,6.07247506 77.3495948,6.68109019 C77.9582099,7.28894556 77.9582099,8.27291147 77.3495948,8.88076683 L68.0129364,18.2174252 C67.7097685,18.5213529 67.3116232,18.6740765 66.9127182,18.6740765 Z" id="Shape"></path>
                    <path d="M60.6882793,18.6755962 C59.8296837,18.6755962 59.1321696,17.9796018 59.1321696,17.1194865 C59.1321696,16.2601309 59.828164,15.5633768 60.6882793,15.5633768 L66.9127182,15.561857 C67.7720738,15.561857 68.4688279,16.2570916 68.4688279,17.1179668 C68.4688279,17.9765625 67.7735933,18.6740765 66.9127182,18.6740765 L60.6882793,18.6755962 Z" id="Shape"></path>
                    <path d="M76.2493766,9.33741812 L70.0249377,9.33741812 C69.1648223,9.33741812 68.4688279,8.64142374 68.4688279,7.7813084 C68.4688279,6.92043329 69.1648223,6.22519867 70.0249377,6.22519867 L76.2493766,6.22519867 C77.1102517,6.22519867 77.8054863,6.92043329 77.8054863,7.7813084 C77.8054863,8.64142374 77.1102517,9.33741812 76.2493766,9.33741812 Z" id="Shape"></path>
                    <path d="M60.6897988,12.4473583 C60.2916538,12.4473583 59.8935083,12.2953944 59.5895806,11.9914667 C58.9817253,11.3836114 58.9817253,10.3996455 59.5895806,9.7917901 L68.9247195,0.456651292 C69.5333346,-0.15196384 70.5165407,-0.15196384 71.1251559,0.456651292 C71.733771,1.06450665 71.733771,2.04847257 71.1251559,2.65632793 L61.790017,11.9914667 C61.4868493,12.2953944 61.0887041,12.4473583 60.6897988,12.4473583 Z" id="Shape"></path>
                    <path d="M60.6867598,18.6740765 C59.8266442,18.6740765 59.13065,17.9765625 59.13065,17.1156874 L59.1336891,10.8912485 C59.1336891,10.031133 59.8312032,9.33513881 60.6897988,9.33513881 C61.5506741,9.33513881 62.2459086,10.0326527 62.2459086,10.8912485 L62.2428695,17.1194865 C62.2428695,17.9780821 61.5461151,18.6740765 60.6867598,18.6740765 Z" id="Shape"></path>
                    <path d="M70.0264572,9.33741812 C69.1678616,9.33741812 68.4703475,8.64142374 68.4703475,7.7813084 L68.4688279,1.5568695 C68.4688279,0.697514125 69.1648223,0.000759819202 70.0249377,0.000759819202 C70.8842932,0.000759819202 71.5810474,0.695994389 71.5810474,1.5568695 L71.5825669,7.7813084 C71.5825669,8.63990419 70.8873325,9.33741812 70.0264572,9.33741812 Z" id="Shape"></path>
                </g>
            </g>
        </g>
    </g>
</svg>