<?xml version="1.0" encoding="UTF-8"?>
<svg width="26px" height="22px" viewBox="0 0 26 22" version="1.1" xmlns="http://www.w3.org/2000/svg" xmlns:xlink="http://www.w3.org/1999/xlink">
    <!-- Generator: Sketch 52.2 (67145) - http://www.bohemiancoding.com/sketch -->
    <title>telegram</title>
    <desc>Created with Sketch.</desc>
    <g id="Welcome" stroke="none" stroke-width="1" fill="none" fill-rule="evenodd">
        <g id="DS_web-v" transform="translate(-197.000000, -4043.000000)" fill="#FFFFFF" fill-rule="nonzero">
            <g id="contact_us" transform="translate(0.000000, 3675.000000)">
                <g id="telegram" transform="translate(197.000000, 367.000000)">
                    <g transform="translate(0.000000, 1.000000)" id="XMLID_497_">
                        <path d="M0.459237285,10.5489201 L6.45016513,12.7219673 L8.7690215,19.9694169 C8.91739503,20.4335899 9.50144246,20.6051595 9.88910297,20.2971427 L13.2285473,17.6514156 C13.5785945,17.3742257 14.0771884,17.3604125 14.4430089,17.6184829 L20.4661768,21.8683064 C20.8808774,22.1612467 21.4683915,21.9404044 21.5723916,21.453406 L25.984684,0.827060382 C26.0982175,0.295084936 25.5603635,-0.14870522 25.0391495,0.0472059402 L0.452217276,9.26505343 C-0.154536852,9.49246536 -0.149250178,10.3273198 0.459237285,10.5489201 Z M8.39531434,11.5651987 L20.103823,4.55695282 C20.3142499,4.4313709 20.5307436,4.70788696 20.3500433,4.87078127 L10.6871307,13.60003 C10.3474836,13.9072888 10.1283899,14.3184833 10.0663365,14.7648002 L9.7371761,17.1354432 C9.69358271,17.4519669 9.23606878,17.4833834 9.14619533,17.1770511 L7.88025367,12.8541189 C7.73526015,12.3610562 7.94655376,11.834387 8.39531434,11.5651987 Z"></path>
                    </g>
                </g>
            </g>
        </g>
    </g>
</svg>