<?xml version="1.0" encoding="UTF-8"?>
<svg width="80px" height="68px" viewBox="0 0 80 68" version="1.1" xmlns="http://www.w3.org/2000/svg" xmlns:xlink="http://www.w3.org/1999/xlink">
    <!-- Generator: Sketch 52.2 (67145) - http://www.bohemiancoding.com/sketch -->
    <title>multitask</title>
    <desc>Created with Sketch.</desc>
    <g id="Symbols" stroke="none" stroke-width="1" fill="none" fill-rule="evenodd">
        <g id="ic-/-experience" transform="translate(0.000000, -6.000000)" fill-rule="nonzero">
            <g id="multitask">
                <g transform="translate(0.000000, 6.000000)">
                    <polygon id="Shape" fill="#94C1FF" points="12.4756335 52.7673571 12.4756335 55.2800591 4.99025341 55.2800591 4.99025341 45.2292508 12.4756335 45.2292508"></polygon>
                    <path d="M32.4366472,13.7830543 L28.6939571,16.3331769 L28.6939571,12.5641238 C28.6939571,7.01115036 33.1603314,2.51331549 38.6744639,2.51331549 L46.1598441,2.51331549 L46.1598441,7.53871965 C48.9169104,7.53871965 51.1500975,9.78763716 51.1500975,12.5641238 L51.1500975,16.3331769 L47.4074074,13.7830543 C47.4074074,13.7830543 44.9000975,15.0394053 40.545809,15.0394053 C36.1915205,15.0394053 32.4366472,13.7830543 32.4366472,13.7830543 Z" id="Shape" fill="#94C1FF"></path>
                    <path d="M46.1598441,7.53871965 L46.1598441,2.51331549 L41.1695906,2.51331549 L41.1695906,10.0514217 C43.926657,10.0514217 46.1598441,11.0439882 46.1598441,13.8204748 L46.1598441,14.2480513 C46.9621101,13.9977626 47.4074074,13.7830543 47.4074074,13.7830543 L51.1500975,16.3331769 L51.1500975,12.5641238 C51.1500975,9.78763716 48.9169104,7.53871965 46.1598441,7.53871965 Z" id="Shape" fill="#5C9EFF"></path>
                    <path d="M51.1500975,16.3712111 L51.1500975,21.3585811 C51.1500975,25.7938439 48.6050196,29.6383515 44.9122807,31.4848441 C43.4149611,32.2387774 41.7062621,32.6657404 39.9220273,32.6657404 C38.1377924,32.6657404 36.4290935,32.2387774 34.9317739,31.4848441 C31.239035,29.6383515 28.6939571,25.7950707 28.6939571,21.3585811 L28.6939571,16.3712111 L32.4366472,13.8204748 C32.4366472,13.8204748 36.1915205,15.0768259 40.545809,15.0768259 C44.9000975,15.0768259 47.4074074,13.8204748 47.4074074,13.8204748 L51.1500975,16.3712111 Z" id="Shape" fill="#D7E9FF"></path>
                    <path d="M47.4074074,13.8204748 C47.4074074,13.8204748 46.9621101,14.0357968 46.1598441,14.2842451 L46.1598441,21.3585811 C46.1598441,25.7938439 43.6147662,29.6383515 39.9220273,31.4848441 C39.1423002,31.8780672 38.3028753,32.1774321 37.4269006,32.3780312 C38.2328217,32.5632938 39.0673733,32.6657404 39.9220273,32.6657404 C41.7062621,32.6657404 43.4149611,32.2387774 44.9122807,31.4848441 C48.6050196,29.6383515 51.1500975,25.7950707 51.1500975,21.3585811 L51.1500975,16.3712111 L47.4074074,13.8204748 Z" id="Shape" fill="#94C1FF"></path>
                    <path d="M12.4756335,25.7558097 L12.4756335,26.3839852 C12.4756335,31.2462111 16.3803605,35.1784425 21.208577,35.1784425 L33.6842105,35.1784425 C29.28058,35.1784425 25.462963,37.7414478 23.6287768,41.4601977 L21.208577,41.4601977 C12.9373782,41.4601977 6.23781676,34.7140589 6.23781676,26.3839852 L6.23781676,25.7558097 C6.23781676,24.0221926 7.635234,22.6149321 9.35672515,22.6149321 C11.0782163,22.6149321 12.4756335,24.0221926 12.4756335,25.7558097 Z" id="Shape" fill="#94C1FF"></path>
                    <polygon id="Shape" fill="#D7E9FF" points="6.23781676 5.02601757 3.74269006 1.25696445 13.7231969 1.25696445 11.2280702 5.02601757"></polygon>
                    <polygon id="Shape" fill="#94C1FF" points="16.2183236 1.25696445 16.2183236 18.845879 1.24756335 18.845879 1.24756335 1.25696445 3.74269006 1.25696445 6.23781676 5.02601757 11.2280702 5.02601757 13.7231969 1.25696445"></polygon>
                    <polygon id="Shape" fill="#D7E9FF" points="78.5964912 5.02601757 78.5964912 16.3331769 72.0467836 10.6795972"></polygon>
                    <polygon id="Shape" fill="#D7E9FF" points="67.6803119 10.6795972 61.1306043 16.3331769 61.1306043 5.02601757"></polygon>
                    <polygon id="Shape" fill="#D7E9FF" points="78.5964912 5.02601757 69.8635478 12.5641238 61.1306043 5.02601757"></polygon>
                    <polygon id="Shape" fill="#D7E9FF" points="69.8635478 12.5641238 72.0467836 10.6795972 78.5964912 16.3331769 61.1306043 16.3331769 67.6803119 10.6795972"></polygon>
                    <polygon id="Shape" fill="#94C1FF" points="66.1208577 43.9728998 73.6062378 43.9728998 73.6062378 55.2800591 66.1208577 55.2800591"></polygon>
                    <path d="M73.6062378,25.7558097 L73.6062378,26.3839852 C73.6062378,34.7140589 66.9066763,41.4601977 58.6354776,41.4601977 L56.2152778,41.4601977 C54.3810916,37.7414478 50.564693,35.1784425 46.1598441,35.1784425 L58.6354776,35.1784425 C63.463694,35.1784425 67.3684211,31.2462111 67.3684211,26.3839852 L67.3684211,25.7558097 C67.3684211,24.0221926 68.7658383,22.6149321 70.4873294,22.6149321 C72.2088206,22.6149321 73.6062378,24.0221926 73.6062378,25.7558097 Z" id="Shape" fill="#94C1FF"></path>
                    <path d="M39.9220273,32.6657404 C41.7062621,32.6657404 43.4149611,32.2387774 44.9122807,31.4848441 L44.9122807,35.1784425 L42.417154,37.6911446 L39.9220273,36.4347936 L37.4269006,37.6911446 L34.9317739,35.1784425 L34.9317739,31.4848441 C36.4290935,32.2387774 38.1377924,32.6657404 39.9220273,32.6657404 Z" id="Shape" fill="#FFFFFF"></path>
                    <path d="M34.9317739,35.1784425 L37.4269006,37.6911446 L39.9220273,36.4347936 L42.417154,37.6911446 L44.9122807,35.1784425 L46.1598441,35.1784425 C50.5634746,35.1784425 54.3810916,37.7414478 56.2152778,41.4601977 C56.9639376,42.9680644 57.3879142,44.67653 57.3879142,46.4856019 L57.3879142,48.9983039 C57.3879142,54.551891 61.8542885,59.0491123 67.3684211,59.0491123 L67.9922027,59.0491123 C69.7136939,59.0491123 71.1111111,60.4563727 71.1111111,62.1899899 C71.1111111,63.9242206 69.7136939,65.3308675 67.9922027,65.3308675 L67.3684211,65.3308675 C58.3985137,65.3308675 51.1500975,58.0320078 51.1500975,48.9983039 L51.1500975,66.5872185 L28.6939571,66.5872185 L28.6939571,48.9983039 C28.6939571,58.0320078 21.4455409,65.3308675 12.4756335,65.3308675 L11.8518519,65.3308675 C10.1303607,65.3308675 8.73294347,63.9242206 8.73294347,62.1899899 C8.73294347,60.4563727 10.1303607,59.0491123 11.8518519,59.0491123 L12.4756335,59.0491123 C17.9897661,59.0491123 22.4561404,54.551891 22.4561404,48.9983039 L22.4561404,46.4856019 C22.4561404,44.67653 22.880117,42.9680644 23.6287768,41.4601977 C25.462963,37.7414478 29.2793616,35.1784425 33.6842105,35.1784425 L34.9317739,35.1784425 Z" id="Shape" fill="#D7E9FF"></path>
                    <g id="Group">
                        <path d="M39.9591861,45.2292508 C39.269615,45.2292508 38.7055312,44.6679418 38.7055312,43.9728998 C38.7055312,43.2784714 39.2568226,42.7165487 39.9457846,42.7165487 L39.9591861,42.7165487 C40.6481481,42.7165487 41.2067495,43.2784714 41.2067495,43.9728998 C41.2067495,44.6679418 40.6481481,45.2292508 39.9591861,45.2292508 Z" id="Shape" fill="#0074E4"></path>
                        <path d="M39.9591861,51.511006 C39.269615,51.511006 38.7055312,50.949697 38.7055312,50.254655 C38.7055312,49.5602266 39.2568226,48.9983039 39.9457846,48.9983039 L39.9591861,48.9983039 C40.6481481,48.9983039 41.2067495,49.5602266 41.2067495,50.254655 C41.2067495,50.949697 40.6481481,51.511006 39.9591861,51.511006 Z" id="Shape" fill="#0074E4"></path>
                        <path d="M39.9591861,57.7927612 C39.269615,57.7927612 38.7055312,57.2314522 38.7055312,56.5364102 C38.7055312,55.8419818 39.2568226,55.2800591 39.9457846,55.2800591 L39.9591861,55.2800591 C40.6481481,55.2800591 41.2067495,55.8419818 41.2067495,56.5364102 C41.2067495,57.2314522 40.6481481,57.7927612 39.9591861,57.7927612 Z" id="Shape" fill="#0074E4"></path>
                        <path d="M39.9591861,64.0745164 C39.269615,64.0745164 38.7055312,63.5132074 38.7055312,62.8181654 C38.7055312,62.123737 39.2568226,61.5618143 39.9457846,61.5618143 L39.9591861,61.5618143 C40.6481481,61.5618143 41.2067495,62.123737 41.2067495,62.8181654 C41.2067495,63.5132074 40.6481481,64.0745164 39.9591861,64.0745164 Z" id="Shape" fill="#0074E4"></path>
                        <path d="M69.9007066,54.0237081 C69.2111354,54.0237081 68.6470517,53.462399 68.6470517,52.7673571 C68.6470517,52.0729287 69.1983431,51.511006 69.8873051,51.511006 L69.9007066,51.511006 C70.5896686,51.511006 71.1482699,52.0729287 71.1482699,52.7673571 C71.1482699,53.462399 70.5896686,54.0237081 69.9007066,54.0237081 Z" id="Shape" fill="#0074E4"></path>
                        <path d="M46.1598441,1.25696445 C46.8500243,1.25696445 47.4074074,1.81888709 47.4074074,2.51331549 L47.4074074,6.40854255 C50.2510772,6.99199553 52.3976608,9.52946669 52.3976608,12.562897 L52.3976608,21.3585811 C52.3976608,28.286302 46.8012914,33.9220915 39.9220273,33.9220915 C33.0427632,33.9220915 27.4463938,28.286302 27.4463938,21.3585811 L27.4463938,12.5641238 C27.4463938,6.32899101 32.4829435,1.25696445 38.6744639,1.25696445 C37.9842837,1.25696445 37.4269006,1.81888709 37.4269006,2.51331549 C37.4269006,3.20835747 37.9842837,3.76966653 38.6744639,3.76966653 C33.8602582,3.76966653 29.9415205,7.71600743 29.9415205,12.5641238 L29.9415205,21.3585811 C29.9415205,26.9005125 34.4188597,31.4093894 39.9220273,31.4093894 C45.4251949,31.4093894 49.9025341,26.9005125 49.9025341,21.3585811 L49.9025341,12.562897 C49.9025341,10.4863598 48.2230751,8.79507069 46.1598441,8.79507069 C45.4696638,8.79507069 44.9122807,8.23376163 44.9122807,7.53871965 L44.9122807,3.76966653 L38.6744639,3.76966653 Z" id="Combined-Shape" fill="#0074E4"></path>
                        <path d="M21.208577,48.9983039 L21.208577,46.4856019 C21.208577,39.5584945 26.8049464,33.9239319 33.6842105,33.9239319 C34.3743908,33.9239319 34.9317739,34.4852411 34.9317739,35.1802829 C34.9317739,35.8747113 34.3743908,36.4366339 33.6842105,36.4366339 C28.181043,36.4366339 23.7037037,40.9442841 23.7037037,46.4856019 L23.7037037,48.9983039 C23.7037037,55.2340503 18.667154,60.3054633 12.4756335,60.3054633 C11.7854533,60.3054633 11.2280702,59.7441542 11.2280702,59.0491123 C11.2280702,58.3546839 11.7854533,57.7927612 12.4756335,57.7927612 C17.2898392,57.7927612 21.208577,53.8470337 21.208577,48.9983039 Z" id="Combined-Shape" fill="#0074E4"></path>
                        <path d="M12.4756335,66.5872185 L11.8518519,66.5872185 C9.44383532,66.5872185 7.48538012,64.6149682 7.48538012,62.1899899 C7.48538012,59.765625 9.44383532,57.7927612 11.8518519,57.7927612 C12.5420321,57.7927612 13.0994152,58.3546839 13.0994152,59.0491123 C13.0994152,59.7441542 12.5420321,60.3054633 11.8518519,60.3054633 C10.8199317,60.3054633 9.98050682,61.1514145 9.98050682,62.1899899 C9.98050682,63.2291787 10.8199317,64.0745164 11.8518519,64.0745164 L12.4756335,64.0745164 C20.7309942,64.0745164 27.4463938,57.3118143 27.4463938,48.9983039 C27.4463938,48.3038755 28.0037768,47.7419529 28.6939571,47.7419529 C29.3841374,47.7419529 29.9415205,48.3038755 29.9415205,48.9983039 L29.9415205,66.5872185 C29.9415205,67.2822605 29.3841374,67.8435695 28.6939571,67.8435695 C28.0037768,67.8435695 27.4463938,67.2822605 27.4463938,66.5872185 L27.4463938,58.0508765 C24.3876172,63.1620547 18.8217023,66.5872185 12.4756335,66.5872185 Z" id="Combined-Shape" fill="#0074E4"></path>
                        <path d="M12.4756335,60.3054633 L11.8518519,60.3054633 C11.1616716,60.3054633 10.6042885,59.7441542 10.6042885,59.0491123 C10.6042885,58.3546839 11.1616716,57.7927612 11.8518519,57.7927612 L12.4756335,57.7927612 C13.1658138,57.7927612 13.7231969,58.3546839 13.7231969,59.0491123 C13.7231969,59.7441542 13.1658138,60.3054633 12.4756335,60.3054633 Z" id="Shape" fill="#0074E4"></path>
                        <path d="M67.9922027,60.3054633 L67.3684211,60.3054633 C61.1769006,60.3054633 56.1403509,55.2340503 56.1403509,48.9983039 C56.1403509,48.3038755 56.697734,47.7419529 57.3879142,47.7419529 C58.0780945,47.7419529 58.6354776,48.3038755 58.6354776,48.9983039 C58.6354776,53.8470337 62.5542154,57.7927612 67.3684211,57.7927612 L67.9922027,57.7927612 C70.4002193,57.7927612 72.3586745,59.765625 72.3586745,62.1899899 C72.3586745,64.6149682 70.4002193,66.5872185 67.9922027,66.5872185 C67.8844648,66.5872185 67.7799629,66.5735408 67.6803119,66.5478117 C67.5806609,66.5735408 67.476159,66.5872185 67.3684211,66.5872185 C61.0223523,66.5872185 55.4564374,63.1620547 52.3976608,58.0508765 L52.3976608,66.5872185 C52.3976608,67.2822605 51.8402777,67.8435695 51.1500975,67.8435695 C50.4599172,67.8435695 49.9025341,67.2822605 49.9025341,66.5872185 L49.9025341,48.9983039 C49.9025341,48.3038755 50.4599172,47.7419529 51.1500975,47.7419529 C51.8402777,47.7419529 52.3976608,48.3038755 52.3976608,48.9983039 C52.3976608,57.3118143 59.1130604,64.0745164 67.3684211,64.0745164 C67.476159,64.0745164 67.5806609,64.0882091 67.6803119,64.113961 C67.7799629,64.0882091 67.8844648,64.0745164 67.9922027,64.0745164 C69.0241229,64.0745164 69.8635478,63.2291787 69.8635478,62.1899899 C69.8635478,61.1514145 69.0241229,60.3054633 67.9922027,60.3054633 Z" id="Combined-Shape" fill="#0074E4"></path>
                        <path d="M56.1403509,46.4856019 C56.1403509,40.9442841 51.6630116,36.4366339 46.1598441,36.4366339 C45.4696638,36.4366339 44.9122807,35.8747113 44.9122807,35.1802829 C44.9122807,34.4852411 45.4696638,33.9239319 46.1598441,33.9239319 C53.0391081,33.9239319 58.6354776,39.5584945 58.6354776,46.4856019 L58.6354776,48.9983039 C58.6354776,49.6933459 58.0780945,50.254655 57.3879142,50.254655 C56.697734,50.254655 56.1403509,49.6933459 56.1403509,48.9983039 L56.1403509,46.4856019 Z" id="Combined-Shape" fill="#0074E4"></path>
                        <path d="M51.1500975,67.8435695 C50.4599172,67.8435695 49.9025341,67.2822605 49.9025341,66.5872185 L49.9025341,48.9983039 C49.9025341,48.3038755 50.4599172,47.7419529 51.1500975,47.7419529 C51.8402777,47.7419529 52.3976608,48.3038755 52.3976608,48.9983039 L52.3976608,66.5872185 C52.3976608,67.2822605 51.8402777,67.8435695 51.1500975,67.8435695 Z" id="Shape" fill="#116FFF"></path>
                        <path d="M67.9922027,66.5872185 L67.3684211,66.5872185 C66.6782408,66.5872185 66.1208577,66.0259094 66.1208577,65.3308675 C66.1208577,64.636439 66.6782408,64.0745164 67.3684211,64.0745164 L67.9922027,64.0745164 C68.682383,64.0745164 69.2397661,64.636439 69.2397661,65.3308675 C69.2397661,66.0259094 68.682383,66.5872185 67.9922027,66.5872185 Z" id="Shape" fill="#116FFF"></path>
                        <path d="M42.417154,38.9474956 C42.0979532,38.9474956 41.7781433,38.8248051 41.5350877,38.579424 C41.0471492,38.0886619 41.0471492,37.2942407 41.5350877,36.8034786 L44.0302144,34.2907765 C44.518153,33.7994009 45.3064084,33.7994009 45.794347,34.2907765 C46.2822855,34.7815386 46.2822855,35.5759598 45.794347,36.066722 L43.2992203,38.579424 C43.0561647,38.8248051 42.7363548,38.9474956 42.417154,38.9474956 Z" id="Shape" fill="#0074E4"></path>
                        <path d="M42.4159358,38.9474956 C42.228923,38.9474956 42.0376462,38.9051674 41.8597709,38.8156033 L39.3646442,37.5592522 C38.7481725,37.2494587 38.4984162,36.4942984 38.806652,35.8734845 C39.1161062,35.2526702 39.8659844,35.004222 40.4812379,35.3121753 L42.9763646,36.5685263 C43.5922271,36.8783199 43.8419835,37.6334801 43.5337475,38.2542942 C43.3144493,38.6941397 42.8740254,38.9474956 42.4159358,38.9474956 Z" id="Shape" fill="#0074E4"></path>
                        <path d="M37.4281188,38.9474956 C36.9700292,38.9474956 36.5296053,38.6941397 36.3103071,38.2530672 C36.0020711,37.6322531 36.2518275,36.8770929 36.86769,36.5672993 L39.3628167,35.3109483 C39.9780702,35.0029951 40.7279484,35.2514434 41.0374026,35.8722575 C41.3456384,36.4930716 41.0958821,37.2482319 40.4794104,37.5580254 L37.9842837,38.8143764 C37.8064084,38.9051674 37.6151315,38.9474956 37.4281188,38.9474956 Z" id="Shape" fill="#0074E4"></path>
                        <path d="M37.4269006,38.9474956 C37.1076998,38.9474956 36.7878899,38.8248051 36.5448343,38.579424 L34.0497076,36.066722 C33.561769,35.5759598 33.561769,34.7815386 34.0497076,34.2907765 C34.5376462,33.7994009 35.3259016,33.7994009 35.8138402,34.2907765 L38.3089669,36.8034786 C38.7969054,37.2942407 38.7969054,38.0886619 38.3089669,38.579424 C38.0659113,38.8248051 37.7461014,38.9474956 37.4269006,38.9474956 Z" id="Shape" fill="#0074E4"></path>
                        <path d="M34.9317739,36.4347936 C34.2415936,36.4347936 33.6842105,35.8734845 33.6842105,35.1784425 L33.6842105,31.4891383 C33.6842105,30.7940965 34.2415936,30.2327873 34.9317739,30.2327873 C35.6219542,30.2327873 36.1793372,30.7940965 36.1793372,31.4891383 L36.1793372,35.1784425 C36.1793372,35.8734845 35.6219542,36.4347936 34.9317739,36.4347936 Z" id="Shape" fill="#0074E4"></path>
                        <path d="M44.9122807,36.4347936 C44.2221004,36.4347936 43.6647173,35.8734845 43.6647173,35.1784425 L43.6647173,31.4891383 C43.6647173,30.7940965 44.2221004,30.2327873 44.9122807,30.2327873 C45.602461,30.2327873 46.1598441,30.7940965 46.1598441,31.4891383 L46.1598441,35.1784425 C46.1598441,35.8734845 45.602461,36.4347936 44.9122807,36.4347936 Z" id="Shape" fill="#0074E4"></path>
                        <path d="M58.5672274,33.9239319 C58.5898209,33.9227102 58.6125761,33.9220915 58.6354776,33.9220915 C62.763767,33.9220915 66.1208577,30.5413538 66.1208577,26.3839852 C66.1208577,26.2755474 66.134449,26.1703405 66.1600149,26.0699998 C66.134449,25.9696161 66.1208577,25.8643434 66.1208577,25.7558097 C66.1208577,23.3314448 68.0793129,21.3585811 70.4873294,21.3585811 C72.895346,21.3585811 74.8538012,23.3314448 74.8538012,25.7558097 C74.8538012,25.8643434 74.8402099,25.9696161 74.814644,26.0699998 C74.8402099,26.1703405 74.8538012,26.2755474 74.8538012,26.3839852 C74.8538012,35.3900836 67.5779727,42.7165487 58.6354776,42.7165487 C57.9452973,42.7165487 57.3879142,42.1552397 57.3879142,41.4601977 C57.3879142,40.7657693 57.9452973,40.2038467 58.6354776,40.2038467 C66.2018762,40.2038467 72.3586745,34.0042942 72.3586745,26.3839852 C72.3586745,26.2755474 72.3722658,26.1703405 72.3978317,26.0699998 C72.3722658,25.9696161 72.3586745,25.8643434 72.3586745,25.7558097 C72.3586745,24.7172344 71.5192496,23.8712832 70.4873294,23.8712832 C69.4554093,23.8712832 68.6159844,24.7172344 68.6159844,25.7558097 C68.6159844,25.8643434 68.6023931,25.9696161 68.5768272,26.0699998 C68.6023931,26.1703405 68.6159844,26.2755474 68.6159844,26.3839852 C68.6159844,31.9013999 64.1781718,36.39488 58.7084528,36.4345291 C58.6843077,36.4359259 58.6599763,36.4366339 58.6354776,36.4366339 L44.9122807,36.4366339 C44.2221004,36.4366339 43.6647173,35.8747113 43.6647173,35.1802829 C43.6647173,34.4852411 44.2221004,33.9239319 44.9122807,33.9239319 L58.5672274,33.9239319 Z" id="Combined-Shape" fill="#0074E4"></path>
                        <path d="M73.6062378,27.6403363 C72.9160575,27.6403363 72.3586745,27.0790272 72.3586745,26.3839852 L72.3586745,25.7558097 C72.3586745,25.0613813 72.9160575,24.4994587 73.6062378,24.4994587 C74.2964181,24.4994587 74.8538012,25.0613813 74.8538012,25.7558097 L74.8538012,26.3839852 C74.8538012,27.0790272 74.2964181,27.6403363 73.6062378,27.6403363 Z" id="Shape" fill="#116FFF"></path>
                        <path d="M67.3684211,27.6403363 C66.6782408,27.6403363 66.1208577,27.0790272 66.1208577,26.3839852 L66.1208577,25.7558097 C66.1208577,25.0613813 66.6782408,24.4994587 67.3684211,24.4994587 C68.0586013,24.4994587 68.6159844,25.0613813 68.6159844,25.7558097 L68.6159844,26.3839852 C68.6159844,27.0790272 68.0586013,27.6403363 67.3684211,27.6403363 Z" id="Shape" fill="#116FFF"></path>
                        <path d="M58.6354776,42.7165487 L56.2213694,42.7165487 C55.5317982,42.7165487 54.973806,42.1552397 54.973806,41.4601977 C54.973806,40.7657693 55.5317982,40.2038467 56.2213694,40.2038467 L58.6354776,40.2038467 C59.3256579,40.2038467 59.8830409,40.7657693 59.8830409,41.4601977 C59.8830409,42.1552397 59.3256579,42.7165487 58.6354776,42.7165487 Z" id="Shape" fill="#116FFF"></path>
                        <path d="M21.1356018,36.4345291 C15.6658828,36.39488 11.2280702,31.9013999 11.2280702,26.3839852 C11.2280702,26.2755474 11.2416615,26.1703405 11.2672274,26.0699998 C11.2416615,25.9696161 11.2280702,25.8643434 11.2280702,25.7558097 C11.2280702,24.7172344 10.3886453,23.8712832 9.35672515,23.8712832 C8.32480499,23.8712832 7.48538012,24.7172344 7.48538012,25.7558097 C7.48538012,25.8643434 7.47178882,25.9696161 7.44622292,26.0699998 C7.47178882,26.1703405 7.48538012,26.2755474 7.48538012,26.3839852 C7.48538012,34.0042942 13.6421784,40.2038467 21.208577,40.2038467 C21.8987573,40.2038467 22.4561404,40.7657693 22.4561404,41.4601977 C22.4561404,42.1552397 21.8987573,42.7165487 21.208577,42.7165487 C12.2660819,42.7165487 4.99025341,35.3900836 4.99025341,26.3839852 C4.99025341,26.2755474 5.0038447,26.1703405 5.0294106,26.0699998 C5.0038447,25.9696161 4.99025341,25.8643434 4.99025341,25.7558097 C4.99025341,23.3314448 6.94870862,21.3585811 9.35672515,21.3585811 C11.7647417,21.3585811 13.7231969,23.3314448 13.7231969,25.7558097 C13.7231969,25.8643434 13.7096056,25.9696161 13.6840397,26.0699998 C13.7096056,26.1703405 13.7231969,26.2755474 13.7231969,26.3839852 C13.7231969,30.5413538 17.0802876,33.9220915 21.208577,33.9220915 C21.2314784,33.9220915 21.2542337,33.9227102 21.2768271,33.9239319 L34.9317739,33.9239319 C35.6219542,33.9239319 36.1793372,34.4852411 36.1793372,35.1802829 C36.1793372,35.8747113 35.6219542,36.4366339 34.9317739,36.4366339 L21.208577,36.4366339 C21.1840783,36.4366339 21.1597469,36.4359259 21.1356018,36.4345291 Z" id="Combined-Shape" fill="#0074E4"></path>
                        <path d="M6.23781676,27.6403363 C5.54763649,27.6403363 4.99025341,27.0790272 4.99025341,26.3839852 L4.99025341,25.7558097 C4.99025341,25.0613813 5.54763649,24.4994587 6.23781676,24.4994587 C6.92799704,24.4994587 7.48538012,25.0613813 7.48538012,25.7558097 L7.48538012,26.3839852 C7.48538012,27.0790272 6.92799704,27.6403363 6.23781676,27.6403363 Z" id="Shape" fill="#116FFF"></path>
                        <path d="M12.4756335,27.6403363 C11.7854533,27.6403363 11.2280702,27.0790272 11.2280702,26.3839852 L11.2280702,25.7558097 C11.2280702,25.0613813 11.7854533,24.4994587 12.4756335,24.4994587 C13.1658138,24.4994587 13.7231969,25.0613813 13.7231969,25.7558097 L13.7231969,26.3839852 C13.7231969,27.0790272 13.1658138,27.6403363 12.4756335,27.6403363 Z" id="Shape" fill="#116FFF"></path>
                        <path d="M23.6226852,42.7165487 L21.208577,42.7165487 C20.5183967,42.7165487 19.9610136,42.1552397 19.9610136,41.4601977 C19.9610136,40.7657693 20.5183967,40.2038467 21.208577,40.2038467 L23.6226852,40.2038467 C24.3122564,40.2038467 24.8702486,40.7657693 24.8702486,41.4601977 C24.8702486,42.1552397 24.311038,42.7165487 23.6226852,42.7165487 Z" id="Shape" fill="#116FFF"></path>
                        <path d="M12.4756335,56.5364102 L4.99025341,56.5364102 C4.30007314,56.5364102 3.74269006,55.9751011 3.74269006,55.2800591 L3.74269006,45.2292508 C3.74269006,44.5348224 4.30007314,43.9728998 4.99025341,43.9728998 L12.4756335,43.9728998 C13.1658138,43.9728998 13.7231969,44.5348224 13.7231969,45.2292508 L13.7231969,55.2800591 C13.7231969,55.9751011 13.1658138,56.5364102 12.4756335,56.5364102 Z M6.23781676,54.0237081 L11.2280702,54.0237081 L11.2280702,46.4856019 L6.23781676,46.4856019 L6.23781676,54.0237081 Z" id="Shape" fill="#0074E4"></path>
                        <path d="M73.6062378,56.5364102 L66.1208577,56.5364102 C65.4306774,56.5364102 64.8732943,55.9751011 64.8732943,55.2800591 L64.8732943,43.9728998 C64.8732943,43.2784714 65.4306774,42.7165487 66.1208577,42.7165487 L73.6062378,42.7165487 C74.2964181,42.7165487 74.8538012,43.2784714 74.8538012,43.9728998 L74.8538012,55.2800591 C74.8538012,55.9751011 74.2964181,56.5364102 73.6062378,56.5364102 Z M67.3684211,54.0237081 L72.3586745,54.0237081 L72.3586745,45.2292508 L67.3684211,45.2292508 L67.3684211,54.0237081 Z" id="Shape" fill="#0074E4"></path>
                        <path d="M16.2183236,54.0237081 L12.4756335,54.0237081 C11.7854533,54.0237081 11.2280702,53.462399 11.2280702,52.7673571 L11.2280702,47.7437933 C11.2280702,47.0487515 11.7854533,46.4874423 12.4756335,46.4874423 L16.2183236,46.4874423 C16.9085039,46.4874423 17.4658869,47.0487515 17.4658869,47.7437933 L17.4658869,52.7673571 C17.4658869,53.462399 16.9085039,54.0237081 16.2183236,54.0237081 Z M13.7231969,51.511006 L14.9707602,51.511006 L14.9707602,49.0001443 L13.7231969,49.0001443 L13.7231969,51.511006 Z" id="Shape" fill="#0074E4"></path>
                        <path d="M16.2183236,20.10223 L1.24756335,20.10223 C0.55738308,20.10223 0,19.540921 0,18.845879 L0,1.25696445 C0,0.562536046 0.55738308,0.000613452656 1.24756335,0.000613452656 L16.2183236,0.000613452656 C16.9085039,0.000613452656 17.4658869,0.562536046 17.4658869,1.25696445 L17.4658869,18.845879 C17.4658869,19.540921 16.9085039,20.10223 16.2183236,20.10223 Z M2.49512671,17.589528 L14.9707602,17.589528 L14.9707602,2.51331549 L2.49512671,2.51331549 L2.49512671,17.589528 Z" id="Shape" fill="#0074E4"></path>
                        <path d="M6.23903501,6.28236861 C5.8363791,6.28236861 5.43920561,6.08667717 5.19980507,5.7235132 L2.70467836,1.95568707 C2.32151563,1.37904157 2.47624265,0.598729792 3.05007314,0.213481524 C3.62146682,-0.172380157 4.39875727,-0.016563261 4.78070175,0.561309219 L7.27582846,4.32913535 C7.65899119,4.90578085 7.50426417,5.68609263 6.93043368,6.0713409 C6.71783626,6.21366191 6.47599906,6.28236861 6.23903501,6.28236861 Z" id="Shape" fill="#0074E4"></path>
                        <path d="M11.2280702,6.28236861 L6.23781676,6.28236861 C5.54763649,6.28236861 4.99025341,5.72105955 4.99025341,5.02601757 C4.99025341,4.33158916 5.54763649,3.76966653 6.23781676,3.76966653 L11.2280702,3.76966653 C11.9182504,3.76966653 12.4756335,4.33158916 12.4756335,5.02601757 C12.4756335,5.72105955 11.9182504,6.28236861 11.2280702,6.28236861 Z" id="Shape" fill="#0074E4"></path>
                        <path d="M11.2268519,6.28236861 C10.9898879,6.28236861 10.7492691,6.21366191 10.5354533,6.0713409 C9.96162277,5.68609263 9.80689575,4.90700783 10.1900585,4.32913535 L12.6851852,0.560082236 C13.0671297,-0.016563261 13.8389377,-0.173607141 14.4158138,0.21225454 C14.9896443,0.597502965 15.1443713,1.37658776 14.7612086,1.95446008 L12.2660819,5.7235132 C12.0266813,6.08667717 11.6295078,6.28236861 11.2268519,6.28236861 Z" id="Shape" fill="#0074E4"></path>
                        <path d="M11.2280702,11.3077728 L6.23781676,11.3077728 C5.54763649,11.3077728 4.99025341,10.7464637 4.99025341,10.0514217 C4.99025341,9.35699332 5.54763649,8.79507069 6.23781676,8.79507069 L11.2280702,8.79507069 C11.9182504,8.79507069 12.4756335,9.35699332 12.4756335,10.0514217 C12.4756335,10.7464637 11.9182504,11.3077728 11.2280702,11.3077728 Z" id="Shape" fill="#0074E4"></path>
                        <path d="M11.2280702,15.0768259 L6.23781676,15.0768259 C5.54763649,15.0768259 4.99025341,14.5155168 4.99025341,13.8204748 C4.99025341,13.1260464 5.54763649,12.5641238 6.23781676,12.5641238 L11.2280702,12.5641238 C11.9182504,12.5641238 12.4756335,13.1260464 12.4756335,13.8204748 C12.4756335,14.5155168 11.9182504,15.0768259 11.2280702,15.0768259 Z" id="Shape" fill="#0074E4"></path>
                        <path d="M78.5964912,17.589528 L61.1306043,17.589528 C60.440424,17.589528 59.8830409,17.0282189 59.8830409,16.3331769 L59.8830409,5.02601757 C59.8830409,4.33158916 60.440424,3.76966653 61.1306043,3.76966653 L78.5964912,3.76966653 C79.2866715,3.76966653 79.8440546,4.33158916 79.8440546,5.02601757 L79.8440546,16.3331769 C79.8440546,17.0282189 79.2866715,17.589528 78.5964912,17.589528 Z M62.3781676,15.0768259 L77.3489279,15.0768259 L77.3489279,6.28236861 L62.3781676,6.28236861 L62.3781676,15.0768259 Z" id="Shape" fill="#0074E4"></path>
                        <path d="M69.8635478,13.8204748 C69.5766325,13.8204748 69.2872808,13.721709 69.0527534,13.5180427 L60.3198099,5.97993649 C59.7959308,5.52904875 59.7344055,4.7358545 60.1851852,4.2095122 C60.6329191,3.68194276 61.4211744,3.62182448 61.9426169,4.07393905 L70.6755604,11.6120453 C71.1994395,12.062933 71.260965,12.8561273 70.8101851,13.3824697 C70.564693,13.6726328 70.2138158,13.8204748 69.8635478,13.8204748 Z" id="Shape" fill="#0074E4"></path>
                        <path d="M69.8635478,13.8204748 C69.5132797,13.8204748 69.1624025,13.6726328 68.9169104,13.3812427 C68.4673489,12.8549004 68.527656,12.0617062 69.0515351,11.6108185 L77.7844786,4.07271222 C78.309576,3.62182448 79.0953948,3.68194276 79.5431286,4.2095122 C79.9926901,4.7358545 79.932383,5.52904875 79.4085039,5.97993649 L70.6755604,13.5180427 C70.4398147,13.721709 70.150463,13.8204748 69.8635478,13.8204748 Z" id="Shape" fill="#0074E4"></path>
                        <path d="M78.5964912,17.589528 C78.309576,17.589528 78.0202242,17.4907621 77.7856968,17.2870958 L71.2408625,11.6371968 C70.7169834,11.1863092 70.6554581,10.3937284 71.1062378,9.86677252 C71.5539718,9.33797641 72.3422271,9.27908495 72.8636696,9.73119952 L79.4085039,15.3810984 C79.932383,15.8319861 79.9939085,16.6251804 79.5431286,17.1515228 C79.2976365,17.4416859 78.9467593,17.589528 78.5964912,17.589528 Z" id="Shape" fill="#0074E4"></path>
                        <path d="M61.1306043,17.589528 C60.7803362,17.589528 60.429459,17.4416859 60.1839669,17.1502959 C59.7344055,16.6239536 59.7947125,15.8307593 60.3185917,15.3798716 L66.8682993,9.7262919 C67.39096,9.27663098 68.1792154,9.33306879 68.625731,9.8618649 C69.0752923,10.3882074 69.0149854,11.1814016 68.4911063,11.6322892 L61.9413987,17.2858689 C61.7068713,17.4907621 61.4175195,17.589528 61.1306043,17.589528 Z" id="Shape" fill="#0074E4"></path>
                        <path d="M31.7248368,12.7891795 C32.0364108,12.5712052 32.4421838,12.4978816 32.8295565,12.6273095 C32.8661062,12.6408055 36.4577241,13.8204748 40.545809,13.8204748 C44.2956017,13.8204748 46.5765587,12.8230146 46.8332461,12.704862 C47.2253476,12.5014357 47.7123576,12.5137009 48.1048976,12.7782189 L51.8475877,15.3222069 C52.4189815,15.7117494 52.5688352,16.4920612 52.1844541,17.0674799 C51.9438353,17.4275765 51.5490985,17.6214275 51.1488792,17.6214275 C50.9094785,17.6214275 50.6658138,17.5508804 50.4513888,17.4061057 L47.264128,15.2396549 C46.171903,15.6474248 43.8463511,16.3331769 40.545809,16.3331769 C37.0258251,16.3331769 33.9143817,15.5605043 32.6451614,15.1966206 L29.3926657,17.407946 C29.1782408,17.5521074 28.9345761,17.6214275 28.6951754,17.6214275 C28.2949561,17.6214275 27.9002193,17.4275765 27.6596005,17.0687067 C27.2740009,16.4932882 27.4250731,15.7129764 27.9964669,15.3234339 L31.7248368,12.7891795 Z" id="Combined-Shape" fill="#0074E4"></path>
                    </g>
                </g>
            </g>
        </g>
    </g>
</svg>