<?xml version="1.0" encoding="UTF-8"?>
<svg width="60px" height="80px" viewBox="0 0 60 80" version="1.1" xmlns="http://www.w3.org/2000/svg" xmlns:xlink="http://www.w3.org/1999/xlink">
    <!-- Generator: Sketch 52.2 (67145) - http://www.bohemiancoding.com/sketch -->
    <title>ic / shield</title>
    <desc>Created with Sketch.</desc>
    <g id="Welcome" stroke="none" stroke-width="1" fill="none" fill-rule="evenodd">
        <g id="DS_web-v" transform="translate(-491.000000, -1160.000000)">
            <g id="Group-16" transform="translate(320.000000, 877.000000)">
                <g id="#4" transform="translate(0.000000, 243.000000)">
                    <g id="Group-14" transform="translate(30.000000, 40.000000)">
                        <g id="ic-/-Quality" transform="translate(131.000000, 0.000000)">
                            <g>
                                <path d="M47.5,30.7625 C54.67375,34.9 57.125,44.07375 52.9875,51.25 C48.85,58.425 39.675,60.875 32.5,56.73875 C25.325,52.6 22.875,43.425 27.01125,36.25 C31.15,29.075 40.325,26.625 47.5,30.7625 Z" id="Shape" fill="#D7E9FF" fill-rule="nonzero"></path>
                                <g id="Group" transform="translate(17.500000, 15.156250)" fill="#94C1FF" fill-rule="nonzero">
                                    <path d="M30,15.60625 C26.8425,13.785 23.29625,13.2425 19.96375,13.815 C21.69,14.10125 23.395,14.68 25,15.60625 C32.17375,19.74375 34.625,28.9175 30.4875,36.09375 C28.17125,40.11125 24.275,42.64375 20.03625,43.3725 C26.0275,44.36875 32.275,41.665 35.4875,36.09375 C39.625,28.91875 37.17375,19.74375 30,15.60625 Z" id="Shape"></path>
                                    <path d="M45,4.84375 L45,34.84375 C45,45.86875 36.02375,54.84375 25,54.84375 L20,54.84375 C8.975,54.84375 0,45.86875 0,34.84375 L0,4.84375 L10,4.84375 C14.8,4.84375 19.175,3.00625 22.5,0.03125 C25.825,3.00625 30.2,4.84375 35,4.84375 L45,4.84375 Z M35.4875,36.09375 C39.62625,28.91875 37.175,19.74375 30,15.60625 C22.825,11.46875 13.65,13.91875 9.51125,21.09375 C5.375,28.26875 7.825,37.44375 15,41.5825 C22.17375,45.71875 31.35,43.26875 35.4875,36.09375 Z" id="Shape"></path>
                                </g>
                                <path d="M57.5,20 L57.5,50 C57.5,61.025 48.52375,70 37.5,70 L42.5,70 C53.52375,70 62.5,61.025 62.5,50 L62.5,20 L57.5,20 Z" id="Shape" fill="#5C9EFF" fill-rule="nonzero"></path>
                                <path d="M68.75,8.75 L68.75,50 C68.75,64.5125 57.01125,76.25 42.5,76.25 C41.1125,76.25 40,77.36375 40,78.75 C40,77.375 38.875,76.25 37.5,76.25 C22.9875,76.25 11.25,64.5125 11.25,50 L11.25,8.75 C11.25,11.5125 13.4875,13.75 16.25,13.75 L27.5,13.75 C34.41125,13.75 40,8.1625 40,1.25 C40,8.1625 45.5875,13.75 52.5,13.75 L63.75,13.75 C66.5125,13.75 68.75,11.5125 68.75,8.75 Z M62.5,50 L62.5,20 L52.5,20 C47.7,20 43.325,18.1625 40,15.1875 C36.675,18.1625 32.3,20 27.5,20 L17.5,20 L17.5,50 C17.5,61.025 26.475,70 37.5,70 L42.5,70 C53.52375,70 62.5,61.025 62.5,50 Z" id="Shape" fill="#D7E9FF" fill-rule="nonzero"></path>
                                <path d="M63.75,13.75 L63.75,50 C63.75,64.5125 54.23375,72.8275 42.5,76.25 C57.01125,76.25 68.75,64.5125 68.75,50 L68.75,8.75 C68.75,11.5125 66.5125,13.75 63.75,13.75 Z" id="Shape" fill="#94C1FF" fill-rule="nonzero"></path>
                                <g id="Group" transform="translate(10.000000, 0.000000)" fill-rule="nonzero">
                                    <path d="M29.99996,75.957344 C30.6636131,75.3622554 31.5396068,74.9995011 32.4982712,74.9987512 L32.5,77.49875 C31.80875,77.49875 31.25,76.94 31.25,76.24875 C31.25,75.5580764 31.8078186,74.9996819 32.4982712,74.9987512 L32.500625,74.9987501 C46.285339,74.998411 57.5,63.7835417 57.5,49.99875 L57.5,13.7470406 C56.4547193,14.5334445 55.155817,15 53.75,15 L42.5,15 C36.9610355,15 32.1760582,11.7071443 30,6.97636477 C27.8239418,11.7071443 23.0389645,15 17.5,15 L6.25,15 C4.84418301,15 3.54528066,14.5334445 2.5,13.7470406 L2.5,49.99875 C2.5,63.78375 13.715,74.99875 27.5,74.99875 C27.5232551,74.99875 27.5463602,74.9993824 27.5692991,75.0006309 C28.5016292,75.0176196 29.3520199,75.3766943 29.99996,75.957344 Z M31.25,78.75 C31.25,79.44125 30.69125,80 30,80 C29.30875,80 28.75,79.44125 28.75,78.75 C28.75,78.06 28.19,77.5 27.5,77.5 C27.4806075,77.5 27.4613192,77.4995602 27.4421447,77.4986901 C12.3048843,77.4673597 0,65.1432103 0,49.99875 L0,8.75 C0,8.05875 0.55875,7.5 1.25,7.5 C1.94125,7.5 2.5,8.05875 2.5,8.75 C2.5,10.8175 4.1825,12.5 6.25,12.5 L17.5,12.5 C23.70375,12.5 28.75,7.45375 28.75,1.25 C28.75,0.55875 29.30875,0 30,0 C30.69125,0 31.25,0.55875 31.25,1.25 C31.25,7.45375 36.29625,12.5 42.5,12.5 L53.75,12.5 C55.8175,12.5 57.5,10.8175 57.5,8.75 C57.5,8.404375 57.6396875,8.091875 57.8657812,7.86578125 C58.091875,7.6396875 58.404375,7.5 58.75,7.5 C59.44125,7.5 60,8.05875 60,8.75 L60,49.99875 C60,65.1625 47.66375,77.49875 32.5,77.49875 C31.8105723,77.499428 31.25,78.0604167 31.25,78.75 Z" id="Combined-Shape" fill="#0074E4"></path>
                                    <path d="M32.5,71.25 L27.5,71.25 C15.7825,71.25 6.25,61.71625 6.25,49.99875 L6.25,20 C6.25,19.30875 6.80875,18.75 7.5,18.75 L17.5,18.75 C21.795,18.75 25.93625,17.15375 29.165,14.255 C29.63875,13.8275 30.36125,13.8275 30.835,14.255 C34.06375,17.15375 38.205,18.75 42.5,18.75 L52.5,18.75 C53.19125,18.75 53.75,19.30875 53.75,20 L53.75,49.99875 C53.75,61.71625 44.2175,71.25 32.5,71.25 Z M8.75,21.25 L8.75,49.99875 C8.75,60.33875 17.16125,68.75 27.5,68.75 L32.5,68.75 C42.83875,68.75 51.25,60.33875 51.25,49.99875 L51.25,21.25 L42.5,21.25 C37.95125,21.25 33.55375,19.68625 30,16.82625 C26.44625,19.68625 22.04875,21.25 17.5,21.25 L8.75,21.25 Z" id="Shape" fill="#0074E4"></path>
                                    <path d="M29.99,60 C27.15125,60 24.34625,59.245 21.87625,57.81875 C18.1175,55.65 15.42875,52.1475 14.30625,47.955 C13.18375,43.7625 13.76,39.385 15.93125,35.62625 C18.82375,30.61375 24.21875,27.5 30.0125,27.5 C32.85,27.5 35.655,28.255 38.12375,29.68 C41.8825,31.84875 44.57125,35.3525 45.695,39.545 C46.81875,43.7375 46.24125,48.115 44.07,51.87375 C41.1775,56.88625 35.78375,60 29.99,60 Z M30.0125,30 C25.11,30 20.54375,32.63375 18.0975,36.87625 C16.26,40.0575 15.7725,43.7625 16.72125,47.30875 C17.67,50.855 19.945,53.81875 23.12625,55.65375 C25.2175,56.86125 27.59125,57.5 29.99,57.5 C34.8925,57.5 39.4575,54.865 41.90375,50.62375 C43.74125,47.4425 44.22875,43.7375 43.28,40.19125 C42.33,36.64375 40.055,33.68 36.87375,31.845 C34.7825,30.63875 32.41125,30 30.0125,30 Z" id="Shape" fill="#116FFF"></path>
                                </g>
                            </g>
                        </g>
                    </g>
                </g>
            </g>
        </g>
    </g>
</svg>