<?xml version="1.0" encoding="UTF-8"?>
<svg width="80px" height="80px" viewBox="0 0 80 80" version="1.1" xmlns="http://www.w3.org/2000/svg" xmlns:xlink="http://www.w3.org/1999/xlink">
    <!-- Generator: Sketch 52.2 (67145) - http://www.bohemiancoding.com/sketch -->
    <title>ic / Specialization</title>
    <desc>Created with Sketch.</desc>
    <g id="ic-/-Specialization" stroke="none" stroke-width="1" fill="none" fill-rule="evenodd">
        <g fill-rule="nonzero" id="skills">
            <g transform="translate(5.000000, 0.000000)">
                <path d="M62.5889854,39.9226364 C62.5889854,55.0804094 50.2217629,67.3690302 34.965667,67.3690302 C19.7101842,67.3690302 7.34234865,55.0804094 7.34234865,39.9226364 C7.34234865,24.7642543 19.7101842,12.4762427 34.965667,12.4762427 C50.2217629,12.4762427 62.5889854,24.7642543 62.5889854,39.9226364 Z" id="Shape" fill="#D7E9FF"></path>
                <path d="M34.965667,12.4762427 C34.1183786,12.4762427 33.2821259,12.5194932 32.4544563,12.5944201 C46.5334221,13.8547758 57.5665639,25.6055067 57.5665639,39.9226364 C57.5665639,54.239157 46.5334221,65.9898879 32.4544563,67.2502437 C33.2821259,67.3251705 34.1183786,67.3690302 34.965667,67.3690302 C50.2211498,67.3690302 62.5889854,55.0804094 62.5889854,39.9226364 C62.5889854,24.7642543 50.2211498,12.4762427 34.965667,12.4762427 Z" id="Shape" fill="#94C1FF"></path>
                <path d="M46.2661155,32.4372563 L46.2661155,36.2171053 L42.4992993,33.6848196 C42.4992993,33.6848196 39.9880886,34.932383 35.5934697,34.932383 C31.2117257,34.932383 27.4320348,33.6848196 27.4320348,33.6848196 L23.6652186,36.2171053 L23.6652186,32.4372563 C23.6652186,26.9225146 28.160384,22.4567495 33.7100617,22.4567495 L41.2436939,22.4567495 L41.2436939,27.4470029 C44.0185329,27.4470029 46.2661155,29.6795808 46.2661155,32.4372563 Z" id="Shape" fill="#94C1FF"></path>
                <path d="M41.2436939,27.4470029 L41.2436939,22.4567495 L36.2212724,22.4567495 L36.2212724,29.9421296 C38.9961113,29.9421296 41.2436939,30.9271442 41.2436939,33.6848196 L41.2436939,34.1459552 C42.0523578,33.8980264 42.4992993,33.6848196 42.4992993,33.6848196 L46.2661155,36.2171053 L46.2661155,32.4372563 C46.2661155,29.6795808 44.0185329,27.4470029 41.2436939,27.4470029 Z" id="Shape" fill="#5C9EFF"></path>
                <path d="M46.2661155,36.2171053 L46.2661155,39.9226364 C46.2661155,44.3262671 43.7046315,48.143884 39.9880886,49.9774611 C38.48173,50.7261209 36.7736652,51.1507066 34.965667,51.1507066 C33.1576689,51.1507066 31.4502171,50.7261209 29.9432455,49.9774611 C26.2395775,48.1560672 23.6903552,44.363426 23.6652186,39.984771 L23.6652186,36.2171053 L27.4320348,33.6848196 C27.4320348,33.6848196 31.2117257,34.932383 35.5934697,34.932383 C39.9880886,34.932383 42.4992993,33.6848196 42.4992993,33.6848196 L46.2661155,36.2171053 Z" id="Shape" fill="#D7E9FF"></path>
                <path d="M42.4992993,33.6848196 C42.4992993,33.6848196 42.0523578,33.8980264 41.2436939,34.1459552 L41.2436939,39.9226364 C41.2436939,44.3262671 38.68221,48.143884 34.965667,49.9774611 C34.1784613,50.3679337 33.3360777,50.6664231 32.4544563,50.8662281 C33.2618939,51.0483674 34.1018253,51.1507066 34.965667,51.1507066 C36.7736652,51.1507066 38.48173,50.7261209 39.9880886,49.9774611 C43.7046315,48.143884 46.2661155,44.3274854 46.2661155,39.9226364 L46.2661155,36.2171053 L42.4992993,33.6848196 Z" id="Shape" fill="#94C1FF"></path>
                <path d="M34.965667,51.1507066 C36.7736652,51.1507066 38.48173,50.7261209 39.9880886,49.9774611 L39.9880886,54.8933966 L37.4768778,56.14096 L34.965667,54.8933966 L32.4544563,56.14096 L29.9432455,54.8933966 L29.9432455,49.9774611 C31.4502171,50.7261209 33.1576689,51.1507066 34.965667,51.1507066 Z" id="Shape" fill="#FFFFFF"></path>
                <path d="M37.4768778,56.14096 L39.9880886,54.8933966 L43.7549047,54.8933966 C47.2329561,54.8933966 50.0329316,57.6876218 50.0329316,61.1312134 L50.0329316,62.9276317 C45.7014609,65.7346492 40.5153447,67.3690302 34.965667,67.3690302 C29.4037276,67.3690302 24.2304862,65.7346492 19.8984025,62.9276317 L19.8984025,61.1312134 C19.8984025,57.6876218 22.7112528,54.8933966 26.1764294,54.8933966 L29.9432455,54.8933966 L32.4544563,56.14096 L34.965667,54.8933966 L37.4768778,56.14096 Z" id="Shape" fill="#94C1FF"></path>
                <path d="M43.7549047,54.8933966 L39.9880886,54.8933966 L39.7771861,54.9981725 C42.7518918,55.493421 45.0105101,58.0421539 45.0105101,61.1312134 L45.0105101,65.4885477 C46.7798838,64.8014132 48.4634249,63.9443227 50.0329316,62.9276317 L50.0329316,61.1312134 C50.0329316,57.6876218 47.2329561,54.8933966 43.7549047,54.8933966 Z" id="Shape" fill="#5C9EFF"></path>
                <g id="Group">
                    <path d="M19.8971764,62.3787768 C19.20316,62.3787768 18.641571,61.8207846 18.641571,61.1312134 C18.641571,57.002924 22.020302,53.6458333 26.1752033,53.6458333 C26.8698326,53.6458333 27.4308087,54.2032164 27.4308087,54.8933966 C27.4308087,55.5829678 26.8698326,56.14096 26.1752033,56.14096 C23.4052691,56.14096 21.1527817,58.3790205 21.1527817,61.1312134 C21.1527817,61.8207846 20.5918057,62.3787768 19.8971764,62.3787768 Z" id="Shape" fill="#0074E4"></path>
                    <path d="M29.9420194,56.14096 L26.1752033,56.14096 C25.4811869,56.14096 24.9195979,55.5829678 24.9195979,54.8933966 C24.9195979,54.2032164 25.4811869,53.6458333 26.1752033,53.6458333 L29.9420194,53.6458333 C30.6366487,53.6458333 31.1976248,54.2032164 31.1976248,54.8933966 C31.1976248,55.5829678 30.6366487,56.14096 29.9420194,56.14096 Z" id="Shape" fill="#0074E4"></path>
                    <path d="M19.8971764,64.175195 C19.20316,64.175195 18.641571,63.6172027 18.641571,62.9276317 L18.641571,61.1312134 C18.641571,60.4410331 19.20316,59.8836501 19.8971764,59.8836501 C20.5918057,59.8836501 21.1527817,60.4410331 21.1527817,61.1312134 L21.1527817,62.9276317 C21.1527817,63.6172027 20.5918057,64.175195 19.8971764,64.175195 Z" id="Shape" fill="#116FFF"></path>
                    <path d="M50.0317055,62.3787768 C49.3376891,62.3787768 48.7761001,61.8207846 48.7761001,61.1312134 C48.7761001,58.3790205 46.5236127,56.14096 43.7536786,56.14096 C43.0596622,56.14096 42.4980732,55.5829678 42.4980732,54.8933966 C42.4980732,54.2032164 43.0596622,53.6458333 43.7536786,53.6458333 C47.9085798,53.6458333 51.2873109,57.002924 51.2873109,61.1312134 C51.2873109,61.8207846 50.7263348,62.3787768 50.0317055,62.3787768 Z" id="Shape" fill="#0074E4"></path>
                    <path d="M43.7536786,56.14096 L39.9868625,56.14096 C39.2928461,56.14096 38.7312571,55.5829678 38.7312571,54.8933966 C38.7312571,54.2032164 39.2928461,53.6458333 39.9868625,53.6458333 L43.7536786,53.6458333 C44.4483079,53.6458333 45.009284,54.2032164 45.009284,54.8933966 C45.009284,55.5829678 44.4483079,56.14096 43.7536786,56.14096 Z" id="Shape" fill="#0074E4"></path>
                    <path d="M50.0317055,64.175195 C49.3376891,64.175195 48.7761001,63.6172027 48.7761001,62.9276317 L48.7761001,61.1312134 C48.7761001,60.4410331 49.3376891,59.8836501 50.0317055,59.8836501 C50.7263348,59.8836501 51.2873109,60.4410331 51.2873109,61.1312134 L51.2873109,62.9276317 C51.2873109,63.6172027 50.7263348,64.175195 50.0317055,64.175195 Z" id="Shape" fill="#116FFF"></path>
                    <path d="M29.9420194,56.14096 C29.248003,56.14096 28.686414,55.5829678 28.686414,54.8933966 L28.686414,49.9829435 C28.686414,49.2927632 29.248003,48.7353801 29.9420194,48.7353801 C30.6366487,48.7353801 31.1976248,49.2927632 31.1976248,49.9829435 L31.1976248,54.8933966 C31.1976248,55.5829678 30.6366487,56.14096 29.9420194,56.14096 Z" id="Shape" fill="#0074E4"></path>
                    <path d="M39.9868625,56.14096 C39.2928461,56.14096 38.7312571,55.5829678 38.7312571,54.8933966 L38.7312571,49.9829435 C38.7312571,49.2927632 39.2928461,48.7353801 39.9868625,48.7353801 C40.6814918,48.7353801 41.2424678,49.2927632 41.2424678,49.9829435 L41.2424678,54.8933966 C41.2424678,55.5829678 40.6814918,56.14096 39.9868625,56.14096 Z" id="Shape" fill="#0074E4"></path>
                    <path d="M41.2424678,23.7043128 L33.7088356,23.7043128 C33.0148191,23.7043128 32.4532302,23.1451024 32.4532302,22.4567495 C32.4532302,21.7677876 33.0148191,21.2091861 33.7088356,21.2091861 L41.2424678,21.2091861 C41.9370972,21.2091861 42.4980732,21.7677876 42.4980732,22.4567495 C42.4980732,23.1451024 41.9370972,23.7043128 41.2424678,23.7043128 Z" id="Shape" fill="#0074E4"></path>
                    <path d="M34.9632147,52.3982699 C28.0396056,52.3982699 22.4083871,46.8025098 22.4083871,39.9250731 C22.4083871,39.236111 22.9699761,38.6775097 23.6639925,38.6775097 C24.3586218,38.6775097 24.9195979,39.236111 24.9195979,39.9250731 C24.9195979,45.4264133 29.4245725,49.9031432 34.9632147,49.9031432 C40.503083,49.9031432 45.009284,45.4264133 45.009284,39.9250731 C45.009284,39.236111 45.570873,38.6775097 46.2648894,38.6775097 C46.9595187,38.6775097 47.5204948,39.236111 47.5204948,39.9250731 C47.5204948,46.8025098 41.8880501,52.3982699 34.9632147,52.3982699 Z" id="Shape" fill="#0074E4"></path>
                    <path d="M23.6639925,41.2335526 C22.9699761,41.2335526 22.4083871,40.6743421 22.4083871,39.9859892 L22.4083871,32.4372563 C22.4083871,31.7482944 22.9699761,31.1896929 23.6639925,31.1896929 C24.3586218,31.1896929 24.9195979,31.7482944 24.9195979,32.4372563 L24.9195979,39.9859892 C24.9195979,40.6743421 24.3586218,41.2335526 23.6639925,41.2335526 Z" id="Shape" fill="#0074E4"></path>
                    <path d="M46.2648894,41.1726364 C45.570873,41.1726364 45.009284,40.613426 45.009284,39.9250731 L45.009284,32.4372563 C45.009284,31.7482944 45.570873,31.1896929 46.2648894,31.1896929 C46.9595187,31.1896929 47.5204948,31.7482944 47.5204948,32.4372563 L47.5204948,39.9250731 C47.5204948,40.613426 46.9595187,41.1726364 46.2648894,41.1726364 Z" id="Shape" fill="#0074E4"></path>
                    <path d="M46.2648894,33.6829923 C45.570873,33.6829923 45.009284,33.1243908 45.009284,32.4354289 C45.009284,30.3721979 43.3196117,28.6945662 41.2424678,28.6945662 C40.5484514,28.6945662 39.9868625,28.1353558 39.9868625,27.4470029 C39.9868625,26.758041 40.5484514,26.1994395 41.2424678,26.1994395 C44.7045789,26.1994395 47.5204948,28.9973196 47.5204948,32.4354289 C47.5204948,33.1243908 46.9595187,33.6829923 46.2648894,33.6829923 Z" id="Shape" fill="#0074E4"></path>
                    <path d="M41.2424678,28.6945662 C40.5484514,28.6945662 39.9868625,28.1353558 39.9868625,27.4470029 L39.9868625,22.4567495 C39.9868625,21.7677876 40.5484514,21.2091861 41.2424678,21.2091861 C41.9370972,21.2091861 42.4980732,21.7677876 42.4980732,22.4567495 L42.4980732,27.4470029 C42.4980732,28.1353558 41.9370972,28.6945662 41.2424678,28.6945662 Z" id="Shape" fill="#0074E4"></path>
                    <path d="M23.6639925,33.6848196 C22.9699761,33.6848196 22.4083871,33.1256092 22.4083871,32.4372563 C22.4083871,26.2463451 27.4774032,21.2091861 33.7088356,21.2091861 C34.4034649,21.2091861 34.9644409,21.7677876 34.9644409,22.4567495 C34.9644409,23.1451024 34.4034649,23.7043128 33.7088356,23.7043128 C28.8635966,23.7043128 24.9195979,27.6212232 24.9195979,32.4372563 C24.9195979,33.1256092 24.3586218,33.6848196 23.6639925,33.6848196 Z" id="Shape" fill="#0074E4"></path>
                    <path d="M46.2636631,37.458577 C46.0227193,37.458577 45.778097,37.3897418 45.5616767,37.2453704 L41.7948606,34.7185672 C41.2197835,34.3329678 41.0695768,33.5575049 41.4558225,32.9873294 C41.8451338,32.417154 42.6237563,32.2636452 43.2000596,32.6516812 L46.9668757,35.1778752 C47.5419527,35.5634746 47.6927726,36.3395468 47.3059137,36.9097223 C47.0637437,37.2660819 46.6670755,37.458577 46.2636631,37.458577 Z" id="Shape" fill="#0074E4"></path>
                    <path d="M35.5922436,36.1799464 C31.0572274,36.1799464 27.1959957,34.9220273 27.0353664,34.8684211 C26.3787485,34.6515595 26.0219311,33.9467593 26.2395775,33.2925195 C26.4578371,32.6388889 27.1684066,32.2794835 27.8262507,32.5006091 C27.8630361,32.5127924 31.4778062,33.6848196 35.5922436,33.6848196 C39.5828371,33.6848196 41.9205437,32.5767545 41.9444542,32.5651804 C42.5636736,32.2648636 43.3183857,32.5182749 43.6230906,33.1353558 C43.9284088,33.7518275 43.6770424,34.495614 43.0596622,34.8008041 C42.9437885,34.8574562 40.2204492,36.1799464 35.5922436,36.1799464 Z" id="Shape" fill="#0074E4"></path>
                    <path d="M23.6652186,37.458577 C23.2624195,37.458577 22.8657511,37.2660819 22.622968,36.9097223 C22.2354961,36.3383284 22.386929,35.5634746 22.962006,35.1778752 L26.7288221,32.6516812 C27.3038993,32.2636452 28.084974,32.417154 28.4730591,32.9873294 C28.8611442,33.5587231 28.7090983,34.3329678 28.1340211,34.7185672 L24.367205,37.2453704 C24.1513978,37.3897418 23.9061624,37.458577 23.6652186,37.458577 Z" id="Shape" fill="#0074E4"></path>
                    <path d="M32.4520039,57.3885234 C32.2637857,57.3885234 32.071889,57.3458821 31.8922541,57.2569444 L29.3810433,56.0093811 C28.7605977,55.7017544 28.5092313,54.9518762 28.8194542,54.3354044 C29.1309032,53.7189327 29.8856151,53.4734406 30.5048346,53.7780214 L33.0160454,55.0255847 C33.635878,55.3332115 33.8872442,56.0830896 33.5770215,56.6995615 C33.3563096,57.1363304 32.9130465,57.3885234 32.4520039,57.3885234 Z" id="Shape" fill="#0074E4"></path>
                    <path d="M32.4544563,57.3885234 C31.9940267,57.3885234 31.5507638,57.1363304 31.3294387,56.6983431 C31.019216,56.0818713 31.2705822,55.3319931 31.8910278,55.0243665 L34.4022386,53.7768031 C35.0232974,53.4722222 35.775557,53.7177145 36.087006,54.3341862 C36.3972289,54.9506579 36.1458625,55.7005361 35.5260299,56.0081628 L33.0148191,57.2557262 C32.8351842,57.3458821 32.6426745,57.3885234 32.4544563,57.3885234 Z" id="Shape" fill="#0074E4"></path>
                    <path d="M37.4768778,57.3885234 C37.0164483,57.3885234 36.5731853,57.1363304 36.3518602,56.6983431 C36.0416375,56.0818713 36.2930037,55.3319931 36.9134494,55.0243665 L39.4246601,53.7768031 C40.0444927,53.4722222 40.7979785,53.7177145 41.1094275,54.3341862 C41.4196504,54.9506579 41.168284,55.7005361 40.5484514,56.0081628 L38.0372407,57.2557262 C37.8576058,57.3458821 37.665096,57.3885234 37.4768778,57.3885234 Z" id="Shape" fill="#0074E4"></path>
                    <path d="M37.4744254,57.3885234 C37.2862072,57.3885234 37.0943105,57.3458821 36.9146756,57.2569444 L34.4034649,56.0093811 C33.7830192,55.7017544 33.5316528,54.9518762 33.8418757,54.3354044 C34.1533247,53.7189327 34.9068105,53.4734406 35.5272562,53.7780214 L38.0384669,55.0255847 C38.6582995,55.3332115 38.9096657,56.0830896 38.599443,56.6995615 C38.3787311,57.1363304 37.935468,57.3885234 37.4744254,57.3885234 Z" id="Shape" fill="#0074E4"></path>
                    <path d="M34.9644409,68.6165935 C19.0394654,68.6165935 6.08551717,55.7450049 6.08551717,39.9226364 C6.08551717,24.1008772 19.0394654,11.2286793 34.9644409,11.2286793 C50.8894163,11.2286793 63.8433647,24.1008772 63.8433647,39.9226364 C63.8433647,55.7450049 50.8894163,68.6165935 34.9644409,68.6165935 Z M34.9644409,13.723806 C20.4256586,13.723806 8.59672794,25.4757553 8.59672794,39.9226364 C8.59672794,54.36769 20.4256586,66.1214668 34.9644409,66.1214668 C49.5032231,66.1214668 61.3321539,54.36769 61.3321539,39.9226364 C61.3321539,25.4757553 49.5032231,13.723806 34.9644409,13.723806 Z" id="Shape" fill="#0074E4"></path>
                    <path d="M34.9644409,79.8446637 C34.2704245,79.8446637 33.7088356,79.2866715 33.7088356,78.5971004 L33.7088356,67.3690302 C33.7088356,66.6788499 34.2704245,66.1214668 34.9644409,66.1214668 C35.6590702,66.1214668 36.2200463,66.6788499 36.2200463,67.3690302 L36.2200463,78.5971004 C36.2200463,79.2866715 35.6590702,79.8446637 34.9644409,79.8446637 Z" id="Shape" fill="#0074E4"></path>
                    <path d="M34.9644409,79.8446637 C34.6431824,79.8446637 34.3219241,79.7222222 34.0766887,79.4785575 C33.5862178,78.9912281 33.5862178,78.2023635 34.0766887,77.7150341 L36.5878995,75.2199074 C37.0789834,74.7319688 37.8723199,74.7319688 38.3634039,75.2199074 C38.8544878,75.7072368 38.8544878,76.4961014 38.3634039,76.9834308 L35.8521932,79.4785575 C35.6075708,79.7222222 35.2863124,79.8446637 34.9644409,79.8446637 Z" id="Shape" fill="#0074E4"></path>
                    <path d="M34.9644409,79.8446637 C34.6431824,79.8446637 34.3219241,79.7222222 34.0766887,79.4785575 L31.5654779,76.9834308 C31.0750071,76.4961014 31.0750071,75.7072368 31.5654779,75.2199074 C32.0565618,74.7319688 32.8498984,74.7319688 33.3409824,75.2199074 L35.8521932,77.7150341 C36.3432771,78.2023635 36.3432771,78.9912281 35.8521932,79.4785575 C35.6075708,79.7222222 35.2863124,79.8446637 34.9644409,79.8446637 Z" id="Shape" fill="#0074E4"></path>
                    <path d="M34.9644409,13.723806 C34.2704245,13.723806 33.7088356,13.1645956 33.7088356,12.4762427 L33.7088356,1.24817248 C33.7088356,0.559210604 34.2704245,0.000609161793 34.9644409,0.000609161793 C35.6590702,0.000609161793 36.2200463,0.559210604 36.2200463,1.24817248 L36.2200463,12.4762427 C36.2200463,13.1645956 35.6590702,13.723806 34.9644409,13.723806 Z" id="Shape" fill="#0074E4"></path>
                    <path d="M34.9644409,3.01169591 L35.8521932,2.12962963 C36.3428981,1.64267626 36.3432768,0.854652969 35.8533292,0.367234936 L38.3634039,2.8612329 C38.8544878,3.34856234 38.8544878,4.1374269 38.3634039,4.62475634 C38.1187816,4.86842105 37.7975232,4.99086253 37.4756517,4.99086253 C37.1543931,4.99086253 36.8331349,4.86842105 36.5878995,4.62475634 L34.9644409,3.01169591 L33.3409824,4.62475634 C33.09636,4.86842105 32.7751016,4.99086253 32.4532302,4.99086253 C32.1319716,4.99086253 31.8107134,4.86842105 31.5654779,4.62475634 C31.0750071,4.1374269 31.0750071,3.34856234 31.5654779,2.8612329 L34.0766887,0.366106199 C34.5677726,-0.121832359 35.3611091,-0.121832359 35.8521932,0.366106199 Z" id="Combined-Shape" fill="#0074E4"></path>
                    <path d="M68.6738894,60.5074317 C68.4605346,60.5074317 68.2441143,60.4532164 68.047313,60.3399124 L58.2599671,54.7258773 C57.6585273,54.3817007 57.4525295,53.6178119 57.8001506,53.0220516 C58.1465456,52.4256823 58.9165848,52.2185672 59.5155725,52.5651804 L69.3029183,58.1792154 C69.9043582,58.5233918 70.1103559,59.2872808 69.7621216,59.8836501 C69.529148,60.2826511 69.10673,60.5074317 68.6738894,60.5074317 Z" id="Shape" fill="#0074E4"></path>
                    <path d="M67.1370352,58.3767886 L66.5427935,56.1744639 C66.3625456,55.5092593 66.7616663,54.8245614 67.4305458,54.646077 C68.1012648,54.4663743 68.7879239,54.8617202 68.9687851,55.5281433 L69.8878048,58.9364036 C70.0686659,59.6016081 69.6695452,60.2863061 69.0000525,60.4647905 C68.9920712,60.4668844 68.9840899,60.4689001 68.9761091,60.4708379 L65.5685959,61.3779241 C65.459466,61.4077729 65.3503363,61.4205653 65.2424327,61.4205653 C64.6888137,61.4205653 64.1811764,61.0538498 64.0303567,60.4958578 C63.8494955,59.8306529 64.2492293,59.1459552 64.9181089,58.9674707 L67.1370352,58.3767886 Z" id="Combined-Shape" fill="#0074E4"></path>
                    <path d="M11.041725,27.4470029 C10.8283703,27.4470029 10.6119499,27.3927875 10.4151485,27.2794835 L0.629028789,21.6654484 C0.0288152018,21.3212719 -0.177182556,20.5573831 0.169212444,19.9616228 C0.515607444,19.3640351 1.28442058,19.1593567 1.88463417,19.5047515 L11.6707539,25.1187866 C12.2721938,25.462963 12.4781915,26.2268519 12.1299572,26.8232212 C11.8975968,27.2234405 11.4757918,27.4470029 11.041725,27.4470029 Z" id="Shape" fill="#0074E4"></path>
                    <path d="M2.17462518,25.2412281 C1.62100617,25.2412281 1.11214274,24.8726852 0.962548969,24.3153021 L0.044755426,20.9070419 C-0.134879484,20.2406189 0.263628161,19.5571393 0.932507668,19.378655 C1.60200038,19.2001706 2.29111193,19.5955166 2.470747,20.2607212 L3.38854054,23.6689815 C3.56817545,24.3354044 3.17028101,25.0188841 2.5007883,25.1973684 C2.39165845,25.2272173 2.28252877,25.2412281 2.17462518,25.2412281 Z" id="Shape" fill="#0074E4"></path>
                    <path d="M1.25560538,21.8329678 C0.701373318,21.8329678 0.193122937,21.464425 0.0435293274,20.9070419 C-0.13610574,20.2418372 0.262401906,19.5571393 0.93128157,19.378655 L4.36028587,18.4655214 C5.03100484,18.2882554 5.72011623,18.6811648 5.89852504,19.3475877 C6.07815996,20.0121832 5.68026552,20.6974902 5.0107728,20.8759747 L1.5817685,21.7891081 C1.47263865,21.818957 1.36350897,21.8329678 1.25560538,21.8329678 Z" id="Shape" fill="#0074E4"></path>
                    <path d="M58.8889959,27.4470029 C58.4543161,27.4470029 58.0325112,27.2234405 57.8001506,26.8232212 C57.4537556,26.2256335 57.6597534,25.462963 58.2599671,25.1187866 L68.047313,19.5047515 C68.6463004,19.1605751 69.4145004,19.3640351 69.7621216,19.9616228 C70.1091297,20.5592106 69.9031319,21.3212719 69.3029183,21.6654484 L59.5155725,27.2794835 C59.3181579,27.3927875 59.1023507,27.4470029 58.8889959,27.4470029 Z" id="Shape" fill="#0074E4"></path>
                    <path d="M67.136378,21.4661555 L64.919335,20.8759747 C64.2504555,20.6974902 63.8525609,20.0140108 64.0315828,19.3475877 C64.2112178,18.6811648 64.9009424,18.2858186 65.5698221,18.4655214 L69.0000525,19.378655 C69.6695452,19.5571393 70.0674398,20.2406189 69.8878048,20.9070419 C69.8830568,20.9246604 69.8779517,20.9420903 69.8724994,20.9593258 L68.9687851,24.3153021 C68.8191913,24.8745126 68.3121672,25.2412281 67.7573221,25.2412281 C67.6494185,25.2412281 67.5402887,25.2272173 67.4305458,25.1973684 C66.7616663,25.0188841 66.3637717,24.3354044 66.5427935,23.6689815 L67.136378,21.4661555 Z" id="Combined-Shape" fill="#0074E4"></path>
                    <path d="M1.25805774,60.5056044 C0.823377982,60.5056044 0.401573049,60.2814328 0.169212444,59.8818227 C-0.177182556,59.2842349 0.0288152018,58.5221736 0.629028789,58.177997 L10.4163748,52.5651804 C11.014136,52.2197856 11.7835622,52.4269006 12.1311835,53.0220516 C12.4781915,53.6196395 12.2721938,54.3817007 11.6719802,54.7258773 L1.88463417,60.338694 C1.68721973,60.4519981 1.47141256,60.5056044 1.25805774,60.5056044 Z" id="Shape" fill="#0074E4"></path>
                    <path d="M4.68951439,61.4193469 C4.58161081,61.4193469 4.47248112,61.4053363 4.36273823,61.3767057 L0.932507668,60.4635721 C0.263628161,60.2850877 -0.13610574,59.6016081 0.044755426,58.9351852 C0.225616592,58.2687623 0.91411509,57.8758528 1.58299475,58.0531189 L5.01322516,58.9662525 C5.68271787,59.1447368 6.08183857,59.8282165 5.9009774,60.4946394 C5.74893143,61.0538498 5.24313341,61.4193469 4.68951439,61.4193469 Z" id="Shape" fill="#0074E4"></path>
                    <path d="M1.25805774,60.5056044 C1.15015415,60.5056044 1.04041126,60.4922027 0.93128157,60.4635721 C0.262401906,60.2850877 -0.137331839,59.6016081 0.0435293274,58.9351852 L0.962548969,55.5281433 C1.14341013,54.8617202 1.83068238,54.4675927 2.5007883,54.646077 C3.17150711,54.8245614 3.5694017,55.5080409 3.38854054,56.1744639 L2.46952074,59.5815058 C2.31870103,60.1388889 1.81290285,60.5056044 1.25805774,60.5056044 Z" id="Shape" fill="#0074E4"></path>
                </g>
            </g>
        </g>
    </g>
</svg>