<svg width="80" height="68" viewBox="0 0 80 68" xmlns="http://www.w3.org/2000/svg">
    <title>
        multitask
    </title>
    <g fill-rule="nonzero" fill="none">
        <path fill="#94C1FF" d="M12.476 52.767v2.513H4.99V45.23h7.486z"/>
        <path d="M32.437 13.783l-3.743 2.55v-3.769c0-5.553 4.466-10.05 9.98-10.05h7.486v5.025c2.757 0 4.99 2.249 4.99 5.025v3.77l-3.743-2.55s-2.507 1.255-6.861 1.255c-4.354 0-8.11-1.256-8.11-1.256z" fill="#94C1FF"/>
        <path d="M46.16 7.539V2.513h-4.99v7.538c2.757 0 4.99.993 4.99 3.77v.427c.802-.25 1.247-.465 1.247-.465l3.743 2.55v-3.769c0-2.776-2.233-5.025-4.99-5.025z" fill="#5C9EFF"/>
        <path d="M51.15 16.371v4.988c0 4.435-2.545 8.28-6.238 10.126a11.108 11.108 0 0 1-4.99 1.18c-1.784 0-3.493-.426-4.99-1.18a11.314 11.314 0 0 1-6.238-10.126V16.37l3.743-2.55s3.755 1.256 8.109 1.256 6.861-1.257 6.861-1.257l3.743 2.551z" fill="#D7E9FF"/>
        <path d="M47.407 13.82s-.445.216-1.247.464v7.075c0 4.435-2.545 8.28-6.238 10.126-.78.393-1.62.692-2.495.893.806.185 1.64.288 2.495.288 1.784 0 3.493-.427 4.99-1.181a11.314 11.314 0 0 0 6.238-10.126V16.37l-3.743-2.55z" fill="#94C1FF"/>
        <path d="M12.476 25.756v.628c0 4.862 3.904 8.794 8.733 8.794h12.475c-4.403 0-8.221 2.563-10.055 6.282h-2.42c-8.272 0-14.971-6.746-14.971-15.076v-.628c0-1.734 1.397-3.141 3.119-3.141 1.721 0 3.119 1.407 3.119 3.14z" fill="#94C1FF"/>
        <path fill="#D7E9FF" d="M6.238 5.026L3.743 1.257h9.98l-2.495 3.769z"/>
        <path fill="#94C1FF" d="M16.218 1.257v17.589H1.248V1.257h2.495l2.495 3.769h4.99l2.495-3.769z"/>
        <path fill="#D7E9FF" d="M78.596 5.026v11.307l-6.55-5.653z"/>
        <path fill="#D7E9FF" d="M67.68 10.68l-6.55 5.653V5.026z"/>
        <path fill="#D7E9FF" d="M78.596 5.026l-8.732 7.538-8.733-7.538z"/>
        <path fill="#D7E9FF" d="M69.864 12.564l2.183-1.884 6.55 5.653H61.13l6.55-5.653z"/>
        <path fill="#94C1FF" d="M66.12 43.973h7.486V55.28h-7.485z"/>
        <path d="M73.606 25.756v.628c0 8.33-6.7 15.076-14.97 15.076h-2.42c-1.835-3.719-5.651-6.282-10.056-6.282h12.475c4.829 0 8.733-3.932 8.733-8.794v-.628c0-1.734 1.398-3.141 3.12-3.141 1.72 0 3.118 1.407 3.118 3.14z" fill="#94C1FF"/>
        <path d="M39.922 32.666c1.784 0 3.493-.427 4.99-1.181v3.693l-2.495 2.513-2.495-1.256-2.495 1.256-2.495-2.513v-3.693a11.108 11.108 0 0 0 4.99 1.18z" fill="#FFF"/>
        <path d="M34.932 35.178l2.495 2.513 2.495-1.256 2.495 1.256 2.495-2.513h1.248c4.403 0 8.221 2.563 10.055 6.282a11.276 11.276 0 0 1 1.173 5.026v2.512c0 5.554 4.466 10.051 9.98 10.051h.624c1.722 0 3.12 1.407 3.12 3.141s-1.398 3.14-3.12 3.14h-.624c-8.97 0-16.218-7.298-16.218-16.332v17.59H28.694v-17.59c0 9.034-7.248 16.333-16.218 16.333h-.624c-1.722 0-3.12-1.407-3.12-3.141s1.398-3.14 3.12-3.14h.624c5.514 0 9.98-4.498 9.98-10.052v-2.512c0-1.81.424-3.518 1.173-5.026 1.834-3.719 5.65-6.282 10.055-6.282h1.248z" fill="#D7E9FF"/>
        <path d="M39.96 45.23c-.69 0-1.254-.562-1.254-1.257 0-.695.55-1.256 1.24-1.256h.013c.69 0 1.248.561 1.248 1.256s-.559 1.256-1.248 1.256z" fill="#0074E4"/>
        <path d="M39.96 51.511c-.69 0-1.254-.561-1.254-1.256s.55-1.257 1.24-1.257h.013c.69 0 1.248.562 1.248 1.257 0 .695-.559 1.256-1.248 1.256z" fill="#0074E4"/>
        <path d="M39.96 57.793c-.69 0-1.254-.562-1.254-1.257 0-.694.55-1.256 1.24-1.256h.013c.69 0 1.248.562 1.248 1.256 0 .695-.559 1.257-1.248 1.257z" fill="#0074E4"/>
        <path d="M39.96 64.075c-.69 0-1.254-.562-1.254-1.257 0-.694.55-1.256 1.24-1.256h.013c.69 0 1.248.562 1.248 1.256 0 .695-.559 1.257-1.248 1.257z" fill="#0074E4"/>
        <path d="M69.9 54.024c-.689 0-1.253-.562-1.253-1.257 0-.694.551-1.256 1.24-1.256h.014c.689 0 1.247.562 1.247 1.256 0 .695-.558 1.257-1.247 1.257z" fill="#0074E4"/>
        <path d="M46.16 1.257c.69 0 1.247.562 1.247 1.256V6.41c2.844.583 4.99 3.12 4.99 6.154v8.796c0 6.927-5.596 12.563-12.475 12.563-6.88 0-12.476-5.636-12.476-12.563v-8.795c0-6.235 5.037-11.307 11.228-11.307a1.25 1.25 0 0 0-1.247 1.256 1.25 1.25 0 0 0 1.247 1.257c-4.814 0-8.732 3.946-8.732 8.794v8.795c0 5.542 4.477 10.05 9.98 10.05s9.98-4.508 9.98-10.05v-8.796c0-2.077-1.679-3.768-3.742-3.768a1.25 1.25 0 0 1-1.248-1.256v-3.77h-6.238z" fill="#0074E4"/>
        <path d="M21.209 48.998v-2.512c0-6.928 5.596-12.562 12.475-12.562.69 0 1.248.561 1.248 1.256a1.25 1.25 0 0 1-1.248 1.257c-5.503 0-9.98 4.507-9.98 10.049v2.512c0 6.236-5.037 11.307-11.228 11.307a1.25 1.25 0 0 1-1.248-1.256 1.25 1.25 0 0 1 1.248-1.256c4.814 0 8.733-3.946 8.733-8.795z" fill="#0074E4"/>
        <path d="M12.476 66.587h-.624c-2.408 0-4.367-1.972-4.367-4.397 0-2.424 1.959-4.397 4.367-4.397.69 0 1.247.562 1.247 1.256a1.25 1.25 0 0 1-1.247 1.256A1.88 1.88 0 0 0 9.98 62.19c0 1.04.839 1.885 1.87 1.885h.625c8.255 0 14.97-6.763 14.97-15.077a1.25 1.25 0 0 1 1.248-1.256c.69 0 1.248.562 1.248 1.256v17.59a1.25 1.25 0 0 1-1.248 1.256 1.25 1.25 0 0 1-1.248-1.257v-8.536c-3.058 5.111-8.624 8.536-14.97 8.536z" fill="#0074E4"/>
        <path d="M12.476 60.305h-.624a1.25 1.25 0 0 1-1.248-1.256 1.25 1.25 0 0 1 1.248-1.256h.624c.69 0 1.247.562 1.247 1.256a1.25 1.25 0 0 1-1.247 1.256z" fill="#0074E4"/>
        <path d="M67.992 60.305h-.624c-6.191 0-11.228-5.07-11.228-11.307a1.25 1.25 0 0 1 1.248-1.256c.69 0 1.247.562 1.247 1.256 0 4.849 3.92 8.795 8.733 8.795h.624c2.408 0 4.367 1.973 4.367 4.397 0 2.425-1.959 4.397-4.367 4.397-.108 0-.212-.013-.312-.04-.1.027-.204.04-.312.04-6.346 0-11.912-3.425-14.97-8.536v8.536a1.25 1.25 0 0 1-1.248 1.257 1.25 1.25 0 0 1-1.247-1.257V48.998a1.25 1.25 0 0 1 1.247-1.256c.69 0 1.248.562 1.248 1.256 0 8.314 6.715 15.077 14.97 15.077.108 0 .213.013.312.039.1-.026.204-.04.312-.04a1.88 1.88 0 0 0 1.872-1.884 1.88 1.88 0 0 0-1.872-1.885z" fill="#0074E4"/>
        <path d="M56.14 46.486c0-5.542-4.477-10.05-9.98-10.05a1.25 1.25 0 0 1-1.248-1.256 1.25 1.25 0 0 1 1.248-1.256c6.88 0 12.475 5.634 12.475 12.562v2.512a1.25 1.25 0 0 1-1.247 1.257 1.25 1.25 0 0 1-1.248-1.257v-2.512z" fill="#0074E4"/>
        <path d="M51.15 67.844a1.25 1.25 0 0 1-1.247-1.257V48.998a1.25 1.25 0 0 1 1.247-1.256c.69 0 1.248.562 1.248 1.256v17.59a1.25 1.25 0 0 1-1.248 1.256z" fill="#116FFF"/>
        <path d="M67.992 66.587h-.624a1.25 1.25 0 0 1-1.247-1.256 1.25 1.25 0 0 1 1.247-1.256h.624c.69 0 1.248.561 1.248 1.256a1.25 1.25 0 0 1-1.248 1.256z" fill="#116FFF"/>
        <path d="M42.417 38.947c-.319 0-.639-.122-.882-.368a1.26 1.26 0 0 1 0-1.776l2.495-2.512a1.24 1.24 0 0 1 1.764 0 1.26 1.26 0 0 1 0 1.776L43.3 38.579a1.238 1.238 0 0 1-.882.368z" fill="#0074E4"/>
        <path d="M42.416 38.947c-.187 0-.378-.042-.556-.131l-2.495-1.257a1.26 1.26 0 0 1-.558-1.686c.31-.62 1.059-.869 1.674-.56l2.495 1.256a1.26 1.26 0 0 1 .558 1.685c-.22.44-.66.693-1.118.693z" fill="#0074E4"/>
        <path d="M37.428 38.947c-.458 0-.898-.253-1.118-.694a1.26 1.26 0 0 1 .558-1.686l2.495-1.256a1.247 1.247 0 0 1 1.674.561 1.26 1.26 0 0 1-.558 1.686l-2.495 1.256c-.178.091-.369.133-.556.133z" fill="#0074E4"/>
        <path d="M37.427 38.947c-.32 0-.64-.122-.882-.368l-2.495-2.512a1.26 1.26 0 0 1 0-1.776 1.24 1.24 0 0 1 1.764 0l2.495 2.512a1.26 1.26 0 0 1 0 1.776 1.238 1.238 0 0 1-.882.368z" fill="#0074E4"/>
        <path d="M34.932 36.435a1.25 1.25 0 0 1-1.248-1.257V31.49a1.25 1.25 0 0 1 1.248-1.256c.69 0 1.247.561 1.247 1.256v3.69a1.25 1.25 0 0 1-1.247 1.256z" fill="#0074E4"/>
        <path d="M44.912 36.435a1.25 1.25 0 0 1-1.247-1.257V31.49a1.25 1.25 0 0 1 1.247-1.256c.69 0 1.248.561 1.248 1.256v3.69a1.25 1.25 0 0 1-1.248 1.256z" fill="#0074E4"/>
        <path d="M58.567 33.924l.068-.002c4.129 0 7.486-3.38 7.486-7.538 0-.108.013-.214.039-.314-.026-.1-.04-.206-.04-.314 0-2.425 1.96-4.397 4.367-4.397 2.408 0 4.367 1.972 4.367 4.397 0 .108-.014.214-.04.314.026.1.04.206.04.314 0 9.006-7.276 16.333-16.219 16.333a1.25 1.25 0 0 1-1.247-1.257 1.25 1.25 0 0 1 1.247-1.256c7.567 0 13.724-6.2 13.724-13.82 0-.108.013-.214.039-.314-.026-.1-.04-.206-.04-.314a1.88 1.88 0 0 0-1.87-1.885 1.88 1.88 0 0 0-1.872 1.885c0 .108-.014.214-.04.314.026.1.04.206.04.314 0 5.517-4.438 10.01-9.908 10.05a1.263 1.263 0 0 1-.073.003H44.912a1.25 1.25 0 0 1-1.247-1.257 1.25 1.25 0 0 1 1.247-1.256h13.655z" fill="#0074E4"/>
        <path d="M73.606 27.64a1.25 1.25 0 0 1-1.247-1.256v-.628a1.25 1.25 0 0 1 1.247-1.257c.69 0 1.248.562 1.248 1.257v.628a1.25 1.25 0 0 1-1.248 1.256z" fill="#116FFF"/>
        <path d="M67.368 27.64a1.25 1.25 0 0 1-1.247-1.256v-.628a1.25 1.25 0 0 1 1.247-1.257c.69 0 1.248.562 1.248 1.257v.628a1.25 1.25 0 0 1-1.248 1.256z" fill="#116FFF"/>
        <path d="M58.635 42.717h-2.414a1.25 1.25 0 0 1-1.247-1.257c0-.694.558-1.256 1.247-1.256h2.414c.69 0 1.248.562 1.248 1.256a1.25 1.25 0 0 1-1.248 1.257z" fill="#116FFF"/>
        <path d="M21.136 36.435c-5.47-.04-9.908-4.534-9.908-10.051 0-.108.014-.214.04-.314-.026-.1-.04-.206-.04-.314a1.88 1.88 0 0 0-1.871-1.885 1.88 1.88 0 0 0-1.872 1.885c0 .108-.013.214-.039.314.026.1.04.206.04.314 0 7.62 6.156 13.82 13.723 13.82.69 0 1.247.562 1.247 1.256a1.25 1.25 0 0 1-1.247 1.257c-8.943 0-16.219-7.327-16.219-16.333 0-.108.014-.214.04-.314-.026-.1-.04-.206-.04-.314 0-2.425 1.959-4.397 4.367-4.397s4.366 1.972 4.366 4.397c0 .108-.013.214-.039.314.026.1.04.206.04.314 0 4.157 3.356 7.538 7.485 7.538.022 0 .045 0 .068.002h13.655c.69 0 1.247.561 1.247 1.256a1.25 1.25 0 0 1-1.247 1.257H21.209l-.073-.002z" fill="#0074E4"/>
        <path d="M6.238 27.64a1.25 1.25 0 0 1-1.248-1.256v-.628a1.25 1.25 0 0 1 1.248-1.257c.69 0 1.247.562 1.247 1.257v.628a1.25 1.25 0 0 1-1.247 1.256z" fill="#116FFF"/>
        <path d="M12.476 27.64a1.25 1.25 0 0 1-1.248-1.256v-.628a1.25 1.25 0 0 1 1.248-1.257c.69 0 1.247.562 1.247 1.257v.628a1.25 1.25 0 0 1-1.247 1.256z" fill="#116FFF"/>
        <path d="M23.623 42.717h-2.414a1.25 1.25 0 0 1-1.248-1.257 1.25 1.25 0 0 1 1.248-1.256h2.414c.69 0 1.247.562 1.247 1.256 0 .695-.559 1.257-1.247 1.257z" fill="#116FFF"/>
        <path d="M12.476 56.536H4.99a1.25 1.25 0 0 1-1.247-1.256V45.23a1.25 1.25 0 0 1 1.247-1.257h7.486c.69 0 1.247.562 1.247 1.256V55.28a1.25 1.25 0 0 1-1.247 1.256zm-6.238-2.512h4.99v-7.538h-4.99v7.538z" fill="#0074E4"/>
        <path d="M73.606 56.536h-7.485a1.25 1.25 0 0 1-1.248-1.256V43.973a1.25 1.25 0 0 1 1.248-1.256h7.485c.69 0 1.248.561 1.248 1.256V55.28a1.25 1.25 0 0 1-1.248 1.256zm-6.238-2.512h4.99v-8.795h-4.99v8.795z" fill="#0074E4"/>
        <path d="M16.218 54.024h-3.742a1.25 1.25 0 0 1-1.248-1.257v-5.023a1.25 1.25 0 0 1 1.248-1.257h3.742c.69 0 1.248.562 1.248 1.257v5.023a1.25 1.25 0 0 1-1.248 1.257zm-2.495-2.513h1.248v-2.51h-1.248v2.51z" fill="#0074E4"/>
        <path d="M16.218 20.102H1.248A1.25 1.25 0 0 1 0 18.846V1.257A1.25 1.25 0 0 1 1.248.001h14.97c.69 0 1.248.562 1.248 1.256v17.589a1.25 1.25 0 0 1-1.248 1.256zM2.495 17.59h12.476V2.513H2.495V17.59z" fill="#0074E4"/>
        <path d="M6.239 6.282c-.403 0-.8-.195-1.04-.558L2.706 1.956A1.26 1.26 0 0 1 3.05.213a1.242 1.242 0 0 1 1.73.348L7.277 4.33a1.26 1.26 0 0 1-.346 1.742 1.243 1.243 0 0 1-.691.211z" fill="#0074E4"/>
        <path d="M11.228 6.282h-4.99A1.25 1.25 0 0 1 4.99 5.026 1.25 1.25 0 0 1 6.238 3.77h4.99c.69 0 1.248.562 1.248 1.256a1.25 1.25 0 0 1-1.248 1.256z" fill="#0074E4"/>
        <path d="M11.227 6.282c-.237 0-.478-.068-.692-.21a1.26 1.26 0 0 1-.345-1.743L12.685.56a1.242 1.242 0 0 1 1.73-.348 1.26 1.26 0 0 1 .346 1.742l-2.495 3.77c-.24.363-.636.558-1.04.558z" fill="#0074E4"/>
        <path d="M11.228 11.308h-4.99A1.25 1.25 0 0 1 4.99 10.05a1.25 1.25 0 0 1 1.248-1.256h4.99c.69 0 1.248.562 1.248 1.256a1.25 1.25 0 0 1-1.248 1.257z" fill="#0074E4"/>
        <path d="M11.228 15.077h-4.99A1.25 1.25 0 0 1 4.99 13.82a1.25 1.25 0 0 1 1.248-1.256h4.99c.69 0 1.248.562 1.248 1.256a1.25 1.25 0 0 1-1.248 1.257z" fill="#0074E4"/>
        <path d="M78.596 17.59H61.131a1.25 1.25 0 0 1-1.248-1.257V5.026a1.25 1.25 0 0 1 1.248-1.256h17.465c.69 0 1.248.562 1.248 1.256v11.307a1.25 1.25 0 0 1-1.248 1.257zm-16.218-2.513h14.97V6.282h-14.97v8.795z" fill="#0074E4"/>
        <path d="M69.864 13.82c-.287 0-.577-.098-.811-.302L60.32 5.98a1.258 1.258 0 0 1-.135-1.77 1.238 1.238 0 0 1 1.758-.136l8.733 7.538c.523.45.585 1.244.134 1.77-.245.29-.596.438-.946.438z" fill="#0074E4"/>
        <path d="M69.864 13.82c-.35 0-.702-.147-.947-.439a1.26 1.26 0 0 1 .135-1.77l8.732-7.538a1.24 1.24 0 0 1 1.76.137c.449.526.388 1.319-.135 1.77l-8.733 7.538a1.238 1.238 0 0 1-.812.302z" fill="#0074E4"/>
        <path d="M78.596 17.59c-.286 0-.576-.1-.81-.303l-6.545-5.65a1.258 1.258 0 0 1-.135-1.77 1.237 1.237 0 0 1 1.758-.136l6.545 5.65c.523.451.585 1.244.134 1.77-.245.29-.596.439-.947.439z" fill="#0074E4"/>
        <path d="M61.13 17.59a1.26 1.26 0 0 1-.812-2.21l6.55-5.654a1.24 1.24 0 0 1 1.758.136c.45.526.389 1.32-.135 1.77l-6.55 5.654a1.227 1.227 0 0 1-.81.304z" fill="#0074E4"/>
        <path d="M31.725 12.79a1.238 1.238 0 0 1 1.105-.163c.036.014 3.628 1.193 7.716 1.193 3.75 0 6.03-.997 6.287-1.115.392-.204.88-.191 1.272.073l3.743 2.544c.571.39.72 1.17.336 1.745a1.244 1.244 0 0 1-1.733.34l-3.187-2.167c-1.092.407-3.418 1.093-6.718 1.093-3.52 0-6.632-.772-7.9-1.136l-3.253 2.21a1.249 1.249 0 0 1-1.733-.338 1.263 1.263 0 0 1 .336-1.746l3.729-2.534z" fill="#0074E4"/>
    </g>
</svg>
