<svg width="80" height="80" viewBox="0 0 80 80" xmlns="http://www.w3.org/2000/svg">
    <title>
        ic / result
    </title>
    <g fill-rule="nonzero" fill="none">
        <path fill="#D7E9FF" d="M61.688 11.894l9.337-9.337V8.78l-9.337 9.337z"/>
        <path fill="#D7E9FF" d="M61.688 18.118l9.337-9.337h6.224l-9.336 9.337z"/>
        <path d="M39.903 44.572a4.662 4.662 0 0 1-4.669 4.668 4.663 4.663 0 0 1-4.668-4.668 4.672 4.672 0 0 1 4.668-4.668c1.292 0 2.46.528 3.3 1.369.84.855 1.369 2.007 1.369 3.299z" fill="#94C1FF"/>
        <path d="M38.534 41.273a4.657 4.657 0 0 0-3.3-1.37 4.672 4.672 0 0 0-4.668 4.669 4.663 4.663 0 0 0 4.668 4.668 4.662 4.662 0 0 0 4.669-4.668c0-1.292-.53-2.444-1.37-3.3zm6.598-6.599a13.935 13.935 0 0 1 4.107 9.898c0 7.733-6.27 14.005-14.005 14.005-7.733 0-14.005-6.272-14.005-14.005 0-7.734 6.272-14.005 14.005-14.005 3.86 0 7.377 1.571 9.898 4.107z" fill="#D7E9FF"/>
        <path d="M45.132 34.674a13.936 13.936 0 0 0-9.898-4.107c-7.733 0-14.005 6.27-14.005 14.005 0 7.733 6.272 14.005 14.005 14.005 7.735 0 14.005-6.272 14.005-14.005 0-3.875-1.57-7.361-4.107-9.898zm6.597-6.597c4.233 4.232 6.847 10.052 6.847 16.495 0 12.9-10.457 23.341-23.342 23.341-12.884 0-23.341-10.442-23.341-23.341 0-12.885 10.457-23.342 23.341-23.342a23.183 23.183 0 0 1 16.495 6.847z" fill="#94C1FF"/>
        <path d="M51.73 28.077a23.183 23.183 0 0 0-16.496-6.847c-12.884 0-23.341 10.457-23.341 23.342 0 12.9 10.457 23.341 23.341 23.341 12.885 0 23.342-10.442 23.342-23.341 0-6.443-2.614-12.263-6.847-16.495zm6.613-6.614c5.913 5.913 9.57 14.083 9.57 23.109 0 14.222-9.088 26.33-21.786 30.826a32.739 32.739 0 0 1-10.893 1.852c-3.828 0-7.485-.654-10.892-1.852C11.644 70.9 2.556 58.794 2.556 44.572c0-18.051 14.627-32.678 32.678-32.678 9.026 0 17.196 3.656 23.109 9.57z" fill="#D7E9FF"/>
        <g fill="#0074E4">
            <path d="M35.234 78.806C16.357 78.806 1 63.45 1 44.572c0-18.878 15.357-34.235 34.234-34.235 18.878 0 34.235 15.357 34.235 34.235 0 18.877-15.357 34.234-34.235 34.234zm0-65.356c-17.16 0-31.122 13.96-31.122 31.122 0 17.16 13.962 31.122 31.122 31.122 17.162 0 31.123-13.962 31.123-31.122 0-17.161-13.961-31.122-31.123-31.122z"/>
            <path d="M35.234 69.47c-13.727 0-24.897-11.17-24.897-24.898 0-13.729 11.17-24.898 24.897-24.898 13.729 0 24.898 11.17 24.898 24.898 0 13.727-11.17 24.898-24.898 24.898zm0-46.684c-12.012 0-21.785 9.772-21.785 21.786 0 12.013 9.773 21.785 21.785 21.785 12.014 0 21.786-9.772 21.786-21.785 0-12.014-9.772-21.786-21.786-21.786z"/>
            <path d="M35.234 60.133c-8.58 0-15.56-6.981-15.56-15.561s6.98-15.561 15.56-15.561c8.581 0 15.562 6.98 15.562 15.56s-6.98 15.562-15.562 15.562zm0-28.01c-6.863 0-12.448 5.585-12.448 12.449 0 6.863 5.585 12.449 12.448 12.449 6.865 0 12.45-5.586 12.45-12.45 0-6.863-5.585-12.448-12.45-12.448z"/>
            <path d="M35.234 50.796a6.231 6.231 0 0 1-6.224-6.224 6.23 6.23 0 0 1 6.224-6.225 6.23 6.23 0 0 1 6.225 6.225 6.231 6.231 0 0 1-6.225 6.224zm0-9.336a3.115 3.115 0 0 0-3.112 3.112 3.116 3.116 0 0 0 3.112 3.112 3.116 3.116 0 0 0 3.113-3.112 3.115 3.115 0 0 0-3.113-3.112z"/>
            <path d="M35.234 46.128a1.555 1.555 0 0 1-1.1-2.656L73.04 4.569a1.554 1.554 0 0 1 2.2 0 1.553 1.553 0 0 1 0 2.2L36.335 45.67a1.55 1.55 0 0 1-1.1.457z"/>
            <path d="M67.913 19.674a1.555 1.555 0 0 1-1.1-2.656l9.336-9.337a1.554 1.554 0 0 1 2.2 0 1.553 1.553 0 0 1 0 2.2l-9.336 9.336a1.55 1.55 0 0 1-1.1.457z"/>
            <path d="M61.688 19.676a1.556 1.556 0 0 1 0-3.113l6.225-.001a1.555 1.555 0 1 1 0 3.112l-6.225.002z"/>
            <path d="M77.25 10.337h-6.225a1.555 1.555 0 1 1 0-3.112h6.224c.861 0 1.556.695 1.556 1.556 0 .86-.695 1.556-1.556 1.556z"/>
            <path d="M61.69 13.447a1.555 1.555 0 0 1-1.1-2.656l9.335-9.334a1.554 1.554 0 0 1 2.2 0 1.553 1.553 0 0 1 0 2.2L62.79 12.99a1.548 1.548 0 0 1-1.1.456z"/>
            <path d="M61.687 19.674c-.86 0-1.556-.697-1.556-1.558l.003-6.225a1.556 1.556 0 0 1 3.112 0l-.003 6.228c0 .86-.697 1.555-1.556 1.555z"/>
            <path d="M71.026 10.337a1.556 1.556 0 0 1-1.556-1.556l-.001-6.224a1.556 1.556 0 1 1 3.112 0l.002 6.224c0 .859-.696 1.556-1.557 1.556z"/>
        </g>
    </g>
</svg>
