<svg width="60" height="80" viewBox="0 0 60 80" xmlns="http://www.w3.org/2000/svg">
    <title>
        ic / shield
    </title>
    <g fill-rule="nonzero" fill="none">
        <path d="M37.5 30.762c7.174 4.138 9.625 13.312 5.487 20.488-4.137 7.175-13.312 9.625-20.487 5.489-7.175-4.139-9.625-13.314-5.489-20.489 4.139-7.175 13.314-9.625 20.489-5.488z" fill="#D7E9FF"/>
        <g fill="#94C1FF">
            <path d="M37.5 30.762a14.956 14.956 0 0 0-10.036-1.79c1.726.285 3.431.864 5.036 1.79 7.174 4.138 9.625 13.312 5.488 20.488-2.317 4.017-6.213 6.55-10.452 7.279 5.991.996 12.239-1.708 15.451-7.279 4.138-7.175 1.687-16.35-5.487-20.488z"/>
            <path d="M52.5 20v30c0 11.025-8.976 20-20 20h-5c-11.025 0-20-8.975-20-20V20h10c4.8 0 9.175-1.837 12.5-4.813C33.325 18.163 37.7 20 42.5 20h10zm-9.513 31.25c4.14-7.175 1.688-16.35-5.487-20.488-7.175-4.137-16.35-1.687-20.489 5.488-4.136 7.175-1.686 16.35 5.489 20.489 7.174 4.136 16.35 1.686 20.487-5.489z"/>
        </g>
        <path d="M47.5 20v30c0 11.025-8.976 20-20 20h5c11.024 0 20-8.975 20-20V20h-5z" fill="#5C9EFF"/>
        <path d="M58.75 8.75V50c0 14.513-11.739 26.25-26.25 26.25a2.492 2.492 0 0 0-2.5 2.5c0-1.375-1.125-2.5-2.5-2.5C12.988 76.25 1.25 64.513 1.25 50V8.75c0 2.762 2.238 5 5 5H17.5A12.49 12.49 0 0 0 30 1.25c0 6.912 5.587 12.5 12.5 12.5h11.25c2.763 0 5-2.238 5-5zM52.5 50V20h-10c-4.8 0-9.175-1.837-12.5-4.813C26.675 18.163 22.3 20 17.5 20h-10v30c0 11.025 8.975 20 20 20h5c11.024 0 20-8.975 20-20z" fill="#D7E9FF"/>
        <path d="M53.75 13.75V50c0 14.513-9.516 22.828-21.25 26.25 14.511 0 26.25-11.737 26.25-26.25V8.75c0 2.762-2.237 5-5 5z" fill="#94C1FF"/>
        <path d="M30 75.957A3.736 3.736 0 0 1 32.498 75l.002 2.5a1.249 1.249 0 1 1-.002-2.5h.003c13.784 0 24.999-11.215 24.999-25V13.747A6.218 6.218 0 0 1 53.75 15H42.5c-5.539 0-10.324-3.293-12.5-8.024C27.824 11.707 23.039 15 17.5 15H6.25a6.218 6.218 0 0 1-3.75-1.253v36.252c0 13.785 11.215 25 25 25a3.735 3.735 0 0 1 2.5.959zm1.25 2.793a1.249 1.249 0 1 1-2.5 0c0-.69-.56-1.25-1.25-1.25l-.058-.001C12.305 77.467 0 65.143 0 49.999V8.75a1.249 1.249 0 1 1 2.5 0 3.755 3.755 0 0 0 3.75 3.75H17.5c6.204 0 11.25-5.046 11.25-11.25a1.249 1.249 0 1 1 2.5 0c0 6.204 5.046 11.25 11.25 11.25h11.25a3.755 3.755 0 0 0 3.75-3.75 1.246 1.246 0 0 1 1.25-1.25c.691 0 1.25.559 1.25 1.25v41.249c0 15.163-12.336 27.5-27.5 27.5-.69 0-1.25.561-1.25 1.251z" fill="#0074E4"/>
        <path d="M32.5 71.25h-5c-11.717 0-21.25-9.534-21.25-21.251V20c0-.691.559-1.25 1.25-1.25h10c4.295 0 8.436-1.596 11.665-4.495a1.248 1.248 0 0 1 1.67 0c3.229 2.899 7.37 4.495 11.665 4.495h10c.691 0 1.25.559 1.25 1.25v29.999c0 11.717-9.532 21.251-21.25 21.251zm-23.75-50v28.749c0 10.34 8.411 18.751 18.75 18.751h5c10.339 0 18.75-8.411 18.75-18.751V21.25H42.5A19.922 19.922 0 0 1 30 16.826a19.922 19.922 0 0 1-12.5 4.424H8.75z" fill="#0074E4"/>
        <path d="M29.99 60a16.25 16.25 0 0 1-8.114-2.181 16.129 16.129 0 0 1-7.57-9.864 16.139 16.139 0 0 1 1.625-12.329A16.299 16.299 0 0 1 30.013 27.5c2.837 0 5.642.755 8.11 2.18a16.138 16.138 0 0 1 7.572 9.865 16.133 16.133 0 0 1-1.625 12.329A16.297 16.297 0 0 1 29.99 60zm.023-30a13.787 13.787 0 0 0-11.916 6.876 13.662 13.662 0 0 0-1.376 10.433 13.641 13.641 0 0 0 6.405 8.345A13.75 13.75 0 0 0 29.99 57.5c4.902 0 9.468-2.635 11.914-6.876A13.662 13.662 0 0 0 43.28 40.19a13.647 13.647 0 0 0-6.406-8.346A13.752 13.752 0 0 0 30.012 30z" fill="#116FFF"/>
    </g>
</svg>
