<svg width="80" height="80" viewBox="0 0 80 80" xmlns="http://www.w3.org/2000/svg">
    <title>
        ic / Specialization
    </title>
    <g fill-rule="nonzero" fill="none">
        <path d="M67.589 39.923c0 15.157-12.367 27.446-27.623 27.446S12.342 55.08 12.342 39.923c0-15.159 12.368-27.447 27.624-27.447 15.256 0 27.623 12.288 27.623 27.447z" fill="#D7E9FF"/>
        <path d="M39.966 12.476c-.848 0-1.684.043-2.512.118 14.08 1.26 25.113 13.012 25.113 27.329 0 14.316-11.034 26.067-25.113 27.327.828.075 1.664.119 2.512.119 15.255 0 27.623-12.289 27.623-27.446 0-15.159-12.368-27.447-27.623-27.447z" fill="#94C1FF"/>
        <path d="M51.266 32.437v3.78L47.5 33.685s-2.51 1.247-6.906 1.247c-4.381 0-8.161-1.247-8.161-1.247l-3.767 2.532v-3.78c0-5.514 4.495-9.98 10.045-9.98h7.534v4.99c2.775 0 5.022 2.233 5.022 4.99z" fill="#94C1FF"/>
        <path d="M46.244 27.447v-4.99H41.22v7.485c2.775 0 5.023.985 5.023 3.743v.461a10.06 10.06 0 0 0 1.255-.461l3.767 2.532v-3.78c0-2.757-2.247-4.99-5.022-4.99z" fill="#5C9EFF"/>
        <path d="M51.266 36.217v3.706c0 4.403-2.561 8.22-6.278 10.054a11.263 11.263 0 0 1-5.022 1.174c-1.808 0-3.516-.425-5.023-1.174-3.703-1.82-6.253-5.614-6.278-9.992v-3.768l3.767-2.532s3.78 1.247 8.161 1.247c4.395 0 6.906-1.247 6.906-1.247l3.767 2.532z" fill="#D7E9FF"/>
        <path d="M47.5 33.685s-.448.213-1.256.461v5.777c0 4.403-2.562 8.22-6.278 10.054-.788.39-1.63.69-2.512.89.808.181 1.648.284 2.512.284 1.808 0 3.516-.425 5.022-1.174 3.717-1.833 6.278-5.65 6.278-10.054v-3.706L47.5 33.685z" fill="#94C1FF"/>
        <path d="M39.966 51.15c1.808 0 3.516-.424 5.022-1.173v4.916l-2.511 1.248-2.511-1.248-2.512 1.248-2.51-1.248v-4.916a11.265 11.265 0 0 0 5.022 1.174z" fill="#FFF"/>
        <path d="M42.477 56.141l2.511-1.248h3.767c3.478 0 6.278 2.795 6.278 6.238v1.797a27.644 27.644 0 0 1-15.067 4.441 27.615 27.615 0 0 1-15.068-4.441V61.13c0-3.443 2.813-6.238 6.278-6.238h3.767l2.511 1.248 2.512-1.248 2.51 1.248z" fill="#94C1FF"/>
        <path d="M48.755 54.893h-3.767l-.21.105c2.974.495 5.233 3.044 5.233 6.133v4.358a27.634 27.634 0 0 0 5.022-2.561V61.13c0-3.443-2.8-6.238-6.278-6.238z" fill="#5C9EFF"/>
        <path d="M24.897 62.379a1.25 1.25 0 0 1-1.255-1.248c0-4.128 3.378-7.485 7.533-7.485a1.25 1.25 0 0 1 1.256 1.247 1.25 1.25 0 0 1-1.256 1.248c-2.77 0-5.022 2.238-5.022 4.99a1.25 1.25 0 0 1-1.256 1.248z" fill="#0074E4"/>
        <path d="M34.942 56.141h-3.767a1.25 1.25 0 0 1-1.255-1.248c0-.69.561-1.247 1.255-1.247h3.767a1.25 1.25 0 0 1 1.256 1.247 1.25 1.25 0 0 1-1.256 1.248z" fill="#0074E4"/>
        <path d="M24.897 64.175a1.25 1.25 0 0 1-1.255-1.247V61.13c0-.69.561-1.247 1.255-1.247a1.25 1.25 0 0 1 1.256 1.247v1.797a1.25 1.25 0 0 1-1.256 1.247z" fill="#116FFF"/>
        <path d="M55.032 62.379a1.25 1.25 0 0 1-1.256-1.248c0-2.752-2.252-4.99-5.022-4.99a1.25 1.25 0 0 1-1.256-1.248c0-.69.562-1.247 1.256-1.247 4.155 0 7.533 3.357 7.533 7.485a1.25 1.25 0 0 1-1.255 1.248z" fill="#0074E4"/>
        <path d="M48.754 56.141h-3.767a1.25 1.25 0 0 1-1.256-1.248c0-.69.562-1.247 1.256-1.247h3.767a1.25 1.25 0 0 1 1.255 1.247 1.25 1.25 0 0 1-1.255 1.248z" fill="#0074E4"/>
        <path d="M55.032 64.175a1.25 1.25 0 0 1-1.256-1.247V61.13c0-.69.562-1.247 1.256-1.247a1.25 1.25 0 0 1 1.255 1.247v1.797a1.25 1.25 0 0 1-1.255 1.247z" fill="#116FFF"/>
        <path d="M34.942 56.141a1.25 1.25 0 0 1-1.256-1.248v-4.91c0-.69.562-1.248 1.256-1.248a1.25 1.25 0 0 1 1.256 1.248v4.91a1.25 1.25 0 0 1-1.256 1.248z" fill="#0074E4"/>
        <path d="M44.987 56.141a1.25 1.25 0 0 1-1.256-1.248v-4.91c0-.69.562-1.248 1.256-1.248a1.25 1.25 0 0 1 1.255 1.248v4.91a1.25 1.25 0 0 1-1.255 1.248z" fill="#0074E4"/>
        <path d="M46.242 23.704H38.71c-.694 0-1.256-.559-1.256-1.247 0-.69.562-1.248 1.256-1.248h7.533a1.25 1.25 0 0 1 1.256 1.248c0 .688-.56 1.247-1.256 1.247z" fill="#0074E4"/>
        <path d="M39.963 52.398c-6.923 0-12.555-5.595-12.555-12.473 0-.689.562-1.247 1.256-1.247a1.25 1.25 0 0 1 1.256 1.247c0 5.501 4.505 9.978 10.043 9.978 5.54 0 10.046-4.477 10.046-9.978 0-.689.562-1.247 1.256-1.247a1.25 1.25 0 0 1 1.255 1.247c0 6.878-5.632 12.473-12.557 12.473z" fill="#0074E4"/>
        <path d="M28.664 41.234c-.694 0-1.256-.56-1.256-1.248v-7.549c0-.689.562-1.247 1.256-1.247a1.25 1.25 0 0 1 1.256 1.247v7.549c0 .688-.561 1.248-1.256 1.248z" fill="#0074E4"/>
        <path d="M51.265 41.173c-.694 0-1.256-.56-1.256-1.248v-7.488c0-.689.562-1.247 1.256-1.247a1.25 1.25 0 0 1 1.255 1.247v7.488c0 .688-.56 1.248-1.255 1.248z" fill="#0074E4"/>
        <path d="M51.265 33.683a1.251 1.251 0 0 1-1.256-1.248c0-2.063-1.69-3.74-3.767-3.74-.694 0-1.255-.56-1.255-1.248 0-.689.561-1.248 1.255-1.248 3.463 0 6.278 2.798 6.278 6.236a1.25 1.25 0 0 1-1.255 1.248z" fill="#0074E4"/>
        <path d="M46.242 28.695c-.694 0-1.255-.56-1.255-1.248v-4.99c0-.69.561-1.248 1.255-1.248a1.25 1.25 0 0 1 1.256 1.248v4.99c0 .688-.56 1.248-1.256 1.248z" fill="#0074E4"/>
        <path d="M28.664 33.685c-.694 0-1.256-.56-1.256-1.248 0-6.19 5.07-11.228 11.3-11.228a1.25 1.25 0 0 1 1.256 1.248c0 .688-.56 1.247-1.255 1.247-4.845 0-8.79 3.917-8.79 8.733 0 .689-.56 1.248-1.255 1.248z" fill="#0074E4"/>
        <path d="M51.264 37.459c-.241 0-.486-.07-.702-.214l-3.767-2.526a1.243 1.243 0 0 1-.34-1.732 1.26 1.26 0 0 1 1.745-.335l3.767 2.526c.575.385.726 1.162.339 1.732a1.258 1.258 0 0 1-1.042.549z" fill="#0074E4"/>
        <path d="M40.592 36.18c-4.535 0-8.396-1.258-8.557-1.312a1.246 1.246 0 0 1-.795-1.575 1.254 1.254 0 0 1 1.586-.792c.037.012 3.652 1.184 7.766 1.184 3.99 0 6.329-1.108 6.352-1.12.62-.3 1.374-.047 1.68.57a1.24 1.24 0 0 1-.564 1.666c-.116.056-2.84 1.379-7.468 1.379z" fill="#0074E4"/>
        <path d="M28.665 37.459c-.403 0-.8-.193-1.042-.55a1.243 1.243 0 0 1 .339-1.731l3.767-2.526a1.26 1.26 0 0 1 1.744.335 1.241 1.241 0 0 1-.339 1.732l-3.767 2.526a1.26 1.26 0 0 1-.702.214z" fill="#0074E4"/>
        <path d="M37.452 57.389c-.188 0-.38-.043-.56-.132l-2.511-1.248a1.244 1.244 0 0 1-.562-1.674 1.264 1.264 0 0 1 1.686-.557l2.511 1.248c.62.307.871 1.057.561 1.674-.22.436-.664.689-1.125.689z" fill="#0074E4"/>
        <path d="M37.454 57.389c-.46 0-.903-.253-1.125-.69a1.244 1.244 0 0 1 .562-1.675l2.511-1.247a1.262 1.262 0 0 1 1.685.557c.31.617.059 1.367-.561 1.674l-2.511 1.248c-.18.09-.372.133-.56.133z" fill="#0074E4"/>
        <path d="M42.477 57.389c-.46 0-.904-.253-1.125-.69a1.244 1.244 0 0 1 .561-1.675l2.512-1.247a1.263 1.263 0 0 1 1.684.557c.31.617.06 1.367-.56 1.674l-2.512 1.248c-.18.09-.372.133-.56.133z" fill="#0074E4"/>
        <path d="M42.474 57.389c-.188 0-.38-.043-.56-.132l-2.51-1.248a1.244 1.244 0 0 1-.562-1.674 1.263 1.263 0 0 1 1.685-.557l2.511 1.248c.62.307.872 1.057.561 1.674-.22.436-.664.689-1.125.689z" fill="#0074E4"/>
        <path d="M39.964 68.617c-15.925 0-28.878-12.872-28.878-28.694s12.953-28.694 28.878-28.694 28.88 12.872 28.88 28.694-12.955 28.694-28.88 28.694zm0-54.893c-14.538 0-26.367 11.752-26.367 26.199 0 14.445 11.829 26.198 26.367 26.198 14.54 0 26.368-11.753 26.368-26.198 0-14.447-11.829-26.2-26.368-26.2z" fill="#0074E4"/>
        <path d="M39.964 79.845a1.25 1.25 0 0 1-1.255-1.248V67.37c0-.69.561-1.248 1.255-1.248a1.25 1.25 0 0 1 1.256 1.248v11.228a1.25 1.25 0 0 1-1.256 1.248z" fill="#0074E4"/>
        <path d="M39.964 79.845c-.32 0-.642-.123-.887-.366a1.24 1.24 0 0 1 0-1.764l2.51-2.495a1.26 1.26 0 0 1 1.776 0 1.24 1.24 0 0 1 0 1.763l-2.51 2.496a1.254 1.254 0 0 1-.889.366z" fill="#0074E4"/>
        <path d="M39.964 79.845c-.32 0-.642-.123-.887-.366l-2.512-2.496a1.24 1.24 0 0 1 0-1.763 1.26 1.26 0 0 1 1.776 0l2.511 2.495a1.24 1.24 0 0 1 0 1.764 1.254 1.254 0 0 1-.888.366z" fill="#0074E4"/>
        <path d="M39.964 13.724c-.694 0-1.255-.56-1.255-1.248V1.248c0-.689.561-1.247 1.255-1.247a1.25 1.25 0 0 1 1.256 1.247v11.228c0 .689-.56 1.248-1.256 1.248z" fill="#0074E4"/>
        <path d="M39.964 3.012l.888-.882a1.24 1.24 0 0 0 .001-1.763l2.51 2.494a1.24 1.24 0 0 1 0 1.764 1.256 1.256 0 0 1-1.776 0l-1.623-1.613-1.623 1.613a1.256 1.256 0 0 1-1.776 0 1.24 1.24 0 0 1 0-1.764L39.077.366a1.26 1.26 0 0 1 1.775 0z" fill="#0074E4"/>
        <path d="M73.674 60.507c-.213 0-.43-.054-.627-.167l-9.787-5.614a1.241 1.241 0 0 1-.46-1.704 1.26 1.26 0 0 1 1.716-.457l9.787 5.614c.601.344.807 1.108.46 1.705a1.26 1.26 0 0 1-1.09.623z" fill="#0074E4"/>
        <path d="M72.137 58.377l-.594-2.203c-.18-.665.219-1.35.888-1.528.67-.18 1.357.216 1.538.882l.919 3.408a1.247 1.247 0 0 1-.912 1.535l-3.407.907a1.255 1.255 0 0 1-1.538-.882c-.182-.665.218-1.35.887-1.529l2.219-.59z" fill="#0074E4"/>
        <path d="M16.042 27.447c-.214 0-.43-.054-.627-.168L5.63 21.665a1.244 1.244 0 0 1-.46-1.703 1.259 1.259 0 0 1 1.716-.457l9.786 5.614c.601.344.807 1.108.459 1.704-.232.4-.654.624-1.088.624z" fill="#0074E4"/>
        <path d="M7.175 25.241a1.256 1.256 0 0 1-1.212-.926l-.918-3.408c-.18-.666.219-1.35.888-1.528a1.257 1.257 0 0 1 1.538.882l.918 3.408c.18.666-.219 1.35-.888 1.528-.11.03-.218.044-.326.044z" fill="#0074E4"/>
        <path d="M6.256 21.833a1.248 1.248 0 0 1-.324-2.454l3.428-.913a1.248 1.248 0 1 1 .65 2.41l-3.428.913c-.11.03-.218.044-.326.044z" fill="#0074E4"/>
        <path d="M63.889 27.447c-.435 0-.856-.224-1.089-.624a1.244 1.244 0 0 1 .46-1.704l9.787-5.614a1.26 1.26 0 0 1 1.715.457c.347.597.141 1.36-.46 1.703l-9.786 5.614a1.256 1.256 0 0 1-.627.168z" fill="#0074E4"/>
        <path d="M72.136 21.466l-2.217-.59a1.248 1.248 0 0 1-.887-1.528c.18-.667.869-1.062 1.538-.882l3.43.913a1.247 1.247 0 0 1 .872 1.58l-.903 3.356a1.252 1.252 0 0 1-1.538.882 1.248 1.248 0 0 1-.888-1.528l.593-2.203z" fill="#0074E4"/>
        <path d="M6.258 60.506c-.435 0-.856-.225-1.089-.624a1.243 1.243 0 0 1 .46-1.704l9.787-5.613a1.261 1.261 0 0 1 1.715.457c.347.598.141 1.36-.459 1.704l-9.787 5.613a1.255 1.255 0 0 1-.627.167z" fill="#0074E4"/>
        <path d="M9.69 61.42c-.108 0-.218-.015-.327-.043l-3.43-.913a1.246 1.246 0 0 1-.888-1.529c.18-.666.87-1.06 1.538-.882l3.43.913a1.246 1.246 0 0 1-.323 2.453z" fill="#0074E4"/>
        <path d="M6.258 60.506a1.246 1.246 0 0 1-1.215-1.57l.92-3.408c.18-.666.868-1.06 1.538-.882.67.179 1.068.862.888 1.528l-.92 3.408c-.15.557-.656.924-1.21.924z" fill="#0074E4"/>
    </g>
</svg>
