<?xml version="1.0" encoding="UTF-8"?><!DOCTYPE svg PUBLIC "-//W3C//DTD SVG 1.1//EN" "http://www.w3.org/Graphics/SVG/1.1/DTD/svg11.dtd"><svg xmlns="http://www.w3.org/2000/svg"><symbol id="icon-chevron-down" viewBox="0 0 12 7.4">
    <path d="M1.4 0L6 4.6 10.6 0 12 1.4l-6 6-6-6L1.4 0z"/>
</symbol><symbol id="icon-DibssSolutions_logo" viewBox="0 0 147 49">
    <title>
        DibssSolutions_logo
    </title>
    <g fill-rule="nonzero">
        <path d="M25.187 3.342h-4.201C19.912 3.342 19 2.94 19 1.67 19 .468 19.879 0 20.888 0h5.437c2.539 0 3.809 1.07 4.916 3.342l2.864 5.882c.651 1.37.977 2.339.977 3.876 0 1.337-.358 2.473-.944 3.676l-2.963 6.083C30.036 25.23 28.571 26 26.032 26h-5.404C19.78 26 19 25.532 19 24.329s.781-1.67 1.628-1.67h5.436c1.368 0 1.693-.168 2.28-1.405l2.864-5.948c.358-.769.619-1.337.619-2.172 0-1.137-.359-1.772-.814-2.74L28.31 4.745c-.684-1.438-.977-1.404-2.475-1.404h-.65z"/>
        <path d="M51.898 3.342v19.316h4.786c.846 0 1.627.468 1.627 1.671S57.531 26 56.684 26H43.857c-.846 0-1.627-.468-1.627-1.671s.78-1.67 1.627-1.67h4.786V3.341h-4.786c-.846 0-1.627-.468-1.627-1.671S43.01 0 43.857 0h12.827c.846 0 1.627.468 1.627 1.671s-.78 1.67-1.627 1.67h-4.786z"/>
        <path d="M65.459 26V0h9.115c4.786 0 6.967 3.008 6.967 7.72 0 1.938-.423 3.71-2.149 5.28 1.856 1.805 2.149 3.576 2.149 6.049 0 4.378-2.832 6.951-6.967 6.951H65.46zm3.255-11.329v7.987h5.86c2.344 0 3.712-1.07 3.712-3.61 0-2.806-.75-4.377-3.712-4.377h-5.86zm0-11.33v7.988h5.86c2.344 0 3.712-1.07 3.712-3.61 0-2.806-.75-4.377-3.712-4.377h-5.86z"/>
        <path d="M92.432 4.712l11.2 14.738c.65.869 1.138 1.637 1.138 2.774 0 2.506-1.855 3.776-4.101 3.776h-7.162c-1.237 0-2.312-.234-3.288-1.07-.88-.735-1.53-1.938-1.53-3.107 0-1.07.586-2.006 1.725-2.006.944 0 1.53.803 1.53 1.705 0 1.002.52 1.136 1.432 1.136h7.065c.26 0 1.074.1 1.074-.4 0-.268-.456-.77-.586-.97L89.763 6.55c-.684-.902-1.074-1.57-1.074-2.74 0-1.337.618-2.473 1.725-3.208C91.325 0 92.074 0 93.116 0h6.902c1.237 0 2.278.267 3.222 1.103.847.768 1.53 2.005 1.53 3.175 0 1.069-.52 1.938-1.692 1.938-.977 0-1.563-.635-1.563-1.57 0-1.137-.553-1.304-1.563-1.304h-6.901c-.358 0-1.107-.1-1.107.468 0 .3.358.702.488.902z"/>
        <path d="M115.662 4.712L126.86 19.45c.65.869 1.139 1.637 1.139 2.774 0 2.506-1.856 3.776-4.102 3.776h-7.162c-1.237 0-2.311-.234-3.288-1.07-.879-.735-1.53-1.938-1.53-3.107 0-1.07.586-2.006 1.725-2.006.945 0 1.53.803 1.53 1.705 0 1.002.521 1.136 1.433 1.136h7.064c.26 0 1.075.1 1.075-.4 0-.268-.456-.77-.586-.97L112.992 6.55c-.683-.902-1.074-1.57-1.074-2.74 0-1.337.619-2.473 1.725-3.208.912-.602 1.66-.602 2.702-.602h6.902c1.237 0 2.279.267 3.223 1.103.846.768 1.53 2.005 1.53 3.175 0 1.069-.52 1.938-1.693 1.938-.976 0-1.562-.635-1.562-1.57 0-1.137-.554-1.304-1.563-1.304h-6.902c-.358 0-1.107-.1-1.107.468 0 .3.359.702.489.902z"/>
        <path d="M135.73 18.686l7.91-5.197-7.867-5.153c-.42-.284-.773-.59-.773-1.157.022-.611.53-1.179 1.171-1.179.332 0 .641.153.906.328l9.104 5.982c.487.306.84.568.818 1.18 0 .632-.331.872-.818 1.178l-9.082 5.96c-.265.175-.574.372-.95.372-.619 0-1.149-.59-1.149-1.2.022-.547.287-.83.73-1.114z"/>
        <path d="M11.27 18.686l-7.91-5.197 7.867-5.153c.42-.284.773-.59.773-1.157C11.978 6.568 11.47 6 10.829 6c-.332 0-.641.153-.906.328L.819 12.31c-.487.306-.84.568-.818 1.18 0 .632.331.872.818 1.178l9.082 5.96c.265.175.574.372.95.372.619 0 1.149-.59 1.149-1.2-.022-.547-.287-.83-.73-1.114z"/>
        <path d="M25.622 35.728l-.434.589c-.415-.413-1.283-1.06-2.49-1.06-1.717 0-2.566 1.335-2.566 2.768 0 1.531.981 2.199 2.226 2.65 1.566.57 4.377 1.159 4.377 4.045 0 2.317-1.792 3.809-3.98 3.809-2 0-3.246-1.237-3.755-1.787l.49-.53c.68.746 1.717 1.61 3.208 1.61 1.717 0 3.34-1.178 3.34-3.043 0-2.219-2.265-2.867-3.68-3.318-.943-.295-2.83-.982-2.943-3.24-.094-1.747.906-3.671 3.32-3.671.944 0 1.906.294 2.887 1.178zm4.494 5.792c0-3.888 3.018-7.049 6.735-7.049 3.736 0 6.773 3.161 6.773 7.049 0 3.867-3.037 7.009-6.773 7.009-3.717 0-6.735-3.142-6.735-7.01zm.698 0c0 3.455 2.717 6.282 6.037 6.282s6.075-2.827 6.075-6.282c0-3.456-2.754-6.322-6.075-6.322-3.32 0-6.037 2.866-6.037 6.322zm16.342 6.852V34.628h.698v13.096h7.282v.648h-7.98zm16.285.157c-2.472 0-4.32-1.59-4.32-4.594v-9.307h.697v9.248c0 2.572 1.51 4.005 3.623 4.005 2.094 0 3.641-1.433 3.641-4.005v-9.248h.698v9.307c0 3.003-1.886 4.594-4.34 4.594zm17.21-13.9v.647h-4.868v13.096h-.698V35.276h-4.868v-.648h10.434zm2.512 0h.698v13.743h-.698V34.628zm4.4 6.89c0-3.887 3.018-7.048 6.735-7.048 3.735 0 6.773 3.161 6.773 7.049 0 3.867-3.038 7.009-6.773 7.009-3.717 0-6.736-3.142-6.736-7.01zm.697 0c0 3.456 2.717 6.283 6.038 6.283 3.32 0 6.075-2.827 6.075-6.282 0-3.456-2.755-6.322-6.075-6.322-3.321 0-6.038 2.866-6.038 6.322zm28.04-6.89V49l-10.528-12.703-.359-.51.057.628v11.957h-.698V34l10.527 12.703.359.51-.057-.628V34.628h.698zm10.587 1.099l-.434.589c-.415-.413-1.283-1.06-2.49-1.06-1.717 0-2.566 1.335-2.566 2.768 0 1.531.98 2.199 2.226 2.65 1.566.57 4.377 1.159 4.377 4.045 0 2.317-1.792 3.809-3.98 3.809-2 0-3.246-1.237-3.755-1.787l.49-.53c.68.746 1.717 1.61 3.207 1.61 1.717 0 3.34-1.178 3.34-3.043 0-2.219-2.264-2.867-3.68-3.318-.942-.295-2.83-.982-2.942-3.24-.095-1.747.905-3.671 3.32-3.671.944 0 1.906.294 2.887 1.178z"/>
    </g>
</symbol><symbol id="icon-earth" viewBox="0 0 48.625 48.625">
    <path d="M35.432 10.815l.047.361-.541.112-.072.769h.648l.862-.083.445-.529-.473-.184-.259-.298-.389-.63-.186-.891-.731.149-.205.314v.354l.352.241z"/>
    <path d="M34.809 11.111l.039-.482-.429-.185-.6.139-.445.714v.463h.519z"/>
    <path d="M22.459 13.158l-.132.34h-.639v.33h.152l.022.162.392-.033.245-.152.064-.307.317-.027.125-.258-.291-.06-.255.005z"/>
    <path d="M20.812 13.757l-.025.323.463-.039.048-.324-.278-.219z"/>
    <path d="M48.619 24.061a24.552 24.552 0 0 0-.11-2.112 24.165 24.165 0 0 0-1.609-6.62c-.062-.155-.119-.312-.185-.465a24.341 24.341 0 0 0-4.939-7.441 24.19 24.19 0 0 0-1.11-1.086A24.22 24.22 0 0 0 24.312 0c-6.345 0-12.126 2.445-16.46 6.44a24.6 24.6 0 0 0-2.78 3.035A24.18 24.18 0 0 0 0 24.312c0 13.407 10.907 24.313 24.313 24.313 9.43 0 17.617-5.4 21.647-13.268a24.081 24.081 0 0 0 2.285-6.795c.245-1.381.379-2.801.379-4.25.001-.084-.004-.167-.005-.251zm-4.576-9.717l.141-.158c.185.359.358.724.523 1.094l-.23-.009-.434.06v-.987zm-3.513-4.242l.004-1.086c.382.405.75.822 1.102 1.254l-.438.652-1.531-.014-.096-.319.959-.487zM11.202 7.403v-.041h.487l.042-.167h.797v.348l-.229.306h-1.098l.001-.446zm.778 1.085s.487-.083.529-.083 0 .486 0 .486l-1.098.069-.209-.25.778-.222zm33.612 9.651h-1.779l-1.084-.807-1.141.111v.696h-.361l-.39-.278-1.976-.501v-1.28l-2.504.195-.776.417h-.994l-.487-.049-1.207.67v1.261l-2.467 1.78.205.76h.5l-.131.724-.352.129-.019 1.892 2.132 2.428h.928l.056-.148h1.668l.481-.445h.946l.519.52 1.41.146-.187 1.875 1.565 2.763-.824 1.575.056.742.649.647v1.784l.852 1.146v1.482h.736c-4.096 5.029-10.33 8.25-17.305 8.25C12.009 46.625 2 36.615 2 24.312c0-3.097.636-6.049 1.781-8.732v-.696l.798-.969c.277-.523.574-1.033.891-1.53l.036.405-.926 1.125a22.14 22.14 0 0 0-.798 1.665v1.27l.927.446v1.765l.889 1.517.723.111.093-.52-.853-1.316-.167-1.279h.5l.211 1.316 1.233 1.799-.318.581.784 1.199 1.947.482v-.315l.779.111-.074.556.612.112.945.258 1.335 1.521 1.705.129.167 1.391-1.167.816-.055 1.242-.167.76 1.688 2.113.129.724s.612.166.687.166c.074 0 1.372.983 1.372.983v3.819l.463.13-.315 1.762.779 1.039-.144 1.746 1.029 1.809 1.321 1.154 1.328.024.13-.427-.976-.822.056-.408.175-.5.037-.51-.66-.02-.333-.418.548-.527.074-.398-.612-.175.036-.37.872-.132 1.326-.637.445-.816 1.391-1.78-.316-1.392.427-.741 1.279.039.861-.682.278-2.686.955-1.213.167-.779-.871-.279-.575-.943-1.965-.02-1.558-.594-.074-1.111-.52-.909-1.409-.021-.814-1.278-.723-.353-.037.39-1.316.078-.482-.671-1.373-.279-1.131 1.307-1.78-.302-.129-2.006-1.299-.222.521-.984-.149-.565-1.707 1.141-1.074-.131-.383-.839.234-.865.592-1.091 1.363-.69 2.632-.001-.007.803.946.44-.075-1.372.682-.686 1.376-.904.094-.636 1.372-1.428 1.459-.808-.129-.106.988-.93.362.096.166.208.375-.416.092-.041-.411-.058-.417-.139v-.4l.221-.181h.487l.223.098.193.39.236-.036v-.034l.068.023.684-.105.097-.334.39.098v.362l-.362.249h.001l.053.397 1.239.382.003.015.285-.024.019-.537-.982-.447-.056-.258.815-.278.036-.78-.852-.519-.056-1.315-1.168.574h-.426l.112-1.001-1.59-.375-.658.497v1.516l-1.183.375-.474.988-.514.083v-1.264l-1.112-.154-.556-.362-.224-.819 1.989-1.164.973-.296.098.654.542-.028.042-.329.567-.081.01-.115-.244-.101-.056-.348.697-.059.421-.438.023-.032.005.002.128-.132 1.465-.185.648.55-1.699.905 2.162.51.28-.723h.945l.334-.63-.668-.167v-.797l-2.095-.928-1.446.167-.816.427.056 1.038-.853-.13-.131-.574.817-.742-1.483-.074-.426.129-.185.5.556.094-.111.556-.945.056-.148.37-1.371.038s-.038-.778-.093-.778l1.075-.019.817-.798-.446-.223-.593.576-.984-.056-.593-.816h-1.261l-1.316.983h1.206l.11.353-.313.291 1.335.037.204.482-1.503-.056-.073-.371-.945-.204-.501-.278-1.125.009A22.188 22.188 0 0 1 24.312 2c5.642 0 10.797 2.109 14.73 5.574l-.265.474-1.029.403-.434.471.1.549.531.074.32.8.916-.369.151 1.07h-.276l-.752-.111-.834.14-.807 1.14-1.154.181-.167.988.487.115-.141.635-1.146-.23-1.051.23-.223.585.182 1.228.617.289 1.035-.006.699-.063.213-.556 1.092-1.419.719.147.708-.64.132.5 1.742 1.175-.213.286-.785-.042.302.428.483.106.566-.236-.012-.682.251-.126-.202-.214-1.162-.648-.306-.861h.966l.309.306.832.717.035.867.862.918.321-1.258.597-.326.112 1.029.583.64 1.163-.02c.225.579.427 1.168.604 1.769l-.121.112zm-32.331-7.093l.584-.278.528.126-.182.709-.57.181-.36-.738zm3.099 1.669v.459h-1.334l-.5-.139.125-.32.641-.265h.876v.265h.192zm.614.64v.445l-.334.215-.416.077v-.737h.75zm-.376-.181v-.529l.459.418-.459.111zm.209 1.07v.433l-.319.32h-.709l.111-.486.335-.029.069-.167.513-.071zm-1.766-.889h.737l-.945 1.321-.39-.209.084-.556.514-.556zm3.018.737v.432h-.709l-.194-.28v-.402h.056l.847.25zm-.655-.594l.202-.212.341.212-.273.225-.27-.225zm28.55 5.767l.07-.082c.029.126.06.252.088.38l-.158-.298z"/>
    <path d="M3.782 14.884v.696c.243-.568.511-1.122.798-1.665l-.798.969z"/>
</symbol><symbol id="icon-facebook" viewBox="0 0 10 19">
    <title>
        facebook
    </title>
    <path d="M9.766.157v2.946H8.014c-.64 0-1.071.134-1.295.402-.223.268-.335.67-.335 1.205v2.11h3.27l-.435 3.303H6.384v8.471H2.97v-8.47H.123V6.82H2.97V4.387c0-1.384.387-2.457 1.161-3.22C4.904.404 5.934.023 7.222.023c1.093 0 1.941.045 2.544.134z" fill-rule="evenodd"/>
</symbol></svg>