<svg height="229.72mm" viewBox="0 0 210 229.72023" width="210mm" xmlns="http://www.w3.org/2000/svg" xmlns:xlink="http://www.w3.org/1999/xlink"><linearGradient id="a" gradientUnits="userSpaceOnUse" x1="2.998" x2="20" y1="12" y2="12"><stop offset="0" stop-color="#00f"/><stop offset="1" stop-color="#191984"/></linearGradient><linearGradient id="b" gradientUnits="userSpaceOnUse" x1="2.998" x2="20" y1="12" y2="12"><stop offset="0" stop-color="#ff0003"/><stop offset="1" stop-color="#841c19"/></linearGradient><radialGradient id="c" cx="105" cy="114.86" gradientTransform="matrix(1 0 0 1.0939 0 -10.786)" gradientUnits="userSpaceOnUse" r="105"><stop offset="0" stop-color="#a4a4a4"/><stop offset="1" stop-color="#030403"/></radialGradient><path d="m0 0h210v229.72h-210z" fill="url(#c)" stroke-linejoin="round" stroke-width=".026458"/><g fill="#fcfcfc" fill-rule="evenodd"><path d="m166.14 189.81 5.6675.0311s-10.537 14.278-11.397 15.442c-.27949.37681-.70406.78321-.91919 1.2869-.54421 1.2664-1.1029 4.0443-1.1029 4.0443l-5.1856.0257s.80684-2.8954.77362-4.4377c-.0293-1.3474-.71704-2.693-1.1029-4.0443-.38979-1.3676-.9192-4.0443-.9192-4.0443h5.3312l.7352 2.9413 8.1197-11.245"/><path d="m155.41 192.82c1.0458.63062 1.6876 4.1086 1.6876 4.1086s-5.4726.0807-8.4508.0807h-2.5736l-3.1251 13.604h-4.7795s2.9743-14.784 3.6766-17.464c.22785-.86756 1.5589-.71886 3.8071-.71886h3.5901c2.3182 0 5.0278-.29585 6.1676.38979"/><path d="m133.16 199.45s.14896-.87327-.50553-1.8843c-.55874-.86211-1.0752-1.0625-2.5458-1.1084-4.1528-.13054-4.072 2.9468-4.072 2.9468zm4.5039-3.524c.60856 2.195-.55147 7.3531-.55147 7.3531s-6.0573-.10121-9.3752 0c-1.0316.0314-2.2666-.11211-2.5736.36773-.43209.67266.15779 1.7079.65787 2.1452.57561.50372 1.6967.56081 2.0995.6122 2.693.34204 8.3294.0882 8.3294.0882l-.97629 4.3235s-7.965.39913-11.949-.55147c-.78659-.18737-1.5239-.566-2.0221-1.1029-.13598-.14689-.2538-.34723-.38252-.52007-.10277-.13806-.40225-.59195-.53668-.9506-.90986-2.4246.10666-7.07 1.1029-9.559.11574-.28858.26107-.65424.41393-.96514.191-.38771.35268-.82526.50527-1.057.10277-.15986.22993-.26289.33659-.41367.12301-.17829.26626-.35112.39888-.50527.36747-.42665.78477-.7282 1.2867-1.1029 1.6598-1.2428 4.6637-2.208 8.2723-1.8384 1.3586.13962 3.4103.62491 4.412 2.0221.26834.37318.40069 1.1138.55147 1.6544z"/><path d="m115.74 192.42 4.6344-.0275s-2.5827 12.252-3.899 18.227h-5.3312c-3.7261 0-7.0443.46141-8.456-2.2061-1.3695-2.59-.0625-6.8494.55147-9.743.43391-2.0478 1.3477-6.2335 1.3477-6.2335l4.8015-.0441s-1.3567 6.5167-1.9212 9.7705c-.20216 1.1655-.6192 2.263-.18373 3.1251.41366.82006.99264.87871 2.7573.9192.559.013 2.3899 0 2.3899 0l3.3088-13.787"/><path d="m94.051 201.24c.48529-1.7242 1.193-3.5938 1.1029-5.1472-.09732-1.6617-1.4907-3.1746-2.3896-3.4926-2.7078-.95606-5.2427.38045-6.2502 1.4704-1.3035 1.412-1.7447 3.061-2.2061 5.3312-.3436 1.6856-.62491 3.465 0 4.7795 1.1066 2.3237 4.5571 1.8163 8.2723 1.8384.55147-1.4779 1.0074-3.138 1.4707-4.7797zm6.4342-6.8016c.52941 3.8494-1.5018 8.0979-2.9009 11.793 1.4266.12872 2.6766-.02 2.7667.0864.0937.13807-.95606 4.4102-1.322 4.4211-1.1323.0296-4.8841.0607-6.4487.0607-5.1049 0-9.8808.3327-12.316-2.2059-.98901-1.0313-1.6728-2.7999-1.8384-4.0443-.27586-2.0774.06981-4.3643.55147-6.2502.43573-1.7024.99446-3.3091 1.8384-4.7797 2.1451-3.7445 5.877-6.5239 12.133-5.8824 1.2132.12508 2.9559.65631 4.0443 1.2867.07526.0444.33841.25381.39887.29066 1.4707.93581 2.8108 3.1692 3.0939 5.2243z"/><path d="m77.898 192.44c-.30882 1.4063-.61765 3.0002-.94308 4.39h-5.1472c.39887-1.5405.70406-3.0719 1.1029-4.412 1.6471 0 3.1785.0221 4.9874.0221"/><path d="m71.624 198.12h4.9632c-.64879 3.5922-1.9336 9.3864-2.9411 13.42-.63062 2.524-1.0516 4.3661-2.7576 5.6987-.15259.11964-.24057.0628-.36747.184-.31453.29974-1.7686.64723-2.5736.7352-1.309.1417-2.7887.0184-4.3972-.0145.42093-1.5387.89714-3.3862 1.2721-4.765 3.921.47439 4.0204-3.2317 4.7795-6.8016.43936-2.0626 1.7704-7.629 2.0221-8.4563"/></g><g fill="#21609b" fill-rule="evenodd" transform="matrix(.26458 0 0 .26458 36.572 189.86)"><path d="m88.708 66.637-.40215 1.0417c-6.8512 13.339-18.989 21.525-36.303 21.886-8.0939.16674-15.806-1.9097-20.844-4.1686-10.873-4.8846-20.017-13.944-25.011-23.623-7.1641-13.875-8.4558-33.176 6.4402-47.592.22952 0-1.8067 3.1259-1.5772 3.1259l-.40999 1.3339c-10.734 33.607 22.337 62.406 54.485 59.112 7.7261-.79154 17.579-5.0229 23.623-11.116"/><path d="m69.254 52.74c8.088.05591 16.536-3.7243 21.538-9.0316-4.3765 11.11-17.049 18.252-34.044 15.98-14.229-1.9038-27.784-16.223-29.181-30.571-1.0211-10.442 2.6188-16.674 8.6157-24.234-2.0843 3.9538-2.8631 7.0032-3.0573 8.9482-2.2785 22.588 18.044 38.79 36.128 38.908"/><path d="m89.981 24.685c-1.2574 2.8837-8.497 8.3303-11.694 9.011-12.659 2.6963-20.766-3.3064-25.012-10.137-.63166-1.0211-1.7989-3.8067-2.0078-4.5158-1.6468-5.5996-.88962-14.069 4.0234-18.454-1.4801 4.1686-1.6959 9.011-.91709 12.159.47178 1.9038 1.9097 5.2259 3.3486 7.3161 2.6188 3.8076 4.2794 4.7326 7.6427 6.7541 1.5144.91022 3.1397 1.64 3.842 1.841 3.1887.93769 9.9212 3.4114 20.774-3.9744"/></g><g transform="matrix(.073863 0 0 .073863 64.043 26.085)"><path d="m0 0h1052v1052h-1052z" fill="#f0db4f"/><path d="m965.9 801.1c-7.7-48-39-88.3-131.7-125.9-32.2-14.8-68.1-25.4-78.8-49.8-3.8-14.2-4.3-22.2-1.9-30.8 6.9-27.9 40.2-36.6 66.6-28.6 17 5.7 33.1 18.8 42.8 39.7 45.4-29.4 45.3-29.2 77-49.4-11.6-18-17.8-26.3-25.4-34-27.3-30.5-64.5-46.2-124-45-10.3 1.3-20.7 2.7-31 4-29.7 7.5-58 23.1-74.6 44-49.8 56.5-35.6 155.4 25 196.1 59.7 44.8 147.4 55 158.6 96.9 10.9 51.3-37.7 67.9-86 62-35.6-7.4-55.4-25.5-76.8-58.4-39.4 22.8-39.4 22.8-79.9 46.1 9.6 21 19.7 30.5 35.8 48.7 76.2 77.3 266.9 73.5 301.1-43.5 1.4-4 10.6-30.8 3.2-72.1zm-394-317.6h-98.4c0 85-.4 169.4-.4 254.4 0 54.1 2.8 103.7-6 118.9-14.4 29.9-51.7 26.2-68.7 20.4-17.3-8.5-26.1-20.6-36.3-37.7-2.8-4.9-4.9-8.7-5.6-9-26.7 16.3-53.3 32.7-80 49 13.3 27.3 32.9 51 58 66.4 37.5 22.5 87.9 29.4 140.6 17.3 34.3-10 63.9-30.7 79.4-62.2 22.4-41.3 17.6-91.3 17.4-146.6.5-90.2 0-180.4 0-270.9z" fill="#323330"/></g><g fill="url(#a)" transform="matrix(2.453 2.6223 -2.6223 2.453 58.993 80.791)"><path d="m20 7.2c0 3.6-.5 8.1-2.1 9.7-1 1-7.6 1.8-8.9 1.3-1.2-.4-3.6-.7-5.6-5.9-1.3-3.3.9-4.4 1.7-4.4.2 2.5 1.3 4.9 1.8 5.2-.4-.9-.9-4.8-.9-5.9.1-3.8 1.4-5.2 7.1-5.2s6.9 1.4 6.9 5.2z"/><path d="m18.3 17.8s-2.6 1-5.8.7c-2.8-.2-4.3-1.2-4.3-1.2 0 1.9.3 3.6.6 3.9.5.5 1.7.8 4.5.8s4.1-.3 4.4-.8c.4-1 .6-3.4.6-3.4z"/></g><g fill="url(#b)" transform="matrix(-2.453 2.6223 2.6223 2.453 151.01 80.791)"><path d="m20 7.2c0 3.6-.5 8.1-2.1 9.7-1 1-7.6 1.8-8.9 1.3-1.2-.4-3.6-.7-5.6-5.9-1.3-3.3.9-4.4 1.7-4.4.2 2.5 1.3 4.9 1.8 5.2-.4-.9-.9-4.8-.9-5.9.1-3.8 1.4-5.2 7.1-5.2s6.9 1.4 6.9 5.2z"/><path d="m18.3 17.8s-2.6 1-5.8.7c-2.8-.2-4.3-1.2-4.3-1.2 0 1.9.3 3.6.6 3.9.5.5 1.7.8 4.5.8s4.1-.3 4.4-.8c.4-1 .6-3.4.6-3.4z"/></g><g fill="#fff" transform="matrix(.49818 0 0 .49818 457.96 63.324)"><path d="m-773.36 169.68h16.125l16.5 45.917 16.458-45.917h16.125l-23.042 62.208h-19.125z"/><path d="m-656.65 171.64v13.167q-5.125-2.2917-10-3.4583-4.875-1.1667-9.2083-1.1667-5.75 0-8.5 1.5833t-2.75 4.9167q0 2.5 1.8333 3.9167 1.875 1.375 6.75 2.375l6.8333 1.375q10.375 2.0833 14.75 6.3333t4.375 12.083q0 10.292-6.125 15.333-6.0833 5-18.625 5-5.9167 0-11.875-1.125t-11.917-3.3333v-13.542q5.9583 3.1667 11.5 4.7917 5.5833 1.5833 10.75 1.5833 5.25 0 8.0417-1.75t2.7917-5q0-2.9167-1.9167-4.5-1.875-1.5833-7.5417-2.8333l-6.2083-1.375q-9.3333-2-13.667-6.375-4.2917-4.375-4.2917-11.792 0-9.2917 6-14.292t17.25-5q5.125 0 10.542.79166 5.4167.75 11.208 2.2917z"/></g></svg>