<?xml version="1.0" encoding="UTF-8"?><!DOCTYPE svg PUBLIC "-//W3C//DTD SVG 1.1//EN" "http://www.w3.org/Graphics/SVG/1.1/DTD/svg11.dtd"><svg xmlns="http://www.w3.org/2000/svg"><symbol id="icon-animation" viewBox="0 0 38 22">
    <style>
        .st0{fill:#89969f}
    </style>
    <path class="st0" d="M0 2.2h6.7v2.2h6.7V0h11.2v4.4h6.7V2.2H38v6.6h-6.7V6.6h-4c5.1 2.9 8.4 8.3 8.4 14.3 0 .6-.5 1.1-1.1 1.1-.6 0-1.1-.5-1.1-1.1 0-5.8-3.6-11-8.9-13.2V11H13.4V7.7c-5.3 2.2-8.9 7.4-8.9 13.2 0 .6-.5 1.1-1.1 1.1-.6 0-1.1-.5-1.1-1.1 0-6 3.3-11.4 8.4-14.3h-4v2.2H0V2.2z"/>
</symbol><symbol id="icon-chevron-down" viewBox="0 0 12 7.4">
    <path d="M1.4 0L6 4.6 10.6 0 12 1.4l-6 6-6-6L1.4 0z"/>
</symbol><symbol id="icon-css" viewBox="0 0 35.2 27.6">
    <style>
        .st0{fill:#89969f}
    </style>
    <path class="st0" d="M28.2 9.7V4.1c0-.8-.6-1.4-1.4-1.4-.8 0-1.4-.6-1.4-1.4 0-.8.6-1.4 1.4-1.4 2.3.1 4.2 2 4.2 4.2v5.5c0 1.5 1.2 2.8 2.8 2.8.8 0 1.4.6 1.4 1.4 0 .8-.6 1.4-1.4 1.4-1.5 0-2.8 1.2-2.8 2.8v5.5c0 2.3-1.9 4.1-4.2 4.1-.8 0-1.4-.6-1.4-1.4 0-.8.6-1.4 1.4-1.4.8 0 1.4-.6 1.4-1.4v-5.5c0-1.7.8-3.1 1.9-4.1-1.1-1-1.9-2.5-1.9-4.1zM1.4 12.4c1.5 0 2.8-1.2 2.8-2.8V4.1C4.2 1.9 6 0 8.3 0c.8 0 1.4.6 1.4 1.4 0 .8-.6 1.4-1.4 1.4-.7 0-1.3.6-1.3 1.3v5.5c0 1.7-.8 3.1-1.9 4.1 1.2 1 1.9 2.5 1.9 4.1v5.5c0 .8.6 1.4 1.4 1.4.8 0 1.4.6 1.4 1.4 0 .8-.6 1.4-1.4 1.4-2.3 0-4.2-1.9-4.2-4.1v-5.5c0-1.5-1.2-2.8-2.8-2.8-.8 0-1.4-.6-1.4-1.4s.6-1.3 1.4-1.3z"/>
</symbol><symbol id="icon-DibssSolutions_logo" viewBox="0 0 147 49">
    <title>
        DibssSolutions_logo
    </title>
    <g fill-rule="nonzero">
        <path d="M25.187 3.342h-4.201C19.912 3.342 19 2.94 19 1.67 19 .468 19.879 0 20.888 0h5.437c2.539 0 3.809 1.07 4.916 3.342l2.864 5.882c.651 1.37.977 2.339.977 3.876 0 1.337-.358 2.473-.944 3.676l-2.963 6.083C30.036 25.23 28.571 26 26.032 26h-5.404C19.78 26 19 25.532 19 24.329s.781-1.67 1.628-1.67h5.436c1.368 0 1.693-.168 2.28-1.405l2.864-5.948c.358-.769.619-1.337.619-2.172 0-1.137-.359-1.772-.814-2.74L28.31 4.745c-.684-1.438-.977-1.404-2.475-1.404h-.65z"/>
        <path d="M51.898 3.342v19.316h4.786c.846 0 1.627.468 1.627 1.671S57.531 26 56.684 26H43.857c-.846 0-1.627-.468-1.627-1.671s.78-1.67 1.627-1.67h4.786V3.341h-4.786c-.846 0-1.627-.468-1.627-1.671S43.01 0 43.857 0h12.827c.846 0 1.627.468 1.627 1.671s-.78 1.67-1.627 1.67h-4.786z"/>
        <path d="M65.459 26V0h9.115c4.786 0 6.967 3.008 6.967 7.72 0 1.938-.423 3.71-2.149 5.28 1.856 1.805 2.149 3.576 2.149 6.049 0 4.378-2.832 6.951-6.967 6.951H65.46zm3.255-11.329v7.987h5.86c2.344 0 3.712-1.07 3.712-3.61 0-2.806-.75-4.377-3.712-4.377h-5.86zm0-11.33v7.988h5.86c2.344 0 3.712-1.07 3.712-3.61 0-2.806-.75-4.377-3.712-4.377h-5.86z"/>
        <path d="M92.432 4.712l11.2 14.738c.65.869 1.138 1.637 1.138 2.774 0 2.506-1.855 3.776-4.101 3.776h-7.162c-1.237 0-2.312-.234-3.288-1.07-.88-.735-1.53-1.938-1.53-3.107 0-1.07.586-2.006 1.725-2.006.944 0 1.53.803 1.53 1.705 0 1.002.52 1.136 1.432 1.136h7.065c.26 0 1.074.1 1.074-.4 0-.268-.456-.77-.586-.97L89.763 6.55c-.684-.902-1.074-1.57-1.074-2.74 0-1.337.618-2.473 1.725-3.208C91.325 0 92.074 0 93.116 0h6.902c1.237 0 2.278.267 3.222 1.103.847.768 1.53 2.005 1.53 3.175 0 1.069-.52 1.938-1.692 1.938-.977 0-1.563-.635-1.563-1.57 0-1.137-.553-1.304-1.563-1.304h-6.901c-.358 0-1.107-.1-1.107.468 0 .3.358.702.488.902z"/>
        <path d="M115.662 4.712L126.86 19.45c.65.869 1.139 1.637 1.139 2.774 0 2.506-1.856 3.776-4.102 3.776h-7.162c-1.237 0-2.311-.234-3.288-1.07-.879-.735-1.53-1.938-1.53-3.107 0-1.07.586-2.006 1.725-2.006.945 0 1.53.803 1.53 1.705 0 1.002.521 1.136 1.433 1.136h7.064c.26 0 1.075.1 1.075-.4 0-.268-.456-.77-.586-.97L112.992 6.55c-.683-.902-1.074-1.57-1.074-2.74 0-1.337.619-2.473 1.725-3.208.912-.602 1.66-.602 2.702-.602h6.902c1.237 0 2.279.267 3.223 1.103.846.768 1.53 2.005 1.53 3.175 0 1.069-.52 1.938-1.693 1.938-.976 0-1.562-.635-1.562-1.57 0-1.137-.554-1.304-1.563-1.304h-6.902c-.358 0-1.107-.1-1.107.468 0 .3.359.702.489.902z"/>
        <path d="M135.73 18.686l7.91-5.197-7.867-5.153c-.42-.284-.773-.59-.773-1.157.022-.611.53-1.179 1.171-1.179.332 0 .641.153.906.328l9.104 5.982c.487.306.84.568.818 1.18 0 .632-.331.872-.818 1.178l-9.082 5.96c-.265.175-.574.372-.95.372-.619 0-1.149-.59-1.149-1.2.022-.547.287-.83.73-1.114z"/>
        <path d="M11.27 18.686l-7.91-5.197 7.867-5.153c.42-.284.773-.59.773-1.157C11.978 6.568 11.47 6 10.829 6c-.332 0-.641.153-.906.328L.819 12.31c-.487.306-.84.568-.818 1.18 0 .632.331.872.818 1.178l9.082 5.96c.265.175.574.372.95.372.619 0 1.149-.59 1.149-1.2-.022-.547-.287-.83-.73-1.114z"/>
        <path d="M25.622 35.728l-.434.589c-.415-.413-1.283-1.06-2.49-1.06-1.717 0-2.566 1.335-2.566 2.768 0 1.531.981 2.199 2.226 2.65 1.566.57 4.377 1.159 4.377 4.045 0 2.317-1.792 3.809-3.98 3.809-2 0-3.246-1.237-3.755-1.787l.49-.53c.68.746 1.717 1.61 3.208 1.61 1.717 0 3.34-1.178 3.34-3.043 0-2.219-2.265-2.867-3.68-3.318-.943-.295-2.83-.982-2.943-3.24-.094-1.747.906-3.671 3.32-3.671.944 0 1.906.294 2.887 1.178zm4.494 5.792c0-3.888 3.018-7.049 6.735-7.049 3.736 0 6.773 3.161 6.773 7.049 0 3.867-3.037 7.009-6.773 7.009-3.717 0-6.735-3.142-6.735-7.01zm.698 0c0 3.455 2.717 6.282 6.037 6.282s6.075-2.827 6.075-6.282c0-3.456-2.754-6.322-6.075-6.322-3.32 0-6.037 2.866-6.037 6.322zm16.342 6.852V34.628h.698v13.096h7.282v.648h-7.98zm16.285.157c-2.472 0-4.32-1.59-4.32-4.594v-9.307h.697v9.248c0 2.572 1.51 4.005 3.623 4.005 2.094 0 3.641-1.433 3.641-4.005v-9.248h.698v9.307c0 3.003-1.886 4.594-4.34 4.594zm17.21-13.9v.647h-4.868v13.096h-.698V35.276h-4.868v-.648h10.434zm2.512 0h.698v13.743h-.698V34.628zm4.4 6.89c0-3.887 3.018-7.048 6.735-7.048 3.735 0 6.773 3.161 6.773 7.049 0 3.867-3.038 7.009-6.773 7.009-3.717 0-6.736-3.142-6.736-7.01zm.697 0c0 3.456 2.717 6.283 6.038 6.283 3.32 0 6.075-2.827 6.075-6.282 0-3.456-2.755-6.322-6.075-6.322-3.321 0-6.038 2.866-6.038 6.322zm28.04-6.89V49l-10.528-12.703-.359-.51.057.628v11.957h-.698V34l10.527 12.703.359.51-.057-.628V34.628h.698zm10.587 1.099l-.434.589c-.415-.413-1.283-1.06-2.49-1.06-1.717 0-2.566 1.335-2.566 2.768 0 1.531.98 2.199 2.226 2.65 1.566.57 4.377 1.159 4.377 4.045 0 2.317-1.792 3.809-3.98 3.809-2 0-3.246-1.237-3.755-1.787l.49-.53c.68.746 1.717 1.61 3.207 1.61 1.717 0 3.34-1.178 3.34-3.043 0-2.219-2.264-2.867-3.68-3.318-.942-.295-2.83-.982-2.942-3.24-.095-1.747.905-3.671 3.32-3.671.944 0 1.906.294 2.887 1.178z"/>
    </g>
</symbol><symbol id="icon-earth" viewBox="0 0 48.625 48.625">
    <path d="M35.432 10.815l.047.361-.541.112-.072.769h.648l.862-.083.445-.529-.473-.184-.259-.298-.389-.63-.186-.891-.731.149-.205.314v.354l.352.241z"/>
    <path d="M34.809 11.111l.039-.482-.429-.185-.6.139-.445.714v.463h.519z"/>
    <path d="M22.459 13.158l-.132.34h-.639v.33h.152l.022.162.392-.033.245-.152.064-.307.317-.027.125-.258-.291-.06-.255.005z"/>
    <path d="M20.812 13.757l-.025.323.463-.039.048-.324-.278-.219z"/>
    <path d="M48.619 24.061a24.552 24.552 0 0 0-.11-2.112 24.165 24.165 0 0 0-1.609-6.62c-.062-.155-.119-.312-.185-.465a24.341 24.341 0 0 0-4.939-7.441 24.19 24.19 0 0 0-1.11-1.086A24.22 24.22 0 0 0 24.312 0c-6.345 0-12.126 2.445-16.46 6.44a24.6 24.6 0 0 0-2.78 3.035A24.18 24.18 0 0 0 0 24.312c0 13.407 10.907 24.313 24.313 24.313 9.43 0 17.617-5.4 21.647-13.268a24.081 24.081 0 0 0 2.285-6.795c.245-1.381.379-2.801.379-4.25.001-.084-.004-.167-.005-.251zm-4.576-9.717l.141-.158c.185.359.358.724.523 1.094l-.23-.009-.434.06v-.987zm-3.513-4.242l.004-1.086c.382.405.75.822 1.102 1.254l-.438.652-1.531-.014-.096-.319.959-.487zM11.202 7.403v-.041h.487l.042-.167h.797v.348l-.229.306h-1.098l.001-.446zm.778 1.085s.487-.083.529-.083 0 .486 0 .486l-1.098.069-.209-.25.778-.222zm33.612 9.651h-1.779l-1.084-.807-1.141.111v.696h-.361l-.39-.278-1.976-.501v-1.28l-2.504.195-.776.417h-.994l-.487-.049-1.207.67v1.261l-2.467 1.78.205.76h.5l-.131.724-.352.129-.019 1.892 2.132 2.428h.928l.056-.148h1.668l.481-.445h.946l.519.52 1.41.146-.187 1.875 1.565 2.763-.824 1.575.056.742.649.647v1.784l.852 1.146v1.482h.736c-4.096 5.029-10.33 8.25-17.305 8.25C12.009 46.625 2 36.615 2 24.312c0-3.097.636-6.049 1.781-8.732v-.696l.798-.969c.277-.523.574-1.033.891-1.53l.036.405-.926 1.125a22.14 22.14 0 0 0-.798 1.665v1.27l.927.446v1.765l.889 1.517.723.111.093-.52-.853-1.316-.167-1.279h.5l.211 1.316 1.233 1.799-.318.581.784 1.199 1.947.482v-.315l.779.111-.074.556.612.112.945.258 1.335 1.521 1.705.129.167 1.391-1.167.816-.055 1.242-.167.76 1.688 2.113.129.724s.612.166.687.166c.074 0 1.372.983 1.372.983v3.819l.463.13-.315 1.762.779 1.039-.144 1.746 1.029 1.809 1.321 1.154 1.328.024.13-.427-.976-.822.056-.408.175-.5.037-.51-.66-.02-.333-.418.548-.527.074-.398-.612-.175.036-.37.872-.132 1.326-.637.445-.816 1.391-1.78-.316-1.392.427-.741 1.279.039.861-.682.278-2.686.955-1.213.167-.779-.871-.279-.575-.943-1.965-.02-1.558-.594-.074-1.111-.52-.909-1.409-.021-.814-1.278-.723-.353-.037.39-1.316.078-.482-.671-1.373-.279-1.131 1.307-1.78-.302-.129-2.006-1.299-.222.521-.984-.149-.565-1.707 1.141-1.074-.131-.383-.839.234-.865.592-1.091 1.363-.69 2.632-.001-.007.803.946.44-.075-1.372.682-.686 1.376-.904.094-.636 1.372-1.428 1.459-.808-.129-.106.988-.93.362.096.166.208.375-.416.092-.041-.411-.058-.417-.139v-.4l.221-.181h.487l.223.098.193.39.236-.036v-.034l.068.023.684-.105.097-.334.39.098v.362l-.362.249h.001l.053.397 1.239.382.003.015.285-.024.019-.537-.982-.447-.056-.258.815-.278.036-.78-.852-.519-.056-1.315-1.168.574h-.426l.112-1.001-1.59-.375-.658.497v1.516l-1.183.375-.474.988-.514.083v-1.264l-1.112-.154-.556-.362-.224-.819 1.989-1.164.973-.296.098.654.542-.028.042-.329.567-.081.01-.115-.244-.101-.056-.348.697-.059.421-.438.023-.032.005.002.128-.132 1.465-.185.648.55-1.699.905 2.162.51.28-.723h.945l.334-.63-.668-.167v-.797l-2.095-.928-1.446.167-.816.427.056 1.038-.853-.13-.131-.574.817-.742-1.483-.074-.426.129-.185.5.556.094-.111.556-.945.056-.148.37-1.371.038s-.038-.778-.093-.778l1.075-.019.817-.798-.446-.223-.593.576-.984-.056-.593-.816h-1.261l-1.316.983h1.206l.11.353-.313.291 1.335.037.204.482-1.503-.056-.073-.371-.945-.204-.501-.278-1.125.009A22.188 22.188 0 0 1 24.312 2c5.642 0 10.797 2.109 14.73 5.574l-.265.474-1.029.403-.434.471.1.549.531.074.32.8.916-.369.151 1.07h-.276l-.752-.111-.834.14-.807 1.14-1.154.181-.167.988.487.115-.141.635-1.146-.23-1.051.23-.223.585.182 1.228.617.289 1.035-.006.699-.063.213-.556 1.092-1.419.719.147.708-.64.132.5 1.742 1.175-.213.286-.785-.042.302.428.483.106.566-.236-.012-.682.251-.126-.202-.214-1.162-.648-.306-.861h.966l.309.306.832.717.035.867.862.918.321-1.258.597-.326.112 1.029.583.64 1.163-.02c.225.579.427 1.168.604 1.769l-.121.112zm-32.331-7.093l.584-.278.528.126-.182.709-.57.181-.36-.738zm3.099 1.669v.459h-1.334l-.5-.139.125-.32.641-.265h.876v.265h.192zm.614.64v.445l-.334.215-.416.077v-.737h.75zm-.376-.181v-.529l.459.418-.459.111zm.209 1.07v.433l-.319.32h-.709l.111-.486.335-.029.069-.167.513-.071zm-1.766-.889h.737l-.945 1.321-.39-.209.084-.556.514-.556zm3.018.737v.432h-.709l-.194-.28v-.402h.056l.847.25zm-.655-.594l.202-.212.341.212-.273.225-.27-.225zm28.55 5.767l.07-.082c.029.126.06.252.088.38l-.158-.298z"/>
    <path d="M3.782 14.884v.696c.243-.568.511-1.122.798-1.665l-.798.969z"/>
</symbol><symbol id="icon-email" viewBox="0 0 23 15">
    <title>
        noun_681630_cc
    </title>
    <path d="M2.875.099c-.657 0-1.26.213-1.743.562l9.9 8.821c.223.198.713.198.935 0l9.9-8.82a2.966 2.966 0 0 0-1.742-.563H2.875zM.377 1.479A2.622 2.622 0 0 0 0 2.826v9.273c0 .555.178 1.07.476 1.5l.027-.017 7.233-5.54L.377 1.48zm22.246 0l-7.359 6.563 7.233 5.54.027.017c.298-.43.476-.945.476-1.5V2.826c0-.49-.14-.95-.377-1.347zM8.58 8.792l-7.286 5.582a2.98 2.98 0 0 0 1.581.452h17.25a2.98 2.98 0 0 0 1.581-.452L14.42 8.792l-1.662 1.483a1.918 1.918 0 0 1-2.516 0L8.58 8.792z" fill-rule="nonzero"/>
</symbol><symbol id="icon-facebook" viewBox="0 0 10 19">
    <title>
        facebook
    </title>
    <path d="M9.766.157v2.946H8.014c-.64 0-1.071.134-1.295.402-.223.268-.335.67-.335 1.205v2.11h3.27l-.435 3.303H6.384v8.471H2.97v-8.47H.123V6.82H2.97V4.387c0-1.384.387-2.457 1.161-3.22C4.904.404 5.934.023 7.222.023c1.093 0 1.941.045 2.544.134z" fill-rule="evenodd"/>
</symbol><symbol id="icon-github" viewBox="0 0 36 36">
    <title>
        github
    </title>
    <path d="M17.958 0C8.041 0 0 8.04 0 17.958c0 9.919 8.04 17.958 17.958 17.958 9.917 0 17.958-8.04 17.958-17.958C35.916 8.041 27.876 0 17.958 0zm5.03 31.639c-.103-1.406-.218-3.146-.225-3.851-.045-.541-.103-1.917-1.41-2.796 5.187-.434 7.655-3.3 7.832-7.089.148-2.157-.71-4.054-2.232-5.585a30.686 30.686 0 0 0-.155-4.43c-1.17-.338-3.897 1.102-4.66 1.719-1.606-.625-5.54-.843-7.93 0-1.696-1.192-3.625-1.929-4.677-1.723-.97 2.151-.347 4.185-.157 4.428-1.25 1.142-2.994 2.548-2.52 5.495.759 4.32 3.798 6.65 8.692 7.22-1.044.213-1.22.992-1.308 1.33-3.286 1.356-4.225-.837-4.64-1.409-1.38-1.707-2.618-1.212-2.694-1.185-.074.027-.13.135-.123.186.07.369.82.742.858.773 1.018.758 1.395 2.129 1.627 2.52 1.46 2.4 4.855 1.405 4.887 1.425.002.21-.023 1.976-.044 3.351-6.188-1.69-10.742-7.336-10.742-14.06 0-8.059 6.532-14.59 14.591-14.59s14.59 6.531 14.59 14.59c0 6.289-3.983 11.63-9.56 13.68z" fill-rule="nonzero"/>
</symbol><symbol id="icon-html" viewBox="0 0 35.2 19.3">
    <style>
        .st0{fill:#0074e4}
    </style>
    <path class="st0" d="M24.5 2.4C24 1.9 24 1 24.5.5s1.4-.5 2 0l8.3 8.3c.5.5.5 1.4 0 1.9L26.5 19c-.3.3-.6.4-1 .4s-.7-.1-1-.4c-.5-.5-.5-1.4 0-1.9l7.4-7.3-7.4-7.4zM.4 8.7L8.7.4c.5-.5 1.4-.5 2 0 .5.5.5 1.4 0 1.9L3.4 9.7l7.4 7.3c.5.5.5 1.4 0 1.9-.3.3-.6.4-1 .4s-.7-.1-1-.4L.5 10.6c-.6-.5-.6-1.4-.1-1.9z"/>
</symbol><symbol id="icon-javascript" viewBox="0 0 36 28">
    <title>
        javascript
    </title>
    <g fill-rule="nonzero">
        <path d="M19.696 22.138c0 .761-.622 1.38-1.392 1.38-.769 0-1.391-.619-1.391-1.38V18c0-.761.622-1.38 1.391-1.38.77 0 1.392.619 1.392 1.38v4.138z"/>
        <path d="M28.435 9.724V4.207c0-.76-.624-1.38-1.392-1.38-.769 0-1.39-.617-1.39-1.379 0-.761.621-1.379 1.39-1.379 2.302 0 4.174 1.857 4.174 4.138v5.517c0 1.522 1.248 2.759 2.783 2.759.77 0 1.391.618 1.391 1.38 0 .76-.622 1.378-1.391 1.378-1.535 0-2.783 1.238-2.783 2.759v5.517c0 2.282-1.872 4.138-4.174 4.138-.769 0-1.39-.618-1.39-1.38 0-.76.621-1.378 1.39-1.378.768 0 1.392-.62 1.392-1.38V18c0-1.655.754-3.126 1.923-4.138-1.17-1.012-1.923-2.483-1.923-4.138z"/>
        <path d="M18.304 6.966c1.152 0 2.087.926 2.087 2.068a2.079 2.079 0 0 1-2.087 2.07 2.079 2.079 0 0 1-2.087-2.07c0-1.142.935-2.068 2.087-2.068z"/>
        <path d="M1.609 12.483c1.534 0 2.782-1.237 2.782-2.759V4.207c0-2.281 1.873-4.138 4.174-4.138.77 0 1.392.618 1.392 1.38 0 .76-.622 1.379-1.392 1.379-.768 0-1.391.619-1.391 1.379v5.517c0 1.655-.754 3.126-1.923 4.138C6.42 14.874 7.174 16.345 7.174 18v5.517c0 .76.623 1.38 1.391 1.38.77 0 1.392.617 1.392 1.379 0 .761-.622 1.38-1.392 1.38-2.301 0-4.174-1.857-4.174-4.139V18c0-1.521-1.248-2.759-2.782-2.759-.77 0-1.392-.618-1.392-1.379s.622-1.38 1.392-1.38z"/>
    </g>
</symbol><symbol id="icon-multitask" viewBox="0 0 80 68">
    <title>
        multitask
    </title>
    <g fill-rule="nonzero">
        <path d="M12.476 52.767v2.513H4.99V45.23h7.486z"/>
        <path d="M32.437 13.783l-3.743 2.55v-3.769c0-5.553 4.466-10.05 9.98-10.05h7.486v5.025c2.757 0 4.99 2.249 4.99 5.025v3.77l-3.743-2.55s-2.507 1.255-6.861 1.255c-4.354 0-8.11-1.256-8.11-1.256z"/>
        <path d="M46.16 7.539V2.513h-4.99v7.538c2.757 0 4.99.993 4.99 3.77v.427c.802-.25 1.247-.465 1.247-.465l3.743 2.55v-3.769c0-2.776-2.233-5.025-4.99-5.025z"/>
        <path d="M51.15 16.371v4.988c0 4.435-2.545 8.28-6.238 10.126a11.108 11.108 0 0 1-4.99 1.18c-1.784 0-3.493-.426-4.99-1.18a11.314 11.314 0 0 1-6.238-10.126V16.37l3.743-2.55s3.755 1.256 8.109 1.256 6.861-1.257 6.861-1.257l3.743 2.551z"/>
        <path d="M47.407 13.82s-.445.216-1.247.464v7.075c0 4.435-2.545 8.28-6.238 10.126-.78.393-1.62.692-2.495.893.806.185 1.64.288 2.495.288 1.784 0 3.493-.427 4.99-1.181a11.314 11.314 0 0 0 6.238-10.126V16.37l-3.743-2.55z"/>
        <path d="M12.476 25.756v.628c0 4.862 3.904 8.794 8.733 8.794h12.475c-4.403 0-8.221 2.563-10.055 6.282h-2.42c-8.272 0-14.971-6.746-14.971-15.076v-.628c0-1.734 1.397-3.141 3.119-3.141 1.721 0 3.119 1.407 3.119 3.14z"/>
        <path d="M6.238 5.026L3.743 1.257h9.98l-2.495 3.769z"/>
        <path d="M16.218 1.257v17.589H1.248V1.257h2.495l2.495 3.769h4.99l2.495-3.769z"/>
        <path d="M78.596 5.026v11.307l-6.55-5.653z"/>
        <path d="M67.68 10.68l-6.55 5.653V5.026z"/>
        <path d="M78.596 5.026l-8.732 7.538-8.733-7.538z"/>
        <path d="M69.864 12.564l2.183-1.884 6.55 5.653H61.13l6.55-5.653z"/>
        <path d="M66.12 43.973h7.486V55.28h-7.485z"/>
        <path d="M73.606 25.756v.628c0 8.33-6.7 15.076-14.97 15.076h-2.42c-1.835-3.719-5.651-6.282-10.056-6.282h12.475c4.829 0 8.733-3.932 8.733-8.794v-.628c0-1.734 1.398-3.141 3.12-3.141 1.72 0 3.118 1.407 3.118 3.14z"/>
        <path d="M39.922 32.666c1.784 0 3.493-.427 4.99-1.181v3.693l-2.495 2.513-2.495-1.256-2.495 1.256-2.495-2.513v-3.693a11.108 11.108 0 0 0 4.99 1.18z"/>
        <path d="M34.932 35.178l2.495 2.513 2.495-1.256 2.495 1.256 2.495-2.513h1.248c4.403 0 8.221 2.563 10.055 6.282a11.276 11.276 0 0 1 1.173 5.026v2.512c0 5.554 4.466 10.051 9.98 10.051h.624c1.722 0 3.12 1.407 3.12 3.141s-1.398 3.14-3.12 3.14h-.624c-8.97 0-16.218-7.298-16.218-16.332v17.59H28.694v-17.59c0 9.034-7.248 16.333-16.218 16.333h-.624c-1.722 0-3.12-1.407-3.12-3.141s1.398-3.14 3.12-3.14h.624c5.514 0 9.98-4.498 9.98-10.052v-2.512c0-1.81.424-3.518 1.173-5.026 1.834-3.719 5.65-6.282 10.055-6.282h1.248z"/>
        <path d="M39.96 45.23c-.69 0-1.254-.562-1.254-1.257 0-.695.55-1.256 1.24-1.256h.013c.69 0 1.248.561 1.248 1.256s-.559 1.256-1.248 1.256z"/>
        <path d="M39.96 51.511c-.69 0-1.254-.561-1.254-1.256s.55-1.257 1.24-1.257h.013c.69 0 1.248.562 1.248 1.257 0 .695-.559 1.256-1.248 1.256z"/>
        <path d="M39.96 57.793c-.69 0-1.254-.562-1.254-1.257 0-.694.55-1.256 1.24-1.256h.013c.69 0 1.248.562 1.248 1.256 0 .695-.559 1.257-1.248 1.257z"/>
        <path d="M39.96 64.075c-.69 0-1.254-.562-1.254-1.257 0-.694.55-1.256 1.24-1.256h.013c.69 0 1.248.562 1.248 1.256 0 .695-.559 1.257-1.248 1.257z"/>
        <path d="M69.9 54.024c-.689 0-1.253-.562-1.253-1.257 0-.694.551-1.256 1.24-1.256h.014c.689 0 1.247.562 1.247 1.256 0 .695-.558 1.257-1.247 1.257z"/>
        <path d="M46.16 1.257c.69 0 1.247.562 1.247 1.256V6.41c2.844.583 4.99 3.12 4.99 6.154v8.796c0 6.927-5.596 12.563-12.475 12.563-6.88 0-12.476-5.636-12.476-12.563v-8.795c0-6.235 5.037-11.307 11.228-11.307a1.25 1.25 0 0 0-1.247 1.256 1.25 1.25 0 0 0 1.247 1.257c-4.814 0-8.732 3.946-8.732 8.794v8.795c0 5.542 4.477 10.05 9.98 10.05s9.98-4.508 9.98-10.05v-8.796c0-2.077-1.679-3.768-3.742-3.768a1.25 1.25 0 0 1-1.248-1.256v-3.77h-6.238z"/>
        <path d="M21.209 48.998v-2.512c0-6.928 5.596-12.562 12.475-12.562.69 0 1.248.561 1.248 1.256a1.25 1.25 0 0 1-1.248 1.257c-5.503 0-9.98 4.507-9.98 10.049v2.512c0 6.236-5.037 11.307-11.228 11.307a1.25 1.25 0 0 1-1.248-1.256 1.25 1.25 0 0 1 1.248-1.256c4.814 0 8.733-3.946 8.733-8.795z"/>
        <path d="M12.476 66.587h-.624c-2.408 0-4.367-1.972-4.367-4.397 0-2.424 1.959-4.397 4.367-4.397.69 0 1.247.562 1.247 1.256a1.25 1.25 0 0 1-1.247 1.256A1.88 1.88 0 0 0 9.98 62.19c0 1.04.839 1.885 1.87 1.885h.625c8.255 0 14.97-6.763 14.97-15.077a1.25 1.25 0 0 1 1.248-1.256c.69 0 1.248.562 1.248 1.256v17.59a1.25 1.25 0 0 1-1.248 1.256 1.25 1.25 0 0 1-1.248-1.257v-8.536c-3.058 5.111-8.624 8.536-14.97 8.536z"/>
        <path d="M12.476 60.305h-.624a1.25 1.25 0 0 1-1.248-1.256 1.25 1.25 0 0 1 1.248-1.256h.624c.69 0 1.247.562 1.247 1.256a1.25 1.25 0 0 1-1.247 1.256z"/>
        <path d="M67.992 60.305h-.624c-6.191 0-11.228-5.07-11.228-11.307a1.25 1.25 0 0 1 1.248-1.256c.69 0 1.247.562 1.247 1.256 0 4.849 3.92 8.795 8.733 8.795h.624c2.408 0 4.367 1.973 4.367 4.397 0 2.425-1.959 4.397-4.367 4.397-.108 0-.212-.013-.312-.04-.1.027-.204.04-.312.04-6.346 0-11.912-3.425-14.97-8.536v8.536a1.25 1.25 0 0 1-1.248 1.257 1.25 1.25 0 0 1-1.247-1.257V48.998a1.25 1.25 0 0 1 1.247-1.256c.69 0 1.248.562 1.248 1.256 0 8.314 6.715 15.077 14.97 15.077.108 0 .213.013.312.039.1-.026.204-.04.312-.04a1.88 1.88 0 0 0 1.872-1.884 1.88 1.88 0 0 0-1.872-1.885z"/>
        <path d="M56.14 46.486c0-5.542-4.477-10.05-9.98-10.05a1.25 1.25 0 0 1-1.248-1.256 1.25 1.25 0 0 1 1.248-1.256c6.88 0 12.475 5.634 12.475 12.562v2.512a1.25 1.25 0 0 1-1.247 1.257 1.25 1.25 0 0 1-1.248-1.257v-2.512z"/>
        <path d="M51.15 67.844a1.25 1.25 0 0 1-1.247-1.257V48.998a1.25 1.25 0 0 1 1.247-1.256c.69 0 1.248.562 1.248 1.256v17.59a1.25 1.25 0 0 1-1.248 1.256z"/>
        <path d="M67.992 66.587h-.624a1.25 1.25 0 0 1-1.247-1.256 1.25 1.25 0 0 1 1.247-1.256h.624c.69 0 1.248.561 1.248 1.256a1.25 1.25 0 0 1-1.248 1.256z"/>
        <path d="M42.417 38.947c-.319 0-.639-.122-.882-.368a1.26 1.26 0 0 1 0-1.776l2.495-2.512a1.24 1.24 0 0 1 1.764 0 1.26 1.26 0 0 1 0 1.776L43.3 38.579a1.238 1.238 0 0 1-.882.368z"/>
        <path d="M42.416 38.947c-.187 0-.378-.042-.556-.131l-2.495-1.257a1.26 1.26 0 0 1-.558-1.686c.31-.62 1.059-.869 1.674-.56l2.495 1.256a1.26 1.26 0 0 1 .558 1.685c-.22.44-.66.693-1.118.693z"/>
        <path d="M37.428 38.947c-.458 0-.898-.253-1.118-.694a1.26 1.26 0 0 1 .558-1.686l2.495-1.256a1.247 1.247 0 0 1 1.674.561 1.26 1.26 0 0 1-.558 1.686l-2.495 1.256c-.178.091-.369.133-.556.133z"/>
        <path d="M37.427 38.947c-.32 0-.64-.122-.882-.368l-2.495-2.512a1.26 1.26 0 0 1 0-1.776 1.24 1.24 0 0 1 1.764 0l2.495 2.512a1.26 1.26 0 0 1 0 1.776 1.238 1.238 0 0 1-.882.368z"/>
        <path d="M34.932 36.435a1.25 1.25 0 0 1-1.248-1.257V31.49a1.25 1.25 0 0 1 1.248-1.256c.69 0 1.247.561 1.247 1.256v3.69a1.25 1.25 0 0 1-1.247 1.256z"/>
        <path d="M44.912 36.435a1.25 1.25 0 0 1-1.247-1.257V31.49a1.25 1.25 0 0 1 1.247-1.256c.69 0 1.248.561 1.248 1.256v3.69a1.25 1.25 0 0 1-1.248 1.256z"/>
        <path d="M58.567 33.924l.068-.002c4.129 0 7.486-3.38 7.486-7.538 0-.108.013-.214.039-.314-.026-.1-.04-.206-.04-.314 0-2.425 1.96-4.397 4.367-4.397 2.408 0 4.367 1.972 4.367 4.397 0 .108-.014.214-.04.314.026.1.04.206.04.314 0 9.006-7.276 16.333-16.219 16.333a1.25 1.25 0 0 1-1.247-1.257 1.25 1.25 0 0 1 1.247-1.256c7.567 0 13.724-6.2 13.724-13.82 0-.108.013-.214.039-.314-.026-.1-.04-.206-.04-.314a1.88 1.88 0 0 0-1.87-1.885 1.88 1.88 0 0 0-1.872 1.885c0 .108-.014.214-.04.314.026.1.04.206.04.314 0 5.517-4.438 10.01-9.908 10.05a1.263 1.263 0 0 1-.073.003H44.912a1.25 1.25 0 0 1-1.247-1.257 1.25 1.25 0 0 1 1.247-1.256h13.655z"/>
        <path d="M73.606 27.64a1.25 1.25 0 0 1-1.247-1.256v-.628a1.25 1.25 0 0 1 1.247-1.257c.69 0 1.248.562 1.248 1.257v.628a1.25 1.25 0 0 1-1.248 1.256z"/>
        <path d="M67.368 27.64a1.25 1.25 0 0 1-1.247-1.256v-.628a1.25 1.25 0 0 1 1.247-1.257c.69 0 1.248.562 1.248 1.257v.628a1.25 1.25 0 0 1-1.248 1.256z"/>
        <path d="M58.635 42.717h-2.414a1.25 1.25 0 0 1-1.247-1.257c0-.694.558-1.256 1.247-1.256h2.414c.69 0 1.248.562 1.248 1.256a1.25 1.25 0 0 1-1.248 1.257z"/>
        <path d="M21.136 36.435c-5.47-.04-9.908-4.534-9.908-10.051 0-.108.014-.214.04-.314-.026-.1-.04-.206-.04-.314a1.88 1.88 0 0 0-1.871-1.885 1.88 1.88 0 0 0-1.872 1.885c0 .108-.013.214-.039.314.026.1.04.206.04.314 0 7.62 6.156 13.82 13.723 13.82.69 0 1.247.562 1.247 1.256a1.25 1.25 0 0 1-1.247 1.257c-8.943 0-16.219-7.327-16.219-16.333 0-.108.014-.214.04-.314-.026-.1-.04-.206-.04-.314 0-2.425 1.959-4.397 4.367-4.397s4.366 1.972 4.366 4.397c0 .108-.013.214-.039.314.026.1.04.206.04.314 0 4.157 3.356 7.538 7.485 7.538.022 0 .045 0 .068.002h13.655c.69 0 1.247.561 1.247 1.256a1.25 1.25 0 0 1-1.247 1.257H21.209l-.073-.002z"/>
        <path d="M6.238 27.64a1.25 1.25 0 0 1-1.248-1.256v-.628a1.25 1.25 0 0 1 1.248-1.257c.69 0 1.247.562 1.247 1.257v.628a1.25 1.25 0 0 1-1.247 1.256z"/>
        <path d="M12.476 27.64a1.25 1.25 0 0 1-1.248-1.256v-.628a1.25 1.25 0 0 1 1.248-1.257c.69 0 1.247.562 1.247 1.257v.628a1.25 1.25 0 0 1-1.247 1.256z"/>
        <path d="M23.623 42.717h-2.414a1.25 1.25 0 0 1-1.248-1.257 1.25 1.25 0 0 1 1.248-1.256h2.414c.69 0 1.247.562 1.247 1.256 0 .695-.559 1.257-1.247 1.257z"/>
        <path d="M12.476 56.536H4.99a1.25 1.25 0 0 1-1.247-1.256V45.23a1.25 1.25 0 0 1 1.247-1.257h7.486c.69 0 1.247.562 1.247 1.256V55.28a1.25 1.25 0 0 1-1.247 1.256zm-6.238-2.512h4.99v-7.538h-4.99v7.538z"/>
        <path d="M73.606 56.536h-7.485a1.25 1.25 0 0 1-1.248-1.256V43.973a1.25 1.25 0 0 1 1.248-1.256h7.485c.69 0 1.248.561 1.248 1.256V55.28a1.25 1.25 0 0 1-1.248 1.256zm-6.238-2.512h4.99v-8.795h-4.99v8.795z"/>
        <path d="M16.218 54.024h-3.742a1.25 1.25 0 0 1-1.248-1.257v-5.023a1.25 1.25 0 0 1 1.248-1.257h3.742c.69 0 1.248.562 1.248 1.257v5.023a1.25 1.25 0 0 1-1.248 1.257zm-2.495-2.513h1.248v-2.51h-1.248v2.51z"/>
        <path d="M16.218 20.102H1.248A1.25 1.25 0 0 1 0 18.846V1.257A1.25 1.25 0 0 1 1.248.001h14.97c.69 0 1.248.562 1.248 1.256v17.589a1.25 1.25 0 0 1-1.248 1.256zM2.495 17.59h12.476V2.513H2.495V17.59z"/>
        <path d="M6.239 6.282c-.403 0-.8-.195-1.04-.558L2.706 1.956A1.26 1.26 0 0 1 3.05.213a1.242 1.242 0 0 1 1.73.348L7.277 4.33a1.26 1.26 0 0 1-.346 1.742 1.243 1.243 0 0 1-.691.211z"/>
        <path d="M11.228 6.282h-4.99A1.25 1.25 0 0 1 4.99 5.026 1.25 1.25 0 0 1 6.238 3.77h4.99c.69 0 1.248.562 1.248 1.256a1.25 1.25 0 0 1-1.248 1.256z"/>
        <path d="M11.227 6.282c-.237 0-.478-.068-.692-.21a1.26 1.26 0 0 1-.345-1.743L12.685.56a1.242 1.242 0 0 1 1.73-.348 1.26 1.26 0 0 1 .346 1.742l-2.495 3.77c-.24.363-.636.558-1.04.558z"/>
        <path d="M11.228 11.308h-4.99A1.25 1.25 0 0 1 4.99 10.05a1.25 1.25 0 0 1 1.248-1.256h4.99c.69 0 1.248.562 1.248 1.256a1.25 1.25 0 0 1-1.248 1.257z"/>
        <path d="M11.228 15.077h-4.99A1.25 1.25 0 0 1 4.99 13.82a1.25 1.25 0 0 1 1.248-1.256h4.99c.69 0 1.248.562 1.248 1.256a1.25 1.25 0 0 1-1.248 1.257z"/>
        <path d="M78.596 17.59H61.131a1.25 1.25 0 0 1-1.248-1.257V5.026a1.25 1.25 0 0 1 1.248-1.256h17.465c.69 0 1.248.562 1.248 1.256v11.307a1.25 1.25 0 0 1-1.248 1.257zm-16.218-2.513h14.97V6.282h-14.97v8.795z"/>
        <path d="M69.864 13.82c-.287 0-.577-.098-.811-.302L60.32 5.98a1.258 1.258 0 0 1-.135-1.77 1.238 1.238 0 0 1 1.758-.136l8.733 7.538c.523.45.585 1.244.134 1.77-.245.29-.596.438-.946.438z"/>
        <path d="M69.864 13.82c-.35 0-.702-.147-.947-.439a1.26 1.26 0 0 1 .135-1.77l8.732-7.538a1.24 1.24 0 0 1 1.76.137c.449.526.388 1.319-.135 1.77l-8.733 7.538a1.238 1.238 0 0 1-.812.302z"/>
        <path d="M78.596 17.59c-.286 0-.576-.1-.81-.303l-6.545-5.65a1.258 1.258 0 0 1-.135-1.77 1.237 1.237 0 0 1 1.758-.136l6.545 5.65c.523.451.585 1.244.134 1.77-.245.29-.596.439-.947.439z"/>
        <path d="M61.13 17.59a1.26 1.26 0 0 1-.812-2.21l6.55-5.654a1.24 1.24 0 0 1 1.758.136c.45.526.389 1.32-.135 1.77l-6.55 5.654a1.227 1.227 0 0 1-.81.304z"/>
        <path d="M31.725 12.79a1.238 1.238 0 0 1 1.105-.163c.036.014 3.628 1.193 7.716 1.193 3.75 0 6.03-.997 6.287-1.115.392-.204.88-.191 1.272.073l3.743 2.544c.571.39.72 1.17.336 1.745a1.244 1.244 0 0 1-1.733.34l-3.187-2.167c-1.092.407-3.418 1.093-6.718 1.093-3.52 0-6.632-.772-7.9-1.136l-3.253 2.21a1.249 1.249 0 0 1-1.733-.338 1.263 1.263 0 0 1 .336-1.746l3.729-2.534z"/>
    </g>
</symbol><symbol id="icon-phone" viewBox="0 0 20 20">
    <title>
        noun_880089_cc
    </title>
    <path d="M19.91 15.946l-.105-.304c-.233-.703-.998-1.43-1.711-1.628l-2.63-.715c-.712-.195-1.73.067-2.248.591l-.959.948a10.085 10.085 0 0 1-7.09-7.097l.947-.952c.517-.52.778-1.536.59-2.252l-.72-2.624C5.792 1.199 5.058.429 4.364.188l-.3-.095c-.698-.24-1.709.003-2.22.525L.41 2.04c-.246.254-.409.972-.409.976A16.763 16.763 0 0 0 4.92 15.08 16.79 16.79 0 0 0 16.937 20c.028 0 .77-.163 1.029-.414l1.418-1.423c.526-.52.758-1.52.526-2.216z" fill-rule="nonzero"/>
</symbol><symbol id="icon-resources" viewBox="0 0 30 34">
    <title>
        Unknown
    </title>
    <g fill-rule="nonzero">
        <path d="M28.965 25.836l-13.403 7.488v-5.83l8.35-4.538 5.053 2.88zm.918-.82V9.361l-4.903 2.798v10.064l4.903 2.793zm-28.9.82l13.402 7.488v-5.83L6.03 22.955l-5.047 2.88zm-.918-.82V9.361l4.902 2.798v10.064L.065 25.016zM.64 8.346L14.385.668v5.635l-8.807 4.784-.07.04L.64 8.345zm28.667 0L15.562.668v5.635l8.808 4.78.07.04 4.867-2.777z" opacity=".498"/>
        <path d="M14.385 26.166l-8.24-4.477v-8.862l8.24 4.698v8.641zm1.177 0l8.241-4.472v-8.867l-8.24 4.698v8.641zm-8.86-14.363l8.272-4.49 8.271 4.49-8.271 4.715-8.272-4.715z"/>
    </g>
</symbol><symbol id="icon-result" viewBox="0 0 80 80">
    <title>
        ic / result
    </title>
    <g fill-rule="nonzero">
        <path d="M61.688 11.894l9.337-9.337V8.78l-9.337 9.337z"/>
        <path d="M61.688 18.118l9.337-9.337h6.224l-9.336 9.337z"/>
        <path d="M39.903 44.572a4.662 4.662 0 0 1-4.669 4.668 4.663 4.663 0 0 1-4.668-4.668 4.672 4.672 0 0 1 4.668-4.668c1.292 0 2.46.528 3.3 1.369.84.855 1.369 2.007 1.369 3.299z"/>
        <path d="M38.534 41.273a4.657 4.657 0 0 0-3.3-1.37 4.672 4.672 0 0 0-4.668 4.669 4.663 4.663 0 0 0 4.668 4.668 4.662 4.662 0 0 0 4.669-4.668c0-1.292-.53-2.444-1.37-3.3zm6.598-6.599a13.935 13.935 0 0 1 4.107 9.898c0 7.733-6.27 14.005-14.005 14.005-7.733 0-14.005-6.272-14.005-14.005 0-7.734 6.272-14.005 14.005-14.005 3.86 0 7.377 1.571 9.898 4.107z"/>
        <path d="M45.132 34.674a13.936 13.936 0 0 0-9.898-4.107c-7.733 0-14.005 6.27-14.005 14.005 0 7.733 6.272 14.005 14.005 14.005 7.735 0 14.005-6.272 14.005-14.005 0-3.875-1.57-7.361-4.107-9.898zm6.597-6.597c4.233 4.232 6.847 10.052 6.847 16.495 0 12.9-10.457 23.341-23.342 23.341-12.884 0-23.341-10.442-23.341-23.341 0-12.885 10.457-23.342 23.341-23.342a23.183 23.183 0 0 1 16.495 6.847z"/>
        <path d="M51.73 28.077a23.183 23.183 0 0 0-16.496-6.847c-12.884 0-23.341 10.457-23.341 23.342 0 12.9 10.457 23.341 23.341 23.341 12.885 0 23.342-10.442 23.342-23.341 0-6.443-2.614-12.263-6.847-16.495zm6.613-6.614c5.913 5.913 9.57 14.083 9.57 23.109 0 14.222-9.088 26.33-21.786 30.826a32.739 32.739 0 0 1-10.893 1.852c-3.828 0-7.485-.654-10.892-1.852C11.644 70.9 2.556 58.794 2.556 44.572c0-18.051 14.627-32.678 32.678-32.678 9.026 0 17.196 3.656 23.109 9.57z"/>
        <g>
            <path d="M35.234 78.806C16.357 78.806 1 63.45 1 44.572c0-18.878 15.357-34.235 34.234-34.235 18.878 0 34.235 15.357 34.235 34.235 0 18.877-15.357 34.234-34.235 34.234zm0-65.356c-17.16 0-31.122 13.96-31.122 31.122 0 17.16 13.962 31.122 31.122 31.122 17.162 0 31.123-13.962 31.123-31.122 0-17.161-13.961-31.122-31.123-31.122z"/>
            <path d="M35.234 69.47c-13.727 0-24.897-11.17-24.897-24.898 0-13.729 11.17-24.898 24.897-24.898 13.729 0 24.898 11.17 24.898 24.898 0 13.727-11.17 24.898-24.898 24.898zm0-46.684c-12.012 0-21.785 9.772-21.785 21.786 0 12.013 9.773 21.785 21.785 21.785 12.014 0 21.786-9.772 21.786-21.785 0-12.014-9.772-21.786-21.786-21.786z"/>
            <path d="M35.234 60.133c-8.58 0-15.56-6.981-15.56-15.561s6.98-15.561 15.56-15.561c8.581 0 15.562 6.98 15.562 15.56s-6.98 15.562-15.562 15.562zm0-28.01c-6.863 0-12.448 5.585-12.448 12.449 0 6.863 5.585 12.449 12.448 12.449 6.865 0 12.45-5.586 12.45-12.45 0-6.863-5.585-12.448-12.45-12.448z"/>
            <path d="M35.234 50.796a6.231 6.231 0 0 1-6.224-6.224 6.23 6.23 0 0 1 6.224-6.225 6.23 6.23 0 0 1 6.225 6.225 6.231 6.231 0 0 1-6.225 6.224zm0-9.336a3.115 3.115 0 0 0-3.112 3.112 3.116 3.116 0 0 0 3.112 3.112 3.116 3.116 0 0 0 3.113-3.112 3.115 3.115 0 0 0-3.113-3.112z"/>
            <path d="M35.234 46.128a1.555 1.555 0 0 1-1.1-2.656L73.04 4.569a1.554 1.554 0 0 1 2.2 0 1.553 1.553 0 0 1 0 2.2L36.335 45.67a1.55 1.55 0 0 1-1.1.457z"/>
            <path d="M67.913 19.674a1.555 1.555 0 0 1-1.1-2.656l9.336-9.337a1.554 1.554 0 0 1 2.2 0 1.553 1.553 0 0 1 0 2.2l-9.336 9.336a1.55 1.55 0 0 1-1.1.457z"/>
            <path d="M61.688 19.676a1.556 1.556 0 0 1 0-3.113l6.225-.001a1.555 1.555 0 1 1 0 3.112l-6.225.002z"/>
            <path d="M77.25 10.337h-6.225a1.555 1.555 0 1 1 0-3.112h6.224c.861 0 1.556.695 1.556 1.556 0 .86-.695 1.556-1.556 1.556z"/>
            <path d="M61.69 13.447a1.555 1.555 0 0 1-1.1-2.656l9.335-9.334a1.554 1.554 0 0 1 2.2 0 1.553 1.553 0 0 1 0 2.2L62.79 12.99a1.548 1.548 0 0 1-1.1.456z"/>
            <path d="M61.687 19.674c-.86 0-1.556-.697-1.556-1.558l.003-6.225a1.556 1.556 0 0 1 3.112 0l-.003 6.228c0 .86-.697 1.555-1.556 1.555z"/>
            <path d="M71.026 10.337a1.556 1.556 0 0 1-1.556-1.556l-.001-6.224a1.556 1.556 0 1 1 3.112 0l.002 6.224c0 .859-.696 1.556-1.557 1.556z"/>
        </g>
    </g>
</symbol><symbol id="icon-right-arrow" viewBox="0 0 31.49 31.49">
    <path d="M21.205 5.007a1.112 1.112 0 0 0-1.587 0 1.12 1.12 0 0 0 0 1.571l8.047 8.047H1.111A1.106 1.106 0 0 0 0 15.737c0 .619.492 1.127 1.111 1.127h26.554l-8.047 8.032c-.429.444-.429 1.159 0 1.587a1.112 1.112 0 0 0 1.587 0l9.952-9.952a1.093 1.093 0 0 0 0-1.571l-9.952-9.953z"/>
</symbol><symbol id="icon-shield" viewBox="0 0 60 80">
    <title>
        ic / shield
    </title>
    <g fill-rule="nonzero">
        <path d="M37.5 30.762c7.174 4.138 9.625 13.312 5.487 20.488-4.137 7.175-13.312 9.625-20.487 5.489-7.175-4.139-9.625-13.314-5.489-20.489 4.139-7.175 13.314-9.625 20.489-5.488z"/>
        <g>
            <path d="M37.5 30.762a14.956 14.956 0 0 0-10.036-1.79c1.726.285 3.431.864 5.036 1.79 7.174 4.138 9.625 13.312 5.488 20.488-2.317 4.017-6.213 6.55-10.452 7.279 5.991.996 12.239-1.708 15.451-7.279 4.138-7.175 1.687-16.35-5.487-20.488z"/>
            <path d="M52.5 20v30c0 11.025-8.976 20-20 20h-5c-11.025 0-20-8.975-20-20V20h10c4.8 0 9.175-1.837 12.5-4.813C33.325 18.163 37.7 20 42.5 20h10zm-9.513 31.25c4.14-7.175 1.688-16.35-5.487-20.488-7.175-4.137-16.35-1.687-20.489 5.488-4.136 7.175-1.686 16.35 5.489 20.489 7.174 4.136 16.35 1.686 20.487-5.489z"/>
        </g>
        <path d="M47.5 20v30c0 11.025-8.976 20-20 20h5c11.024 0 20-8.975 20-20V20h-5z"/>
        <path d="M58.75 8.75V50c0 14.513-11.739 26.25-26.25 26.25a2.492 2.492 0 0 0-2.5 2.5c0-1.375-1.125-2.5-2.5-2.5C12.988 76.25 1.25 64.513 1.25 50V8.75c0 2.762 2.238 5 5 5H17.5A12.49 12.49 0 0 0 30 1.25c0 6.912 5.587 12.5 12.5 12.5h11.25c2.763 0 5-2.238 5-5zM52.5 50V20h-10c-4.8 0-9.175-1.837-12.5-4.813C26.675 18.163 22.3 20 17.5 20h-10v30c0 11.025 8.975 20 20 20h5c11.024 0 20-8.975 20-20z"/>
        <path d="M53.75 13.75V50c0 14.513-9.516 22.828-21.25 26.25 14.511 0 26.25-11.737 26.25-26.25V8.75c0 2.762-2.237 5-5 5z"/>
        <path d="M30 75.957A3.736 3.736 0 0 1 32.498 75l.002 2.5a1.249 1.249 0 1 1-.002-2.5h.003c13.784 0 24.999-11.215 24.999-25V13.747A6.218 6.218 0 0 1 53.75 15H42.5c-5.539 0-10.324-3.293-12.5-8.024C27.824 11.707 23.039 15 17.5 15H6.25a6.218 6.218 0 0 1-3.75-1.253v36.252c0 13.785 11.215 25 25 25a3.735 3.735 0 0 1 2.5.959zm1.25 2.793a1.249 1.249 0 1 1-2.5 0c0-.69-.56-1.25-1.25-1.25l-.058-.001C12.305 77.467 0 65.143 0 49.999V8.75a1.249 1.249 0 1 1 2.5 0 3.755 3.755 0 0 0 3.75 3.75H17.5c6.204 0 11.25-5.046 11.25-11.25a1.249 1.249 0 1 1 2.5 0c0 6.204 5.046 11.25 11.25 11.25h11.25a3.755 3.755 0 0 0 3.75-3.75 1.246 1.246 0 0 1 1.25-1.25c.691 0 1.25.559 1.25 1.25v41.249c0 15.163-12.336 27.5-27.5 27.5-.69 0-1.25.561-1.25 1.251z"/>
        <path d="M32.5 71.25h-5c-11.717 0-21.25-9.534-21.25-21.251V20c0-.691.559-1.25 1.25-1.25h10c4.295 0 8.436-1.596 11.665-4.495a1.248 1.248 0 0 1 1.67 0c3.229 2.899 7.37 4.495 11.665 4.495h10c.691 0 1.25.559 1.25 1.25v29.999c0 11.717-9.532 21.251-21.25 21.251zm-23.75-50v28.749c0 10.34 8.411 18.751 18.75 18.751h5c10.339 0 18.75-8.411 18.75-18.751V21.25H42.5A19.922 19.922 0 0 1 30 16.826a19.922 19.922 0 0 1-12.5 4.424H8.75z"/>
        <path d="M29.99 60a16.25 16.25 0 0 1-8.114-2.181 16.129 16.129 0 0 1-7.57-9.864 16.139 16.139 0 0 1 1.625-12.329A16.299 16.299 0 0 1 30.013 27.5c2.837 0 5.642.755 8.11 2.18a16.138 16.138 0 0 1 7.572 9.865 16.133 16.133 0 0 1-1.625 12.329A16.297 16.297 0 0 1 29.99 60zm.023-30a13.787 13.787 0 0 0-11.916 6.876 13.662 13.662 0 0 0-1.376 10.433 13.641 13.641 0 0 0 6.405 8.345A13.75 13.75 0 0 0 29.99 57.5c4.902 0 9.468-2.635 11.914-6.876A13.662 13.662 0 0 0 43.28 40.19a13.647 13.647 0 0 0-6.406-8.346A13.752 13.752 0 0 0 30.012 30z"/>
    </g>
</symbol><symbol id="icon-specialization" viewBox="0 0 80 80">
    <title>
        ic / Specialization
    </title>
    <g fill-rule="nonzero">
        <path d="M67.589 39.923c0 15.157-12.367 27.446-27.623 27.446S12.342 55.08 12.342 39.923c0-15.159 12.368-27.447 27.624-27.447 15.256 0 27.623 12.288 27.623 27.447z"/>
        <path d="M39.966 12.476c-.848 0-1.684.043-2.512.118 14.08 1.26 25.113 13.012 25.113 27.329 0 14.316-11.034 26.067-25.113 27.327.828.075 1.664.119 2.512.119 15.255 0 27.623-12.289 27.623-27.446 0-15.159-12.368-27.447-27.623-27.447z"/>
        <path d="M51.266 32.437v3.78L47.5 33.685s-2.51 1.247-6.906 1.247c-4.381 0-8.161-1.247-8.161-1.247l-3.767 2.532v-3.78c0-5.514 4.495-9.98 10.045-9.98h7.534v4.99c2.775 0 5.022 2.233 5.022 4.99z"/>
        <path d="M46.244 27.447v-4.99H41.22v7.485c2.775 0 5.023.985 5.023 3.743v.461a10.06 10.06 0 0 0 1.255-.461l3.767 2.532v-3.78c0-2.757-2.247-4.99-5.022-4.99z"/>
        <path d="M51.266 36.217v3.706c0 4.403-2.561 8.22-6.278 10.054a11.263 11.263 0 0 1-5.022 1.174c-1.808 0-3.516-.425-5.023-1.174-3.703-1.82-6.253-5.614-6.278-9.992v-3.768l3.767-2.532s3.78 1.247 8.161 1.247c4.395 0 6.906-1.247 6.906-1.247l3.767 2.532z"/>
        <path d="M47.5 33.685s-.448.213-1.256.461v5.777c0 4.403-2.562 8.22-6.278 10.054-.788.39-1.63.69-2.512.89.808.181 1.648.284 2.512.284 1.808 0 3.516-.425 5.022-1.174 3.717-1.833 6.278-5.65 6.278-10.054v-3.706L47.5 33.685z"/>
        <path d="M39.966 51.15c1.808 0 3.516-.424 5.022-1.173v4.916l-2.511 1.248-2.511-1.248-2.512 1.248-2.51-1.248v-4.916a11.265 11.265 0 0 0 5.022 1.174z"/>
        <path d="M42.477 56.141l2.511-1.248h3.767c3.478 0 6.278 2.795 6.278 6.238v1.797a27.644 27.644 0 0 1-15.067 4.441 27.615 27.615 0 0 1-15.068-4.441V61.13c0-3.443 2.813-6.238 6.278-6.238h3.767l2.511 1.248 2.512-1.248 2.51 1.248z"/>
        <path d="M48.755 54.893h-3.767l-.21.105c2.974.495 5.233 3.044 5.233 6.133v4.358a27.634 27.634 0 0 0 5.022-2.561V61.13c0-3.443-2.8-6.238-6.278-6.238z"/>
        <path d="M24.897 62.379a1.25 1.25 0 0 1-1.255-1.248c0-4.128 3.378-7.485 7.533-7.485a1.25 1.25 0 0 1 1.256 1.247 1.25 1.25 0 0 1-1.256 1.248c-2.77 0-5.022 2.238-5.022 4.99a1.25 1.25 0 0 1-1.256 1.248z"/>
        <path d="M34.942 56.141h-3.767a1.25 1.25 0 0 1-1.255-1.248c0-.69.561-1.247 1.255-1.247h3.767a1.25 1.25 0 0 1 1.256 1.247 1.25 1.25 0 0 1-1.256 1.248z"/>
        <path d="M24.897 64.175a1.25 1.25 0 0 1-1.255-1.247V61.13c0-.69.561-1.247 1.255-1.247a1.25 1.25 0 0 1 1.256 1.247v1.797a1.25 1.25 0 0 1-1.256 1.247z"/>
        <path d="M55.032 62.379a1.25 1.25 0 0 1-1.256-1.248c0-2.752-2.252-4.99-5.022-4.99a1.25 1.25 0 0 1-1.256-1.248c0-.69.562-1.247 1.256-1.247 4.155 0 7.533 3.357 7.533 7.485a1.25 1.25 0 0 1-1.255 1.248z"/>
        <path d="M48.754 56.141h-3.767a1.25 1.25 0 0 1-1.256-1.248c0-.69.562-1.247 1.256-1.247h3.767a1.25 1.25 0 0 1 1.255 1.247 1.25 1.25 0 0 1-1.255 1.248z"/>
        <path d="M55.032 64.175a1.25 1.25 0 0 1-1.256-1.247V61.13c0-.69.562-1.247 1.256-1.247a1.25 1.25 0 0 1 1.255 1.247v1.797a1.25 1.25 0 0 1-1.255 1.247z"/>
        <path d="M34.942 56.141a1.25 1.25 0 0 1-1.256-1.248v-4.91c0-.69.562-1.248 1.256-1.248a1.25 1.25 0 0 1 1.256 1.248v4.91a1.25 1.25 0 0 1-1.256 1.248z"/>
        <path d="M44.987 56.141a1.25 1.25 0 0 1-1.256-1.248v-4.91c0-.69.562-1.248 1.256-1.248a1.25 1.25 0 0 1 1.255 1.248v4.91a1.25 1.25 0 0 1-1.255 1.248z"/>
        <path d="M46.242 23.704H38.71c-.694 0-1.256-.559-1.256-1.247 0-.69.562-1.248 1.256-1.248h7.533a1.25 1.25 0 0 1 1.256 1.248c0 .688-.56 1.247-1.256 1.247z"/>
        <path d="M39.963 52.398c-6.923 0-12.555-5.595-12.555-12.473 0-.689.562-1.247 1.256-1.247a1.25 1.25 0 0 1 1.256 1.247c0 5.501 4.505 9.978 10.043 9.978 5.54 0 10.046-4.477 10.046-9.978 0-.689.562-1.247 1.256-1.247a1.25 1.25 0 0 1 1.255 1.247c0 6.878-5.632 12.473-12.557 12.473z"/>
        <path d="M28.664 41.234c-.694 0-1.256-.56-1.256-1.248v-7.549c0-.689.562-1.247 1.256-1.247a1.25 1.25 0 0 1 1.256 1.247v7.549c0 .688-.561 1.248-1.256 1.248z"/>
        <path d="M51.265 41.173c-.694 0-1.256-.56-1.256-1.248v-7.488c0-.689.562-1.247 1.256-1.247a1.25 1.25 0 0 1 1.255 1.247v7.488c0 .688-.56 1.248-1.255 1.248z"/>
        <path d="M51.265 33.683a1.251 1.251 0 0 1-1.256-1.248c0-2.063-1.69-3.74-3.767-3.74-.694 0-1.255-.56-1.255-1.248 0-.689.561-1.248 1.255-1.248 3.463 0 6.278 2.798 6.278 6.236a1.25 1.25 0 0 1-1.255 1.248z"/>
        <path d="M46.242 28.695c-.694 0-1.255-.56-1.255-1.248v-4.99c0-.69.561-1.248 1.255-1.248a1.25 1.25 0 0 1 1.256 1.248v4.99c0 .688-.56 1.248-1.256 1.248z"/>
        <path d="M28.664 33.685c-.694 0-1.256-.56-1.256-1.248 0-6.19 5.07-11.228 11.3-11.228a1.25 1.25 0 0 1 1.256 1.248c0 .688-.56 1.247-1.255 1.247-4.845 0-8.79 3.917-8.79 8.733 0 .689-.56 1.248-1.255 1.248z"/>
        <path d="M51.264 37.459c-.241 0-.486-.07-.702-.214l-3.767-2.526a1.243 1.243 0 0 1-.34-1.732 1.26 1.26 0 0 1 1.745-.335l3.767 2.526c.575.385.726 1.162.339 1.732a1.258 1.258 0 0 1-1.042.549z"/>
        <path d="M40.592 36.18c-4.535 0-8.396-1.258-8.557-1.312a1.246 1.246 0 0 1-.795-1.575 1.254 1.254 0 0 1 1.586-.792c.037.012 3.652 1.184 7.766 1.184 3.99 0 6.329-1.108 6.352-1.12.62-.3 1.374-.047 1.68.57a1.24 1.24 0 0 1-.564 1.666c-.116.056-2.84 1.379-7.468 1.379z"/>
        <path d="M28.665 37.459c-.403 0-.8-.193-1.042-.55a1.243 1.243 0 0 1 .339-1.731l3.767-2.526a1.26 1.26 0 0 1 1.744.335 1.241 1.241 0 0 1-.339 1.732l-3.767 2.526a1.26 1.26 0 0 1-.702.214z"/>
        <path d="M37.452 57.389c-.188 0-.38-.043-.56-.132l-2.511-1.248a1.244 1.244 0 0 1-.562-1.674 1.264 1.264 0 0 1 1.686-.557l2.511 1.248c.62.307.871 1.057.561 1.674-.22.436-.664.689-1.125.689z"/>
        <path d="M37.454 57.389c-.46 0-.903-.253-1.125-.69a1.244 1.244 0 0 1 .562-1.675l2.511-1.247a1.262 1.262 0 0 1 1.685.557c.31.617.059 1.367-.561 1.674l-2.511 1.248c-.18.09-.372.133-.56.133z"/>
        <path d="M42.477 57.389c-.46 0-.904-.253-1.125-.69a1.244 1.244 0 0 1 .561-1.675l2.512-1.247a1.263 1.263 0 0 1 1.684.557c.31.617.06 1.367-.56 1.674l-2.512 1.248c-.18.09-.372.133-.56.133z"/>
        <path d="M42.474 57.389c-.188 0-.38-.043-.56-.132l-2.51-1.248a1.244 1.244 0 0 1-.562-1.674 1.263 1.263 0 0 1 1.685-.557l2.511 1.248c.62.307.872 1.057.561 1.674-.22.436-.664.689-1.125.689z"/>
        <path d="M39.964 68.617c-15.925 0-28.878-12.872-28.878-28.694s12.953-28.694 28.878-28.694 28.88 12.872 28.88 28.694-12.955 28.694-28.88 28.694zm0-54.893c-14.538 0-26.367 11.752-26.367 26.199 0 14.445 11.829 26.198 26.367 26.198 14.54 0 26.368-11.753 26.368-26.198 0-14.447-11.829-26.2-26.368-26.2z"/>
        <path d="M39.964 79.845a1.25 1.25 0 0 1-1.255-1.248V67.37c0-.69.561-1.248 1.255-1.248a1.25 1.25 0 0 1 1.256 1.248v11.228a1.25 1.25 0 0 1-1.256 1.248z"/>
        <path d="M39.964 79.845c-.32 0-.642-.123-.887-.366a1.24 1.24 0 0 1 0-1.764l2.51-2.495a1.26 1.26 0 0 1 1.776 0 1.24 1.24 0 0 1 0 1.763l-2.51 2.496a1.254 1.254 0 0 1-.889.366z"/>
        <path d="M39.964 79.845c-.32 0-.642-.123-.887-.366l-2.512-2.496a1.24 1.24 0 0 1 0-1.763 1.26 1.26 0 0 1 1.776 0l2.511 2.495a1.24 1.24 0 0 1 0 1.764 1.254 1.254 0 0 1-.888.366z"/>
        <path d="M39.964 13.724c-.694 0-1.255-.56-1.255-1.248V1.248c0-.689.561-1.247 1.255-1.247a1.25 1.25 0 0 1 1.256 1.247v11.228c0 .689-.56 1.248-1.256 1.248z"/>
        <path d="M39.964 3.012l.888-.882a1.24 1.24 0 0 0 .001-1.763l2.51 2.494a1.24 1.24 0 0 1 0 1.764 1.256 1.256 0 0 1-1.776 0l-1.623-1.613-1.623 1.613a1.256 1.256 0 0 1-1.776 0 1.24 1.24 0 0 1 0-1.764L39.077.366a1.26 1.26 0 0 1 1.775 0z"/>
        <path d="M73.674 60.507c-.213 0-.43-.054-.627-.167l-9.787-5.614a1.241 1.241 0 0 1-.46-1.704 1.26 1.26 0 0 1 1.716-.457l9.787 5.614c.601.344.807 1.108.46 1.705a1.26 1.26 0 0 1-1.09.623z"/>
        <path d="M72.137 58.377l-.594-2.203c-.18-.665.219-1.35.888-1.528.67-.18 1.357.216 1.538.882l.919 3.408a1.247 1.247 0 0 1-.912 1.535l-3.407.907a1.255 1.255 0 0 1-1.538-.882c-.182-.665.218-1.35.887-1.529l2.219-.59z"/>
        <path d="M16.042 27.447c-.214 0-.43-.054-.627-.168L5.63 21.665a1.244 1.244 0 0 1-.46-1.703 1.259 1.259 0 0 1 1.716-.457l9.786 5.614c.601.344.807 1.108.459 1.704-.232.4-.654.624-1.088.624z"/>
        <path d="M7.175 25.241a1.256 1.256 0 0 1-1.212-.926l-.918-3.408c-.18-.666.219-1.35.888-1.528a1.257 1.257 0 0 1 1.538.882l.918 3.408c.18.666-.219 1.35-.888 1.528-.11.03-.218.044-.326.044z"/>
        <path d="M6.256 21.833a1.248 1.248 0 0 1-.324-2.454l3.428-.913a1.248 1.248 0 1 1 .65 2.41l-3.428.913c-.11.03-.218.044-.326.044z"/>
        <path d="M63.889 27.447c-.435 0-.856-.224-1.089-.624a1.244 1.244 0 0 1 .46-1.704l9.787-5.614a1.26 1.26 0 0 1 1.715.457c.347.597.141 1.36-.46 1.703l-9.786 5.614a1.256 1.256 0 0 1-.627.168z"/>
        <path d="M72.136 21.466l-2.217-.59a1.248 1.248 0 0 1-.887-1.528c.18-.667.869-1.062 1.538-.882l3.43.913a1.247 1.247 0 0 1 .872 1.58l-.903 3.356a1.252 1.252 0 0 1-1.538.882 1.248 1.248 0 0 1-.888-1.528l.593-2.203z"/>
        <path d="M6.258 60.506c-.435 0-.856-.225-1.089-.624a1.243 1.243 0 0 1 .46-1.704l9.787-5.613a1.261 1.261 0 0 1 1.715.457c.347.598.141 1.36-.459 1.704l-9.787 5.613a1.255 1.255 0 0 1-.627.167z"/>
        <path d="M9.69 61.42c-.108 0-.218-.015-.327-.043l-3.43-.913a1.246 1.246 0 0 1-.888-1.529c.18-.666.87-1.06 1.538-.882l3.43.913a1.246 1.246 0 0 1-.323 2.453z"/>
        <path d="M6.258 60.506a1.246 1.246 0 0 1-1.215-1.57l.92-3.408c.18-.666.868-1.06 1.538-.882.67.179 1.068.862.888 1.528l-.92 3.408c-.15.557-.656.924-1.21.924z"/>
    </g>
</symbol><symbol id="icon-triangle" viewBox="0 0 230 254">
    <path fill-rule="evenodd" d="M217.897 657.434c-17.214.309-24.507-11.969-16.173-27.228l36.757-67.457c8.29-15.234 21.993-40.253 30.278-55.463l36.734-67.463c8.35-15.23 22.434-15.515 31.35-.506l111.093 187.028c8.942 15.053 2.108 27.542-15.141 27.793l-76.112 1.17c-17.165.259-45.436.753-62.65.962l-76.136 1.164z" filter="url(#a)" transform="rotate(90 428.072 229.834)"/>
</symbol></svg>